{
.appVersion = "1045";
customParameters = (
{
name = glyphOrder;
value = (
dvA,
dvAA,
dvmAA,
dvI,
dvII,
dvU,
dvUU,
dvvR,
dvvRR,
dvvL,
dvEcandra,
dvE,
dvAI,
dvmE,
dvOcandra,
dvO,
dvAU,
dvmAI,
dvmI,
dvmII,
dvmOcandra,
dvmEcandra,
dvmO,
dvmAU,
dvKA,
dvKHA,
dvGA,
dvGHA,
dvNGA,
dvCA,
dvCHA,
dvJA,
dvJHA,
dvNYA,
dvTTA,
dvTTHA,
dvDDA,
dvDDHA,
dvNNA,
dvTA,
dvTHA,
dvDA,
dvDHA,
dvNA,
dvPA,
dvPHA,
dvBA,
dvBHA,
dvMA,
dvYA,
dvRA,
dvLA,
dvLLA,
dvNukta,
dvVA,
dvSHA,
dvSSA,
dvSA,
dvHA,
dvKxA,
dvKHxA,
dvGxA,
dvJxA,
dvDDxA,
dvDDHxA,
dvPHxA,
danda,
doubledanda,
space,
CR,
.notdef,
dvVisarga,
dvmU,
dvmUU,
dvmvR,
dvCandrabindu,
dvAnusvara,
dvVirama,
dvK_SSA,
dvJ_NYA,
dvReph,
dvK,
dvKH,
dvG,
dvGH,
dvC,
dvCH,
dvJ,
dvJH,
dvNY,
dvNN,
dvT,
dvTH,
dvDH,
dvN,
dvP,
dvPH,
dvB,
dvBH,
dvM,
dvY,
dvL,
dvLL,
dvV,
dvSH,
dvSS,
dvS,
dvJ_NY,
dvK_R,
dvKH_R,
dvK_RA,
dvKH_RA,
dvG_RA,
dvGH_RA,
dvNG_RA,
dvRashtrasign,
dvC_RA,
dvCH_RA,
dvJ_RA,
dvJH_RA,
dvNY_RA,
dvTT_RA,
dvTTH_RA,
dvDD_RA,
dvDDH_RA,
dvNN_RA,
dvT_RA,
dvTH_RA,
dvD_RA,
dvDH_RA,
dvP_RA,
dvPH_RA,
dvB_RA,
dvBH_RA,
dvM_RA,
dvY_RA,
dvV_RA,
dvK_TA,
dvTT_TTA,
dvTT_TTHA,
dvTT_VA,
dvTTH_TTHA,
dvDD_DDA,
dvDD_DDHA,
dvDD_VA,
dvDDH_DDHA,
dvT_TA,
dvD_VA,
dvD_YA,
dvP_TA,
dvP_TTA,
dvP_TTHA,
dvSH_VA,
dvSH_RA,
dvSS_TTA,
dvSS_TTHA,
dvSS_TT_VA,
dvS_RA,
dvS_T_RA,
dvH_MA,
dvH_YA,
dvH_RA,
dvH_VA,
dvHA_mvR,
dvG_R,
dvGH_R,
dvC_R,
dvJ_R,
dvJH_R,
dvNY_R,
dvNN_R,
dvT_R,
dvTH_R,
dvDH_R,
dvP_R,
dvPH_R,
dvB_R,
dvBH_R,
dvM_R,
dvY_R,
dvV_R,
dvSH_NA,
dvS_NA,
dvH_NA,
dvDA_mvR,
dvSH_CA,
dvSHA_mvR,
dvTT_YA,
dvTTH_YA,
dvDD_YA,
dvDDH_YA,
dvKx,
dvKHx,
dvGx,
dvJx,
dvPHx,
dvK_SS,
dvD_MA,
dvII_Anusvara,
dvK_KA,
dvK_KHA,
dvK_SA,
dvK_YA,
dvK_VA,
dvC_CA,
dvT_KA,
dvT_PA,
dvT_SA,
dvS_YA,
dvS_TTA,
dvT_K_YA,
dvT_K_RA,
dvT_K_VA,
dvT_K_SSA,
dvT_P_RA,
dvT_S_YA,
dvT_VA,
dvT_KHA,
dvT_THA,
dvT_PHA,
dvT_MA,
dvT_YA,
dvT_LA,
dvTH_YA,
dvTH_VA,
dvK_CA,
dvK_JA,
dvK_TTA,
dvK_NNA,
dvK_THA,
dvK_DA,
dvK_PA,
dvK_PHA,
dvK_MA,
dvK_LA,
dvKH_KHA,
dvKH_TA,
dvKH_MA,
dvKH_YA,
dvKH_VA,
dvKH_SHA,
dvG_GA,
dvG_GHA,
dvG_JA,

glyphs = (
{
glyphname = dvA;
lastChange = "2017-08-08 23:18:27 +0000";
layers = (
{
layerId = "C0ED9D5D-A651-429A-8F5D-D93A2EDA2DC0";
paths = (
{
closed = 1;
nodes = (
"657 0 LINE",
"722 0 LINE",
"722 680 LINE",
"862 680 LINE",
"862 740 LINE",
"657 740 LINE",
"657 399 LINE",
"398 399 LINE",
"424 344 LINE",
"657 344 LINE"
);
},
{
closed = 1;
nodes = (
"256 445 LINE",
"256 385 LINE",
"296 385 LINE SMOOTH",
"386 385 OFFCURVE",
"446 344 OFFCURVE",
"446 254 CURVE SMOOTH",
"446 164 OFFCURVE",
"388 107 OFFCURVE",
"298 107 CURVE SMOOTH",
"209 107 OFFCURVE",
"146 164 OFFCURVE",
"146 253 CURVE",
"86 253 LINE",
"86 130 OFFCURVE",
"175 52 OFFCURVE",
"298 52 CURVE SMOOTH",
"421 52 OFFCURVE",
"506 131 OFFCURVE",
"506 254 CURVE SMOOTH",
"506 330 OFFCURVE",
"464 394 OFFCURVE",
"385 415 CURVE",
"385 421 LINE",
"458 444 OFFCURVE",
"494 496 OFFCURVE",
"494 567 CURVE SMOOTH",
"494 680 OFFCURVE",
"407 750 OFFCURVE",
"294 750 CURVE SMOOTH",
"181 750 OFFCURVE",
"94 680 OFFCURVE",
"94 567 CURVE",
"154 567 LINE",
"154 646 OFFCURVE",
"215 695 OFFCURVE",
"294 695 CURVE SMOOTH",
"377 695 OFFCURVE",
"434 647 OFFCURVE",
"434 567 CURVE SMOOTH",
"434 486 OFFCURVE",
"368 445 OFFCURVE",
"289 445 CURVE SMOOTH"
);
}
);
width = 822;
},
{
layerId = "22D14058-393A-410A-BECB-F56B411A01B2";
paths = (
{
closed = 1;
nodes = (
"626 0 LINE",
"790 0 LINE",
"790 600 LINE",
"885 600 LINE",
"885 740 LINE",
"626 740 LINE",
"626 396 LINE",
"411 396 LINE",
"411 258 LINE",
"411 258 OFFCURVE",
"626 258 OFFCURVE",
"626 258 CURVE"
);
},
{
closed = 1;
nodes = (
"249 485 LINE",
"249 485 OFFCURVE",
"249 341 OFFCURVE",
"249 341 CURVE",
"249 341 OFFCURVE",
"267 341 OFFCURVE",
"276 341 CURVE SMOOTH",
"343 341 OFFCURVE",
"376 317 OFFCURVE",
"376 269 CURVE SMOOTH",
"376 231 OFFCURVE",
"354 202 OFFCURVE",
"311 202 CURVE SMOOTH",
"269 202 OFFCURVE",
"244 232 OFFCURVE",
"244 271 CURVE",
"87 271 LINE",
"87 137 OFFCURVE",
"178 60 OFFCURVE",
"309 60 CURVE SMOOTH",
"438 60 OFFCURVE",
"531 130 OFFCURVE",
"531 270 CURVE SMOOTH",
"531 330 OFFCURVE",
"495 390 OFFCURVE",
"434 415 CURVE",
"434 418 LINE",
"486 440 OFFCURVE",
"522 493 OFFCURVE",
"522 562 CURVE SMOOTH",
"522 675 OFFCURVE",
"440 749 OFFCURVE",
"313 749 CURVE SMOOTH",
"185 749 OFFCURVE",
"93 667 OFFCURVE",
"93 547 CURVE",
"250 547 LINE",
"252 581 OFFCURVE",
"270 607 OFFCURVE",
"309 607 CURVE SMOOTH",
"350 607 OFFCURVE",
"363 577 OFFCURVE",
"363 548 CURVE SMOOTH",
"363 505 OFFCURVE",
"329 485 OFFCURVE",
"280 485 CURVE SMOOTH"
);
}
);
width = 865;
},
{
layerId = "3C02C8EC-C43C-4762-8B99-FE4CB64E6532";
paths = (
{
closed = 1;
nodes = (
"590.877 0 LINE",
"655.877 0 LINE",
"775.78 680 LINE",
"915.78 680 LINE",
"926.359 740 LINE",
"721.359 740 LINE",
"661.232 399 LINE",
"402.232 399 LINE",
"418.534 344 LINE",
"651.534 344 LINE"
);
},
{
closed = 1;
nodes = (
"268.343 445 LINE",
"257.763 385 LINE",
"297.763 385 LINE SMOOTH",
"387.763 385 OFFCURVE",
"440.534 344 OFFCURVE",
"424.664 254 CURVE SMOOTH",
"408.795 164 OFFCURVE",
"340.744 107 OFFCURVE",
"250.744 107 CURVE SMOOTH",
"161.744 107 OFFCURVE",
"108.795 164 OFFCURVE",
"124.488 253 CURVE",
"64.488 253 LINE",
"42.8 130 OFFCURVE",
"118.046 52 OFFCURVE",
"241.046 52 CURVE SMOOTH",
"364.046 52 OFFCURVE",
"462.976 131 OFFCURVE",
"484.664 254 CURVE SMOOTH",
"498.065 330 OFFCURVE",
"467.35 394 OFFCURVE",
"392.053 415 CURVE",
"393.111 421 LINE",
"470.167 444 OFFCURVE",
"515.336 496 OFFCURVE",
"527.855 567 CURVE SMOOTH",
"547.78 680 OFFCURVE",
"473.123 750 OFFCURVE",
"360.123 750 CURVE SMOOTH",
"247.123 750 OFFCURVE",
"147.78 680 OFFCURVE",
"127.855 567 CURVE",
"187.855 567 LINE",
"201.785 646 OFFCURVE",
"271.425 695 OFFCURVE",
"350.425 695 CURVE SMOOTH",
"433.425 695 OFFCURVE",
"481.961 647 OFFCURVE",
"467.855 567 CURVE SMOOTH",
"453.572 486 OFFCURVE",
"380.343 445 OFFCURVE",
"301.343 445 CURVE SMOOTH"
);
}
);
width = 822;
},
{
layerId = "AD4288EF-621A-4539-AF14-1A70F42B46A9";
paths = (
{
closed = 1;
nodes = (
"559.966 0 LINE",
"723.966 0 LINE",
"829.762 600 LINE",
"924.762 600 LINE",
"949.448 740 LINE",
"690.448 740 LINE",
"629.791 396 LINE",
"414.791 396 LINE",
"390.458 258 LINE",
"390.458 258 OFFCURVE",
"605.458 258 OFFCURVE",
"605.458 258 CURVE"
);
},
{
closed = 1;
nodes = (
"268.484 485 LINE",
"268.484 485 OFFCURVE",
"243.093 341 OFFCURVE",
"243.093 341 CURVE",
"243.093 341 OFFCURVE",
"261.093 341 OFFCURVE",
"270.093 341 CURVE SMOOTH",
"337.093 341 OFFCURVE",
"365.861 317 OFFCURVE",
"357.397 269 CURVE SMOOTH",
"350.697 231 OFFCURVE",
"323.584 202 OFFCURVE",
"280.584 202 CURVE SMOOTH",
"238.584 202 OFFCURVE",
"218.873 232 OFFCURVE",
"225.75 271 CURVE",
"68.75 271 LINE",
"45.122 137 OFFCURVE",
"122.545 60 OFFCURVE",
"253.545 60 CURVE SMOOTH",
"382.545 60 OFFCURVE",
"487.888 130 OFFCURVE",
"512.574 270 CURVE SMOOTH",
"523.153 330 OFFCURVE",
"497.733 390 OFFCURVE",
"441.141 415 CURVE",
"441.67 418 LINE",
"497.549 440 OFFCURVE",
"542.895 493 OFFCURVE",
"555.061 562 CURVE SMOOTH",
"574.986 675 OFFCURVE",
"506.034 749 OFFCURVE",
"379.034 749 CURVE SMOOTH",
"251.034 749 OFFCURVE",
"144.576 667 OFFCURVE",
"123.416 547 CURVE",
"280.416 547 LINE",
"288.412 581 OFFCURVE",
"310.996 607 OFFCURVE",
"349.996 607 CURVE SMOOTH",
"390.996 607 OFFCURVE",
"398.706 577 OFFCURVE",
"393.593 548 CURVE SMOOTH",
"386.011 505 OFFCURVE",
"348.484 485 OFFCURVE",
"299.484 485 CURVE SMOOTH"
);
}
);
width = 865;
}
);
unicode = 0905;
},
{
glyphname = dvmAA;
lastChange = "2017-08-08 23:18:27 +0000";
layers = (
{
layerId = "C0ED9D5D-A651-429A-8F5D-D93A2EDA2DC0";
paths = (
{
closed = 1;
nodes = (
"305 680 CURVE",
"305 740 LINE",
"-40 740 LINE",
"-40 680 LINE",
"100 680 LINE",
"100 0 LINE",
"165 0 LINE",
"165 680 LINE",
"165 680 OFFCURVE",
"305 680 OFFCURVE"
);
}
);
width = 265;
},
{
layerId = "22D14058-393A-410A-BECB-F56B411A01B2";
paths = (
{
closed = 1;
nodes = (
"334 600 LINE",
"334 740 LINE",
"-20 740 LINE",
"-20 600 LINE",
"75 600 LINE",
"75 0 LINE",
"239 0 LINE",
"239 600 LINE"
);
}
);
width = 314;
},
{
layerId = "3C02C8EC-C43C-4762-8B99-FE4CB64E6532";
paths = (
{
closed = 1;
nodes = (
"359.661 680 CURVE",
"370.241 740 LINE",
"25.241 740 LINE",
"14.661 680 LINE",
"154.661 680 LINE",
"34.759 0 LINE",
"99.759 0 LINE",
"219.661 680 LINE",
"219.661 680 OFFCURVE",
"359.661 680 OFFCURVE"
);
}
);
width = 265;
},
{
layerId = "AD4288EF-621A-4539-AF14-1A70F42B46A9";
paths = (
{
closed = 1;
nodes = (
"374.555 600 LINE",
"399.241 740 LINE",
"45.241 740 LINE",
"20.555 600 LINE",
"115.555 600 LINE",
"9.759 0 LINE",
"173.759 0 LINE",
"279.555 600 LINE"
);
}
);
width = 314;
}
);
unicode = 093E;
},
{
glyphname = dvI;
lastChange = "2017-08-08 23:18:27 +0000";
layers = (
{
layerId = "C0ED9D5D-A651-429A-8F5D-D93A2EDA2DC0";
paths = (
{
closed = 1;
nodes = (
"638 680 LINE",
"638 740 LINE",
"-40 740 LINE",
"-40 680 LINE"
);
},
{
closed = 1;
nodes = (
"426 512 LINE",
"491 512 LINE",
"491 718 LINE",
"426 718 LINE"
);
},
{
closed = 1;
nodes = (
"113 -75 LINE",
"178 -75 LINE",
"178 66 LINE",
"214 16 OFFCURVE",
"270 -10 OFFCURVE",
"356 -10 CURVE SMOOTH",
"483 -10 OFFCURVE",
"551 63 OFFCURVE",
"551 156 CURVE SMOOTH",
"551 298 OFFCURVE",
"435 316 OFFCURVE",
"323 316 CURVE SMOOTH",
"244 316 OFFCURVE",
"184 329 OFFCURVE",
"184 410 CURVE SMOOTH",
"184 488 OFFCURVE",
"252 501 OFFCURVE",
"327 501 CURVE SMOOTH",
"491 501 LINE",
"491 561 LINE",
"458 561 LINE",
"326 561 LINE SMOOTH",
"222 561 OFFCURVE",
"119 531 OFFCURVE",
"119 410 CURVE SMOOTH",
"119 289 OFFCURVE",
"212 258 OFFCURVE",
"337 258 CURVE SMOOTH",
"410 258 OFFCURVE",
"486 252 OFFCURVE",
"486 162 CURVE SMOOTH",
"486 84 OFFCURVE",
"429 50 OFFCURVE",
"343 50 CURVE SMOOTH",
"233 50 OFFCURVE",
"184 110 OFFCURVE",
"178 202 CURVE",
"113 202 LINE"
);
}
);
width = 598;
},
{
layerId = "22D14058-393A-410A-BECB-F56B411A01B2";
paths = (
{
closed = 1;
nodes = (
"604 600 LINE",
"604 740 LINE",
"-20 740 LINE",
"-20 600 LINE"
);
},
{
closed = 1;
nodes = (
"313 496 LINE",
"478 496 LINE",
"478 718 LINE",
"313 718 LINE"
);
},
{
closed = 1;
nodes = (
"85 -85 LINE",
"240 -85 LINE",
"240 17 LINE",
"263 -7 OFFCURVE",
"310 -19 OFFCURVE",
"348 -19 CURVE SMOOTH",
"461 -19 OFFCURVE",
"539 54 OFFCURVE",
"539 162 CURVE SMOOTH",
"539 306 OFFCURVE",
"429 336 OFFCURVE",
"324 336 CURVE SMOOTH",
"271 336 OFFCURVE",
"235 338 OFFCURVE",
"235 373 CURVE SMOOTH",
"235 403 OFFCURVE",
"270 411 OFFCURVE",
"323 411 CURVE SMOOTH",
"478 411 LINE",
"478 508 LINE",
"328 541 LINE",
"274 541 LINE SMOOTH",
"165 541 OFFCURVE",
"69 494 OFFCURVE",
"69 384 CURVE SMOOTH",
"69 228 OFFCURVE",
"197 211 OFFCURVE",
"288 211 CURVE SMOOTH",
"342 211 OFFCURVE",
"379 201 OFFCURVE",
"379 159 CURVE SMOOTH",
"379 124 OFFCURVE",
"352 107 OFFCURVE",
"314 107 CURVE SMOOTH",
"268 107 OFFCURVE",
"240 133 OFFCURVE",
"240 179 CURVE",
"85 179 LINE"
);
}
);
width = 584;
},
{
layerId = "3C02C8EC-C43C-4762-8B99-FE4CB64E6532";
paths = (
{
closed = 1;
nodes = (
"699.274 680 LINE",
"709.853 740 LINE",
"31.853 740 LINE",
"21.274 680 LINE"
);
},
{
closed = 1;
nodes = (
"457.651 512 LINE",
"522.651 512 LINE",
"558.974 718 LINE",
"493.974 718 LINE"
);
},
{
closed = 1;
nodes = (
"41.147 -75 LINE",
"106.147 -75 LINE",
"131.009 66 LINE",
"158.193 16 OFFCURVE",
"209.608 -10 OFFCURVE",
"295.608 -10 CURVE SMOOTH",
"422.608 -10 OFFCURVE",
"503.48 63 OFFCURVE",
"519.878 156 CURVE SMOOTH",
"544.917 298 OFFCURVE",
"432.091 316 OFFCURVE",
"320.091 316 CURVE SMOOTH",
"241.091 316 OFFCURVE",
"183.383 329 OFFCURVE",
"197.665 410 CURVE SMOOTH",
"211.419 488 OFFCURVE",
"281.711 501 OFFCURVE",
"356.711 501 CURVE SMOOTH",
"520.711 501 LINE",
"531.291 561 LINE",
"498.291 561 LINE",
"366.291 561 LINE SMOOTH",
"262.291 561 OFFCURVE",
"154 531 OFFCURVE",
"132.665 410 CURVE SMOOTH",
"111.33 289 OFFCURVE",
"198.864 258 OFFCURVE",
"323.864 258 CURVE SMOOTH",
"396.864 258 OFFCURVE",
"471.806 252 OFFCURVE",
"455.936 162 CURVE SMOOTH",
"442.183 84 OFFCURVE",
"379.188 50 OFFCURVE",
"293.188 50 CURVE SMOOTH",
"183.188 50 OFFCURVE",
"144.767 110 OFFCURVE",
"154.989 202 CURVE",
"89.989 202 LINE"
);
}
);
width = 598;
},
{
layerId = "AD4288EF-621A-4539-AF14-1A70F42B46A9";
paths = (
{
closed = 1;
nodes = (
"652.049 600 LINE",
"676.735 740 LINE",
"52.735 740 LINE",
"28.049 600 LINE"
);
},
{
closed = 1;
nodes = (
"342.711 496 LINE",
"507.711 496 LINE",
"546.856 718 LINE",
"381.856 718 LINE"
);
},
{
closed = 1;
nodes = (
"12.265 -85 LINE",
"167.265 -85 LINE",
"185.25 17 LINE",
"204.019 -7 OFFCURVE",
"248.903 -19 OFFCURVE",
"286.903 -19 CURVE SMOOTH",
"399.903 -19 OFFCURVE",
"490.775 54 OFFCURVE",
"509.818 162 CURVE SMOOTH",
"535.209 306 OFFCURVE",
"430.499 336 OFFCURVE",
"325.499 336 CURVE SMOOTH",
"272.499 336 OFFCURVE",
"236.851 338 OFFCURVE",
"243.023 373 CURVE SMOOTH",
"248.313 403 OFFCURVE",
"284.723 411 OFFCURVE",
"337.723 411 CURVE SMOOTH",
"492.723 411 LINE",
"509.827 508 LINE",
"365.646 541 LINE",
"311.646 541 LINE SMOOTH",
"202.646 541 OFFCURVE",
"98.358 494 OFFCURVE",
"78.962 384 CURVE SMOOTH",
"51.455 228 OFFCURVE",
"176.458 211 OFFCURVE",
"267.458 211 CURVE SMOOTH",
"321.458 211 OFFCURVE",
"356.695 201 OFFCURVE",
"349.289 159 CURVE SMOOTH",
"343.117 124 OFFCURVE",
"313.12 107 OFFCURVE",
"275.12 107 CURVE SMOOTH",
"229.12 107 OFFCURVE",
"205.704 133 OFFCURVE",
"213.815 179 CURVE",
"58.815 179 LINE"
);
}
);
width = 584;
}
);
unicode = 0907;
},
{
glyphname = dvII;
lastChange = "2017-08-08 23:18:27 +0000";
layers = (
{
layerId = "C0ED9D5D-A651-429A-8F5D-D93A2EDA2DC0";
paths = (
{
closed = 1;
nodes = (
"638 680 LINE",
"638 740 LINE",
"-40 740 LINE",
"-40 680 LINE"
);
},
{
closed = 1;
nodes = (
"426 512 LINE",
"491 512 LINE",
"491 718 LINE",
"426 718 LINE"
);
},
{
closed = 1;
nodes = (
"113 -75 LINE",
"178 -75 LINE",
"178 66 LINE",
"214 16 OFFCURVE",
"270 -10 OFFCURVE",
"356 -10 CURVE SMOOTH",
"483 -10 OFFCURVE",
"551 63 OFFCURVE",
"551 156 CURVE SMOOTH",
"551 298 OFFCURVE",
"435 316 OFFCURVE",
"323 316 CURVE SMOOTH",
"244 316 OFFCURVE",
"184 329 OFFCURVE",
"184 410 CURVE SMOOTH",
"184 488 OFFCURVE",
"252 501 OFFCURVE",
"327 501 CURVE SMOOTH",
"491 501 LINE",
"491 561 LINE",
"471 561 LINE",
"326 561 LINE SMOOTH",
"222 561 OFFCURVE",
"119 531 OFFCURVE",
"119 410 CURVE SMOOTH",
"119 289 OFFCURVE",
"212 258 OFFCURVE",
"337 258 CURVE SMOOTH",
"410 258 OFFCURVE",
"486 252 OFFCURVE",
"486 162 CURVE SMOOTH",
"486 84 OFFCURVE",
"429 50 OFFCURVE",
"343 50 CURVE SMOOTH",
"233 50 OFFCURVE",
"184 110 OFFCURVE",
"178 202 CURVE",
"113 202 LINE"
);
},
{
closed = 1;
nodes = (
"428 846 CURVE SMOOTH",
"428 812 OFFCURVE",
"428 747 OFFCURVE",
"429 714 CURVE",
"489 714 LINE",
"489 846 LINE SMOOTH",
"489 938 OFFCURVE",
"515 987 OFFCURVE",
"586 987 CURVE SMOOTH",
"655 987 OFFCURVE",
"679 947 OFFCURVE",
"681 881 CURVE",
"736 881 LINE",
"736 976 OFFCURVE",
"684 1041 OFFCURVE",
"587 1041 CURVE SMOOTH",
"474 1041 OFFCURVE",
"428 971 OFFCURVE"
);
}
);
width = 598;
},
{
layerId = "22D14058-393A-410A-BECB-F56B411A01B2";
paths = (
{
closed = 1;
nodes = (
"604 600 LINE",
"604 740 LINE",
"-20 740 LINE",
"-20 600 LINE"
);
},
{
closed = 1;
nodes = (
"313 496 LINE",
"478 496 LINE",
"478 718 LINE",
"313 718 LINE"
);
},
{
closed = 1;
nodes = (
"85 -85 LINE",
"240 -85 LINE",
"240 17 LINE",
"263 -7 OFFCURVE",
"310 -19 OFFCURVE",
"348 -19 CURVE SMOOTH",
"461 -19 OFFCURVE",
"539 54 OFFCURVE",
"539 162 CURVE SMOOTH",
"539 306 OFFCURVE",
"429 336 OFFCURVE",
"324 336 CURVE SMOOTH",
"271 336 OFFCURVE",
"235 338 OFFCURVE",
"235 373 CURVE SMOOTH",
"235 403 OFFCURVE",
"270 411 OFFCURVE",
"323 411 CURVE SMOOTH",
"478 411 LINE",
"478 508 LINE",
"328 541 LINE",
"274 541 LINE SMOOTH",
"165 541 OFFCURVE",
"69 494 OFFCURVE",
"69 384 CURVE SMOOTH",
"69 228 OFFCURVE",
"197 211 OFFCURVE",
"288 211 CURVE SMOOTH",
"342 211 OFFCURVE",
"379 201 OFFCURVE",
"379 159 CURVE SMOOTH",
"379 124 OFFCURVE",
"352 107 OFFCURVE",
"314 107 CURVE SMOOTH",
"268 107 OFFCURVE",
"240 133 OFFCURVE",
"240 179 CURVE",
"85 179 LINE"
);
},
{
closed = 1;
nodes = (
"323 803 CURVE SMOOTH",
"323 710 LINE",
"464 710 LINE",
"464 805 LINE SMOOTH",
"464 872 OFFCURVE",
"476 910 OFFCURVE",
"521 910 CURVE SMOOTH",
"557 910 OFFCURVE",
"569 881 OFFCURVE",
"569 837 CURVE",
"710 837 LINE",
"710 966 OFFCURVE",
"647 1045 OFFCURVE",
"521 1045 CURVE SMOOTH",
"358 1045 OFFCURVE",
"323 923 OFFCURVE"
);
}
);
width = 584;
},
{
layerId = "3C02C8EC-C43C-4762-8B99-FE4CB64E6532";
paths = (
{
closed = 1;
nodes = (
"672.736 680 LINE",
"683.316 740 LINE",
"5.316 740 LINE",
"-5.264 680 LINE"
);
},
{
closed = 1;
nodes = (
"431.113 512 LINE",
"496.113 512 LINE",
"532.437 718 LINE",
"467.437 718 LINE"
);
},
{
closed = 1;
nodes = (
"14.61 -75 LINE",
"79.61 -75 LINE",
"104.472 66 LINE",
"131.655 16 OFFCURVE",
"183.071 -10 OFFCURVE",
"269.071 -10 CURVE SMOOTH",
"396.071 -10 OFFCURVE",
"476.943 63 OFFCURVE",
"493.341 156 CURVE SMOOTH",
"518.38 298 OFFCURVE",
"405.553 316 OFFCURVE",
"293.553 316 CURVE SMOOTH",
"214.553 316 OFFCURVE",
"156.846 329 OFFCURVE",
"171.128 410 CURVE SMOOTH",
"184.882 488 OFFCURVE",
"255.174 501 OFFCURVE",
"330.174 501 CURVE SMOOTH",
"494.174 501 LINE",
"504.754 561 LINE",
"484.754 561 LINE",
"339.754 561 LINE SMOOTH",
"235.754 561 OFFCURVE",
"127.464 531 OFFCURVE",
"106.128 410 CURVE SMOOTH",
"84.793 289 OFFCURVE",
"172.326 258 OFFCURVE",
"297.326 258 CURVE SMOOTH",
"370.326 258 OFFCURVE",
"445.268 252 OFFCURVE",
"429.399 162 CURVE SMOOTH",
"415.646 84 OFFCURVE",
"352.65 50 OFFCURVE",
"266.65 50 CURVE SMOOTH",
"156.65 50 OFFCURVE",
"118.23 110 OFFCURVE",
"128.452 202 CURVE",
"63.452 202 LINE"
);
},
{
closed = 1;
nodes = (
"492.007 846 CURVE SMOOTH",
"486.012 812 OFFCURVE",
"474.55 747 OFFCURVE",
"469.732 714 CURVE",
"529.732 714 LINE",
"553.007 846 LINE SMOOTH",
"569.229 938 OFFCURVE",
"603.869 987 OFFCURVE",
"674.869 987 CURVE SMOOTH",
"743.869 987 OFFCURVE",
"760.816 947 OFFCURVE",
"751.178 881 CURVE",
"806.178 881 LINE",
"822.929 976 OFFCURVE",
"782.39 1041 OFFCURVE",
"685.39 1041 CURVE SMOOTH",
"572.39 1041 OFFCURVE",
"514.048 971 OFFCURVE"
);
}
);
width = 598;
},
{
layerId = "AD4288EF-621A-4539-AF14-1A70F42B46A9";
paths = (
{
closed = 1;
nodes = (
"625.159 600 LINE",
"649.845 740 LINE",
"25.845 740 LINE",
"1.159 600 LINE"
);
},
{
closed = 1;
nodes = (
"315.821 496 LINE",
"480.821 496 LINE",
"519.966 718 LINE",
"354.966 718 LINE"
);
},
{
closed = 1;
nodes = (
"-14.625 -85 LINE",
"140.375 -85 LINE",
"158.361 17 LINE",
"177.129 -7 OFFCURVE",
"222.013 -19 OFFCURVE",
"260.013 -19 CURVE SMOOTH",
"373.013 -19 OFFCURVE",
"463.885 54 OFFCURVE",
"482.928 162 CURVE SMOOTH",
"508.319 306 OFFCURVE",
"403.609 336 OFFCURVE",
"298.609 336 CURVE SMOOTH",
"245.609 336 OFFCURVE",
"209.962 338 OFFCURVE",
"216.133 373 CURVE SMOOTH",
"221.423 403 OFFCURVE",
"257.833 411 OFFCURVE",
"310.833 411 CURVE SMOOTH",
"465.833 411 LINE",
"482.937 508 LINE",
"338.756 541 LINE",
"284.756 541 LINE SMOOTH",
"175.756 541 OFFCURVE",
"71.469 494 OFFCURVE",
"52.073 384 CURVE SMOOTH",
"24.566 228 OFFCURVE",
"149.568 211 OFFCURVE",
"240.568 211 CURVE SMOOTH",
"294.568 211 OFFCURVE",
"329.805 201 OFFCURVE",
"322.399 159 CURVE SMOOTH",
"316.228 124 OFFCURVE",
"286.23 107 OFFCURVE",
"248.23 107 CURVE SMOOTH",
"202.23 107 OFFCURVE",
"178.815 133 OFFCURVE",
"186.926 179 CURVE",
"31.926 179 LINE"
);
},
{
closed = 1;
nodes = (
"379.954 803 CURVE SMOOTH",
"363.555 710 LINE",
"504.555 710 LINE",
"521.306 805 LINE SMOOTH",
"533.12 872 OFFCURVE",
"551.821 910 OFFCURVE",
"596.821 910 CURVE SMOOTH",
"632.821 910 OFFCURVE",
"639.707 881 OFFCURVE",
"631.949 837 CURVE",
"772.949 837 LINE",
"795.695 966 OFFCURVE",
"746.625 1045 OFFCURVE",
"620.625 1045 CURVE SMOOTH",
"457.625 1045 OFFCURVE",
"401.113 923 OFFCURVE"
);
}
);
width = 584;
}
);
},
{
glyphname = dvU;
lastChange = "2017-08-08 23:18:27 +0000";
layers = (
{
layerId = "C0ED9D5D-A651-429A-8F5D-D93A2EDA2DC0";
paths = (
{
closed = 1;
nodes = (
"480 712 LINE",
"420 700 LINE",
"420 641 LINE",
"420 528 OFFCURVE",
"390 439 OFFCURVE",
"275 439 CURVE SMOOTH",
"242 439 LINE",
"242 378 LINE",
"275 378 LINE SMOOTH",
"367 378 OFFCURVE",
"452 327 OFFCURVE",
"452 218 CURVE SMOOTH",
"452 127 OFFCURVE",
"393 63 OFFCURVE",
"300 63 CURVE SMOOTH",
"206 63 OFFCURVE",
"132 135 OFFCURVE",
"132 229 CURVE",
"72 229 LINE",
"72 98 OFFCURVE",
"161 8 OFFCURVE",
"300 8 CURVE SMOOTH",
"433 8 OFFCURVE",
"512 86 OFFCURVE",
"512 220 CURVE SMOOTH",
"512 315 OFFCURVE",
"458 380 OFFCURVE",
"381 406 CURVE",
"381 412 LINE",
"470 457 OFFCURVE",
"480 539 OFFCURVE",
"480 644 CURVE"
);
},
{
closed = 1;
nodes = (
"625 680 LINE",
"625 740 LINE",
"-40 740 LINE",
"-40 680 LINE"
);
}
);
width = 585;
},
{
layerId = "22D14058-393A-410A-BECB-F56B411A01B2";
paths = (
{
closed = 1;
nodes = (
"497 703 LINE",
"341 703 LINE",
"341 582 LINE SMOOTH",
"341 496 OFFCURVE",
"327 456 OFFCURVE",
"253 456 CURVE SMOOTH",
"216 456 LINE",
"216 456 OFFCURVE",
"216 313 OFFCURVE",
"216 313 CURVE",
"216 313 OFFCURVE",
"253 313 OFFCURVE",
"263 313 CURVE SMOOTH",
"328 313 OFFCURVE",
"369 290 OFFCURVE",
"369 232 CURVE SMOOTH",
"369 184 OFFCURVE",
"339 153 OFFCURVE",
"291 153 CURVE SMOOTH",
"235 153 OFFCURVE",
"199 195 OFFCURVE",
"199 253 CURVE",
"45 253 LINE",
"45 102 OFFCURVE",
"143 9 OFFCURVE",
"289 9 CURVE SMOOTH",
"428 9 OFFCURVE",
"522 94 OFFCURVE",
"522 229 CURVE SMOOTH",
"522 308 OFFCURVE",
"476 365 OFFCURVE",
"412 387 CURVE",
"412 390 LINE",
"480 418 OFFCURVE",
"497 483 OFFCURVE",
"497 584 CURVE SMOOTH"
);
},
{
closed = 1;
nodes = (
"587 600 CURVE",
"587 740 LINE",
"-27 740 LINE",
"-27 600 LINE",
"-27 600 OFFCURVE",
"587 600 OFFCURVE"
);
}
);
width = 567;
},
{
layerId = "3C02C8EC-C43C-4762-8B99-FE4CB64E6532";
paths = (
{
closed = 1;
nodes = (
"539.599 712 LINE",
"477.483 700 LINE",
"467.079 641 LINE",
"447.154 528 OFFCURVE",
"401.461 439 OFFCURVE",
"286.461 439 CURVE SMOOTH",
"253.461 439 LINE",
"242.705 378 LINE",
"275.705 378 LINE SMOOTH",
"367.705 378 OFFCURVE",
"443.713 327 OFFCURVE",
"424.493 218 CURVE SMOOTH",
"408.447 127 OFFCURVE",
"338.162 63 OFFCURVE",
"245.162 63 CURVE SMOOTH",
"151.162 63 OFFCURVE",
"89.858 135 OFFCURVE",
"106.433 229 CURVE",
"46.433 229 LINE",
"23.334 98 OFFCURVE",
"96.464 8 OFFCURVE",
"235.464 8 CURVE SMOOTH",
"368.464 8 OFFCURVE",
"461.218 86 OFFCURVE",
"484.846 220 CURVE SMOOTH",
"501.597 315 OFFCURVE",
"459.058 380 OFFCURVE",
"386.642 406 CURVE",
"387.7 412 LINE",
"484.635 457 OFFCURVE",
"509.094 539 OFFCURVE",
"527.608 644 CURVE"
);
},
{
closed = 1;
nodes = (
"678.956 680 LINE",
"689.536 740 LINE",
"24.536 740 LINE",
"13.956 680 LINE"
);
}
);
width = 585;
},
{
layerId = "AD4288EF-621A-4539-AF14-1A70F42B46A9";
paths = (
{
closed = 1;
nodes = (
"554.923 703 LINE",
"398.923 703 LINE",
"377.588 582 LINE SMOOTH",
"362.424 496 OFFCURVE",
"341.371 456 OFFCURVE",
"267.371 456 CURVE SMOOTH",
"230.371 456 LINE",
"230.371 456 OFFCURVE",
"205.156 313 OFFCURVE",
"205.156 313 CURVE",
"205.156 313 OFFCURVE",
"242.156 313 OFFCURVE",
"252.156 313 CURVE SMOOTH",
"317.156 313 OFFCURVE",
"354.1 290 OFFCURVE",
"343.873 232 CURVE SMOOTH",
"335.41 184 OFFCURVE",
"299.944 153 OFFCURVE",
"251.944 153 CURVE SMOOTH",
"195.944 153 OFFCURVE",
"167.349 195 OFFCURVE",
"177.576 253 CURVE",
"23.576 253 LINE",
"-3.049 102 OFFCURVE",
"78.552 9 OFFCURVE",
"224.552 9 CURVE SMOOTH",
"363.552 9 OFFCURVE",
"472.54 94 OFFCURVE",
"496.344 229 CURVE SMOOTH",
"510.274 308 OFFCURVE",
"474.325 365 OFFCURVE",
"414.204 387 CURVE",
"414.733 390 LINE",
"487.67 418 OFFCURVE",
"516.131 483 OFFCURVE",
"533.94 584 CURVE SMOOTH"
);
},
{
closed = 1;
nodes = (
"626.762 600 CURVE",
"651.448 740 LINE",
"37.448 740 LINE",
"12.762 600 LINE",
"12.762 600 OFFCURVE",
"626.762 600 OFFCURVE"
);
}
);
width = 567;
}
);
unicode = 0909;
},
{
glyphname = dvUU;
lastChange = "2017-08-08 23:18:27 +0000";
layers = (
{
layerId = "C0ED9D5D-A651-429A-8F5D-D93A2EDA2DC0";
paths = (
{
closed = 1;
nodes = (
"479 712 LINE",
"419 700 LINE",
"419 641 LINE SMOOTH",
"419 528 OFFCURVE",
"389 439 OFFCURVE",
"274 439 CURVE SMOOTH",
"241 439 LINE",
"241 378 LINE",
"274 378 LINE SMOOTH",
"366 378 OFFCURVE",
"451 327 OFFCURVE",
"451 218 CURVE SMOOTH",
"451 125 OFFCURVE",
"392 63 OFFCURVE",
"299 63 CURVE SMOOTH",
"204 63 OFFCURVE",
"131 135 OFFCURVE",
"131 229 CURVE",
"71 229 LINE",
"71 99 OFFCURVE",
"161 8 OFFCURVE",
"299 8 CURVE SMOOTH",
"432 8 OFFCURVE",
"511 87 OFFCURVE",
"511 220 CURVE SMOOTH",
"511 315 OFFCURVE",
"457 380 OFFCURVE",
"380 406 CURVE",
"380 412 LINE",
"469 457 OFFCURVE",
"479 539 OFFCURVE",
"479 644 CURVE SMOOTH"
);
},
{
closed = 1;
nodes = (
"897 680 LINE",
"897 740 LINE",
"-40 740 LINE",
"-40 680 LINE"
);
},
{
closed = 1;
nodes = (
"363 406 LINE",
"407 348 LINE",
"558 348 LINE",
"577 348 LINE",
"679 348 OFFCURVE",
"742 323 OFFCURVE",
"742 216 CURVE SMOOTH",
"742 92 OFFCURVE",
"665 75 OFFCURVE",
"550 84 CURVE",
"550 30 LINE",
"690 15 OFFCURVE",
"806 50 OFFCURVE",
"806 216 CURVE",
"806 357 OFFCURVE",
"715 406 OFFCURVE",
"577 406 CURVE",
"557 406 LINE"
);
}
);
width = 857;
},
{
layerId = "22D14058-393A-410A-BECB-F56B411A01B2";
paths = (
{
closed = 1;
nodes = (
"497 703 LINE",
"341 703 LINE",
"341 582 LINE SMOOTH",
"341 496 OFFCURVE",
"327 456 OFFCURVE",
"253 456 CURVE SMOOTH",
"216 456 LINE",
"216 456 OFFCURVE",
"216 313 OFFCURVE",
"216 313 CURVE",
"216 313 OFFCURVE",
"253 313 OFFCURVE",
"263 313 CURVE SMOOTH",
"328 313 OFFCURVE",
"369 290 OFFCURVE",
"369 232 CURVE SMOOTH",
"369 184 OFFCURVE",
"339 153 OFFCURVE",
"291 153 CURVE SMOOTH",
"235 153 OFFCURVE",
"199 195 OFFCURVE",
"199 253 CURVE",
"45 253 LINE",
"45 102 OFFCURVE",
"143 9 OFFCURVE",
"289 9 CURVE SMOOTH",
"428 9 OFFCURVE",
"522 94 OFFCURVE",
"522 229 CURVE SMOOTH",
"522 305 OFFCURVE",
"471 357 OFFCURVE",
"412 382 CURVE",
"412 388 LINE",
"478 417 OFFCURVE",
"497 481 OFFCURVE",
"497 584 CURVE SMOOTH"
);
},
{
closed = 1;
nodes = (
"867 600 CURVE",
"867 740 LINE",
"-20 740 LINE",
"-20 600 LINE",
"-20 600 OFFCURVE",
"867 600 OFFCURVE"
);
},
{
closed = 1;
nodes = (
"408 382 LINE",
"436 248 LINE",
"569 248 LINE",
"581 248 LINE",
"620 248 OFFCURVE",
"655 235 OFFCURVE",
"655 193 CURVE SMOOTH",
"655 153 OFFCURVE",
"623 137 OFFCURVE",
"559 142 CURVE",
"559 17 LINE",
"722 1 OFFCURVE",
"815 65 OFFCURVE",
"815 196 CURVE SMOOTH",
"815 325 OFFCURVE",
"725 382 OFFCURVE",
"582 382 CURVE",
"568 382 LINE"
);
}
);
width = 848;
},
{
layerId = "3C02C8EC-C43C-4762-8B99-FE4CB64E6532";
paths = (
{
closed = 1;
nodes = (
"538.599 712 LINE",
"476.483 700 LINE",
"466.079 641 LINE SMOOTH",
"446.154 528 OFFCURVE",
"400.461 439 OFFCURVE",
"285.461 439 CURVE SMOOTH",
"252.461 439 LINE",
"241.705 378 LINE",
"274.705 378 LINE SMOOTH",
"366.705 378 OFFCURVE",
"442.713 327 OFFCURVE",
"423.493 218 CURVE SMOOTH",
"407.095 125 OFFCURVE",
"337.162 63 OFFCURVE",
"244.162 63 CURVE SMOOTH",
"149.162 63 OFFCURVE",
"88.858 135 OFFCURVE",
"105.433 229 CURVE",
"45.433 229 LINE",
"22.51 99 OFFCURVE",
"96.464 8 OFFCURVE",
"234.464 8 CURVE SMOOTH",
"367.464 8 OFFCURVE",
"460.394 87 OFFCURVE",
"483.846 220 CURVE SMOOTH",
"500.597 315 OFFCURVE",
"458.058 380 OFFCURVE",
"385.642 406 CURVE",
"386.7 412 LINE",
"483.635 457 OFFCURVE",
"508.094 539 OFFCURVE",
"526.608 644 CURVE SMOOTH"
);
},
{
closed = 1;
nodes = (
"950.956 680 LINE",
"961.536 740 LINE",
"24.536 740 LINE",
"13.956 680 LINE"
);
},
{
closed = 1;
nodes = (
"368.642 406 LINE",
"402.415 348 LINE",
"553.416 348 LINE",
"572.416 348 LINE",
"674.416 348 OFFCURVE",
"733.007 323 OFFCURVE",
"714.14 216 CURVE SMOOTH",
"692.276 92 OFFCURVE",
"612.278 75 OFFCURVE",
"498.865 84 CURVE",
"489.344 30 LINE",
"626.699 15 OFFCURVE",
"748.87 50 OFFCURVE",
"778.14 216 CURVE",
"803.002 357 OFFCURVE",
"720.642 406 OFFCURVE",
"582.642 406 CURVE",
"562.642 406 LINE"
);
}
);
width = 857;
},
{
layerId = "AD4288EF-621A-4539-AF14-1A70F42B46A9";
paths = (
{
closed = 1;
nodes = (
"554.923 703 LINE",
"398.923 703 LINE",
"377.588 582 LINE SMOOTH",
"362.424 496 OFFCURVE",
"341.371 456 OFFCURVE",
"267.371 456 CURVE SMOOTH",
"230.371 456 LINE",
"230.371 456 OFFCURVE",
"205.156 313 OFFCURVE",
"205.156 313 CURVE",
"205.156 313 OFFCURVE",
"242.156 313 OFFCURVE",
"252.156 313 CURVE SMOOTH",
"317.156 313 OFFCURVE",
"354.1 290 OFFCURVE",
"343.873 232 CURVE SMOOTH",
"335.41 184 OFFCURVE",
"299.944 153 OFFCURVE",
"251.944 153 CURVE SMOOTH",
"195.944 153 OFFCURVE",
"167.349 195 OFFCURVE",
"177.576 253 CURVE",
"23.576 253 LINE",
"-3.049 102 OFFCURVE",
"78.552 9 OFFCURVE",
"224.552 9 CURVE SMOOTH",
"363.552 9 OFFCURVE",
"472.54 94 OFFCURVE",
"496.344 229 CURVE SMOOTH",
"509.745 305 OFFCURVE",
"467.914 357 OFFCURVE",
"413.322 382 CURVE",
"414.38 388 LINE",
"485.494 417 OFFCURVE",
"515.779 481 OFFCURVE",
"533.94 584 CURVE SMOOTH"
);
},
{
closed = 1;
nodes = (
"906.762 600 CURVE",
"931.448 740 LINE",
"44.448 740 LINE",
"19.762 600 LINE",
"19.762 600 OFFCURVE",
"906.762 600 OFFCURVE"
);
},
{
closed = 1;
nodes = (
"409.322 382 LINE",
"413.695 248 LINE",
"546.695 248 LINE",
"558.695 248 LINE",
"597.695 248 OFFCURVE",
"630.402 235 OFFCURVE",
"622.997 193 CURVE SMOOTH",
"615.944 153 OFFCURVE",
"581.122 137 OFFCURVE",
"518.004 142 CURVE",
"495.963 17 LINE",
"656.142 1 OFFCURVE",
"760.427 65 OFFCURVE",
"783.526 196 CURVE SMOOTH",
"806.272 325 OFFCURVE",
"726.322 382 OFFCURVE",
"583.322 382 CURVE",
"569.322 382 LINE"
);
}
);
width = 848;
}
);
},
{
glyphname = dvvR;
lastChange = "2017-08-08 23:18:27 +0000";
layers = (
{
layerId = "C0ED9D5D-A651-429A-8F5D-D93A2EDA2DC0";
paths = (
{
closed = 1;
nodes = (
"490 0 LINE",
"555 0 LINE",
"555 340 OFFCURVE",
"555 680 OFFCURVE",
"555 680 CURVE",
"1004 680 LINE",
"1004 740 LINE",
"-40 740 LINE",
"-40 680 LINE",
"490 680 LINE"
);
},
{
closed = 1;
nodes = (
"129 319 LINE",
"129 439 OFFCURVE",
"201 513 OFFCURVE",
"316 513 CURVE SMOOTH",
"424 513 OFFCURVE",
"490 432 OFFCURVE",
"490 319 CURVE",
"521 325 LINE",
"531 449 OFFCURVE",
"461 573 OFFCURVE",
"306 573 CURVE SMOOTH",
"160 573 OFFCURVE",
"64 471 OFFCURVE",
"64 319 CURVE"
);
},
{
closed = 1;
nodes = (
"119 5 LINE",
"119 0 LINE",
"119 0 OFFCURVE",
"202 0 OFFCURVE",
"202 0 CURVE",
"511 317 LINE",
"511 317 OFFCURVE",
"496 376 OFFCURVE",
"496 376 CURVE"
);
},
{
closed = 1;
nodes = (
"806 570 LINE",
"806 216 LINE",
"871 226 LINE",
"871 570 LINE"
);
},
{
closed = 1;
nodes = (
"871 272 LINE",
"839 272 LINE SMOOTH",
"729 272 OFFCURVE",
"665 205 OFFCURVE",
"665 104 CURVE SMOOTH",
"665 -14 OFFCURVE",
"751 -64 OFFCURVE",
"850 -64 CURVE SMOOTH",
"872 -64 OFFCURVE",
"898 -61 OFFCURVE",
"915 -54 CURVE",
"915 0 LINE",
"894 -6 OFFCURVE",
"872 -9 OFFCURVE",
"851 -9 CURVE SMOOTH",
"784 -9 OFFCURVE",
"726 23 OFFCURVE",
"726 104 CURVE SMOOTH",
"726 174 OFFCURVE",
"767 216 OFFCURVE",
"839 216 CURVE SMOOTH",
"871 216 LINE"
);
},
{
closed = 1;
nodes = (
"744 414 LINE",
"832 414 OFFCURVE",
"871 458 OFFCURVE",
"871 544 CURVE SMOOTH",
"871 581 LINE",
"806 581 LINE",
"806 546 LINE SMOOTH",
"806 492 OFFCURVE",
"800 471 OFFCURVE",
"743 471 CURVE SMOOTH",
"528 471 LINE",
"528 414 LINE"
);
}
);
width = 964;
},
{
layerId = "22D14058-393A-410A-BECB-F56B411A01B2";
paths = (
{
closed = 1;
nodes = (
"467 0 LINE",
"631 0 LINE",
"631 600 LINE",
"1062 600 LINE",
"1062 740 LINE",
"-20 740 LINE",
"-20 600 LINE",
"467 600 LINE"
);
},
{
closed = 1;
nodes = (
"226 254 LINE",
"226 331 OFFCURVE",
"266 390 OFFCURVE",
"341 390 CURVE SMOOTH",
"423 390 OFFCURVE",
"467 342 OFFCURVE",
"467 263 CURVE",
"544 217 LINE",
"548 383 OFFCURVE",
"489 528 OFFCURVE",
"312 528 CURVE SMOOTH",
"153 528 OFFCURVE",
"63 414 OFFCURVE",
"63 254 CURVE"
);
},
{
closed = 1;
nodes = (
"89 7 CURVE",
"89 0 LINE",
"89 0 OFFCURVE",
"304 0 OFFCURVE",
"304 0 CURVE",
"304 0 OFFCURVE",
"533 243 OFFCURVE",
"533 243 CURVE",
"533 243 OFFCURVE",
"454 339 OFFCURVE",
"454 339 CURVE",
"454 339 OFFCURVE",
"138 53 OFFCURVE"
);
},
{
closed = 1;
nodes = (
"822 533 LINE",
"822 206 LINE",
"822 206 OFFCURVE",
"964 206 OFFCURVE",
"964 206 CURVE",
"964 533 LINE"
);
},
{
closed = 1;
nodes = (
"957 309 LINE",
"916 309 LINE SMOOTH",
"788 309 OFFCURVE",
"695 248 OFFCURVE",
"695 133 CURVE SMOOTH",
"695 9 OFFCURVE",
"792 -57 OFFCURVE",
"924 -57 CURVE SMOOTH",
"949 -57 OFFCURVE",
"976 -55 OFFCURVE",
"1003 -50 CURVE",
"1003 79 LINE",
"983 74 OFFCURVE",
"962 72 OFFCURVE",
"943 72 CURVE SMOOTH",
"892 72 OFFCURVE",
"851 92 OFFCURVE",
"851 137 CURVE SMOOTH",
"851 179 OFFCURVE",
"877 203 OFFCURVE",
"947 206 CURVE SMOOTH",
"952 206 OFFCURVE",
"958 206 OFFCURVE",
"964 206 CURVE"
);
},
{
closed = 1;
nodes = (
"774 334 LINE",
"918 334 OFFCURVE",
"964 372 OFFCURVE",
"964 513 CURVE",
"964 547 LINE",
"822 547 LINE",
"822 513 LINE",
"822 478 OFFCURVE",
"811 468 OFFCURVE",
"774 468 CURVE",
"590 468 LINE",
"590 334 LINE"
);
}
);
width = 1042;
},
{
layerId = "3C02C8EC-C43C-4762-8B99-FE4CB64E6532";
paths = (
{
closed = 1;
nodes = (
"430.401 0 LINE",
"495.401 0 LINE",
"555.353 340 OFFCURVE",
"615.304 680 OFFCURVE",
"615.304 680 CURVE",
"1064.304 680 LINE",
"1074.883 740 LINE",
"30.883 740 LINE",
"20.304 680 LINE",
"550.304 680 LINE"
);
},
{
closed = 1;
nodes = (
"125.65 319 LINE",
"146.809 439 OFFCURVE",
"231.857 513 OFFCURVE",
"346.857 513 CURVE SMOOTH",
"454.857 513 OFFCURVE",
"506.575 432 OFFCURVE",
"486.65 319 CURVE",
"518.708 325 LINE",
"550.572 449 OFFCURVE",
"502.437 573 OFFCURVE",
"347.437 573 CURVE SMOOTH",
"201.437 573 OFFCURVE",
"87.451 471 OFFCURVE",
"60.65 319 CURVE"
);
},
{
closed = 1;
nodes = (
"60.283 5 LINE",
"59.401 0 LINE",
"59.401 0 OFFCURVE",
"142.401 0 OFFCURVE",
"142.401 0 CURVE",
"507.297 317 LINE",
"507.297 317 OFFCURVE",
"502.7 376 OFFCURVE",
"502.7 376 CURVE"
);
},
{
closed = 1;
nodes = (
"846.908 570 LINE",
"784.488 216 LINE",
"851.251 226 LINE",
"911.908 570 LINE"
);
},
{
closed = 1;
nodes = (
"859.362 272 LINE",
"827.362 272 LINE SMOOTH",
"717.362 272 OFFCURVE",
"641.549 205 OFFCURVE",
"623.74 104 CURVE SMOOTH",
"602.933 -14 OFFCURVE",
"680.117 -64 OFFCURVE",
"779.117 -64 CURVE SMOOTH",
"801.117 -64 OFFCURVE",
"827.646 -61 OFFCURVE",
"845.88 -54 CURVE",
"855.401 0 LINE",
"833.344 -6 OFFCURVE",
"810.815 -9 OFFCURVE",
"789.815 -9 CURVE SMOOTH",
"722.815 -9 OFFCURVE",
"670.457 23 OFFCURVE",
"684.74 104 CURVE SMOOTH",
"697.082 174 OFFCURVE",
"745.488 216 OFFCURVE",
"817.488 216 CURVE SMOOTH",
"849.488 216 LINE"
);
},
{
closed = 1;
nodes = (
"757.401 414 LINE",
"845.401 414 OFFCURVE",
"892.159 458 OFFCURVE",
"907.323 544 CURVE SMOOTH",
"913.847 581 LINE",
"848.847 581 LINE",
"842.676 546 LINE SMOOTH",
"833.154 492 OFFCURVE",
"823.451 471 OFFCURVE",
"766.451 471 CURVE SMOOTH",
"551.451 471 LINE",
"541.401 414 LINE"
);
}
);
width = 964;
},
{
layerId = "AD4288EF-621A-4539-AF14-1A70F42B46A9";
paths = (
{
closed = 1;
nodes = (
"406.784 0 LINE",
"570.784 0 LINE",
"676.581 600 LINE",
"1107.581 600 LINE",
"1132.266 740 LINE",
"50.266 740 LINE",
"25.581 600 LINE",
"512.581 600 LINE"
);
},
{
closed = 1;
nodes = (
"210.571 254 LINE",
"224.149 331 OFFCURVE",
"274.552 390 OFFCURVE",
"349.552 390 CURVE SMOOTH",
"431.552 390 OFFCURVE",
"467.088 342 OFFCURVE",
"453.158 263 CURVE",
"522.047 217 LINE",
"555.318 383 OFFCURVE",
"521.885 528 OFFCURVE",
"344.885 528 CURVE SMOOTH",
"185.885 528 OFFCURVE",
"75.784 414 OFFCURVE",
"47.571 254 CURVE"
);
},
{
closed = 1;
nodes = (
"30.019 7 CURVE",
"28.784 0 LINE",
"28.784 0 OFFCURVE",
"243.784 0 OFFCURVE",
"243.784 0 CURVE",
"243.784 0 OFFCURVE",
"515.632 243 OFFCURVE",
"515.632 243 CURVE",
"515.632 243 OFFCURVE",
"453.559 339 OFFCURVE",
"453.559 339 CURVE",
"453.559 339 OFFCURVE",
"87.13 53 OFFCURVE"
);
},
{
closed = 1;
nodes = (
"855.767 533 LINE",
"798.108 206 LINE",
"798.108 206 OFFCURVE",
"940.108 206 OFFCURVE",
"940.108 206 CURVE",
"997.767 533 LINE"
);
},
{
closed = 1;
nodes = (
"951.269 309 LINE",
"910.269 309 LINE SMOOTH",
"782.269 309 OFFCURVE",
"678.513 248 OFFCURVE",
"658.236 133 CURVE SMOOTH",
"636.371 9 OFFCURVE",
"721.734 -57 OFFCURVE",
"853.734 -57 CURVE SMOOTH",
"878.734 -57 OFFCURVE",
"906.086 -55 OFFCURVE",
"933.968 -50 CURVE",
"956.714 79 LINE",
"935.833 74 OFFCURVE",
"914.48 72 OFFCURVE",
"895.48 72 CURVE SMOOTH",
"844.48 72 OFFCURVE",
"807.006 92 OFFCURVE",
"814.941 137 CURVE SMOOTH",
"822.347 179 OFFCURVE",
"852.579 203 OFFCURVE",
"923.108 206 CURVE SMOOTH",
"928.108 206 OFFCURVE",
"934.108 206 OFFCURVE",
"940.108 206 CURVE"
);
},
{
closed = 1;
nodes = (
"772.678 334 LINE",
"916.678 334 OFFCURVE",
"969.378 372 OFFCURVE",
"994.24 513 CURVE",
"1000.235 547 LINE",
"858.235 547 LINE",
"852.24 513 LINE",
"846.069 478 OFFCURVE",
"833.305 468 OFFCURVE",
"796.305 468 CURVE",
"612.305 468 LINE",
"588.678 334 LINE"
);
}
);
width = 1042;
}
);
unicode = 090B;
},
{
glyphname = dvvRR;
lastChange = "2017-08-08 23:18:27 +0000";
layers = (
{
layerId = "C0ED9D5D-A651-429A-8F5D-D93A2EDA2DC0";
paths = (
{
closed = 1;
nodes = (
"490 0 LINE",
"555 0 LINE",
"555 340 OFFCURVE",
"555 680 OFFCURVE",
"555 680 CURVE",
"1004 680 LINE",
"1004 740 LINE",
"-40 740 LINE",
"-40 680 LINE",
"490 680 LINE"
);
},
{
closed = 1;
nodes = (
"129 319 LINE",
"129 439 OFFCURVE",
"201 513 OFFCURVE",
"316 513 CURVE SMOOTH",
"424 513 OFFCURVE",
"490 432 OFFCURVE",
"490 319 CURVE",
"521 325 LINE",
"531 449 OFFCURVE",
"461 573 OFFCURVE",
"306 573 CURVE SMOOTH",
"160 573 OFFCURVE",
"64 471 OFFCURVE",
"64 319 CURVE"
);
},
{
closed = 1;
nodes = (
"119 4 LINE",
"119 0 LINE",
"119 0 OFFCURVE",
"202 0 OFFCURVE",
"202 0 CURVE",
"511 317 LINE",
"511 317 OFFCURVE",
"496 376 OFFCURVE",
"496 376 CURVE"
);
},
{
closed = 1;
nodes = (
"806 570 LINE",
"806 216 LINE",
"871 216 LINE",
"871 570 LINE"
);
},
{
closed = 1;
nodes = (
"744 414 LINE",
"832 414 OFFCURVE",
"871 458 OFFCURVE",
"871 544 CURVE SMOOTH",
"871 581 LINE",
"806 581 LINE",
"806 546 LINE SMOOTH",
"806 492 OFFCURVE",
"800 471 OFFCURVE",
"743 471 CURVE SMOOTH",
"528 471 LINE",
"528 414 LINE"
);
},
{
closed = 1;
nodes = (
"892 -159 LINE",
"872 -163 OFFCURVE",
"852 -165 OFFCURVE",
"835 -165 CURVE SMOOTH",
"768 -165 OFFCURVE",
"727 -136 OFFCURVE",
"727 -81 CURVE SMOOTH",
"727 -14 OFFCURVE",
"782 10 OFFCURVE",
"846 10 CURVE SMOOTH",
"872 10 LINE",
"872 66 LINE",
"850 66 LINE SMOOTH",
"792 66 OFFCURVE",
"725 72 OFFCURVE",
"725 139 CURVE SMOOTH",
"725 208 OFFCURVE",
"791 216 OFFCURVE",
"849 216 CURVE SMOOTH",
"860 216 LINE",
"860 216 OFFCURVE",
"860 268 OFFCURVE",
"860 268 CURVE",
"807 268 LINE SMOOTH",
"737 267 OFFCURVE",
"664 232 OFFCURVE",
"664 142 CURVE SMOOTH",
"664 91 OFFCURVE",
"694 51 OFFCURVE",
"734 34 CURVE",
"694 13 OFFCURVE",
"666 -29 OFFCURVE",
"666 -83 CURVE SMOOTH",
"666 -161 OFFCURVE",
"723 -220 OFFCURVE",
"831 -220 CURVE SMOOTH",
"850 -220 OFFCURVE",
"870 -218 OFFCURVE",
"892 -213 CURVE"
);
}
);
width = 966;
},
{
layerId = "22D14058-393A-410A-BECB-F56B411A01B2";
paths = (
{
closed = 1;
nodes = (
"467 0 LINE",
"631 0 LINE",
"631 600 LINE",
"1060 600 LINE",
"1060 740 LINE",
"-20 740 LINE",
"-20 600 LINE",
"467 600 LINE"
);
},
{
closed = 1;
nodes = (
"226 254 LINE",
"226 331 OFFCURVE",
"266 390 OFFCURVE",
"341 390 CURVE SMOOTH",
"423 390 OFFCURVE",
"467 342 OFFCURVE",
"467 263 CURVE",
"544 217 LINE",
"548 383 OFFCURVE",
"489 528 OFFCURVE",
"312 528 CURVE SMOOTH",
"153 528 OFFCURVE",
"63 414 OFFCURVE",
"63 254 CURVE"
);
},
{
closed = 1;
nodes = (
"89 7 CURVE",
"89 0 LINE",
"89 0 OFFCURVE",
"304 0 OFFCURVE",
"304 0 CURVE",
"304 0 OFFCURVE",
"533 243 OFFCURVE",
"533 243 CURVE",
"533 243 OFFCURVE",
"454 339 OFFCURVE",
"454 339 CURVE",
"454 339 OFFCURVE",
"138 53 OFFCURVE"
);
},
{
closed = 1;
nodes = (
"822 533 LINE",
"822 184 LINE",
"822 184 OFFCURVE",
"964 184 OFFCURVE",
"964 184 CURVE",
"964 533 LINE"
);
},
{
closed = 1;
nodes = (
"774 334 LINE",
"918 334 OFFCURVE",
"964 372 OFFCURVE",
"964 513 CURVE SMOOTH",
"964 547 LINE",
"822 547 LINE",
"822 513 LINE SMOOTH",
"822 478 OFFCURVE",
"811 468 OFFCURVE",
"774 468 CURVE SMOOTH",
"590 468 LINE",
"590 334 LINE"
);
},
{
closed = 1;
nodes = (
"1028 -119 CURVE",
"1012 -123 OFFCURVE",
"975 -131 OFFCURVE",
"939 -131 CURVE SMOOTH",
"897 -131 OFFCURVE",
"857 -120 OFFCURVE",
"857 -81 CURVE SMOOTH",
"857 -36 OFFCURVE",
"897 -28 OFFCURVE",
"946 -28 CURVE",
"946 -28 OFFCURVE",
"986 -28 OFFCURVE",
"986 -28 CURVE",
"986 -28 OFFCURVE",
"986 94 OFFCURVE",
"986 94 CURVE",
"986 94 OFFCURVE",
"983 94 OFFCURVE",
"946 94 CURVE SMOOTH",
"908 94 OFFCURVE",
"857 95 OFFCURVE",
"857 138 CURVE SMOOTH",
"857 178 OFFCURVE",
"895 183 OFFCURVE",
"935 184 CURVE SMOOTH",
"935 184 OFFCURVE",
"940 184 OFFCURVE",
"946 184 CURVE",
"943 276 LINE",
"917 276 LINE SMOOTH",
"827 276 OFFCURVE",
"702 251 OFFCURVE",
"702 140 CURVE SMOOTH",
"702 83 OFFCURVE",
"746 43 OFFCURVE",
"798 29 CURVE",
"745 11 OFFCURVE",
"702 -35 OFFCURVE",
"702 -97 CURVE SMOOTH",
"702 -212 OFFCURVE",
"814 -251 OFFCURVE",
"926 -251 CURVE SMOOTH",
"960 -251 OFFCURVE",
"999 -248 OFFCURVE",
"1028 -240 CURVE",
"1028 -240 OFFCURVE",
"1028 -119 OFFCURVE"
);
}
);
width = 1040;
},
{
layerId = "3C02C8EC-C43C-4762-8B99-FE4CB64E6532";
paths = (
{
closed = 1;
nodes = (
"444.155 0 LINE",
"509.155 0 LINE",
"569.106 340 OFFCURVE",
"629.057 680 OFFCURVE",
"629.057 680 CURVE",
"1078.057 680 LINE",
"1088.637 740 LINE",
"44.637 740 LINE",
"34.057 680 LINE",
"564.057 680 LINE"
);
},
{
closed = 1;
nodes = (
"139.403 319 LINE",
"160.563 439 OFFCURVE",
"245.611 513 OFFCURVE",
"360.611 513 CURVE SMOOTH",
"468.611 513 OFFCURVE",
"520.328 432 OFFCURVE",
"500.403 319 CURVE",
"532.461 325 LINE",
"564.326 449 OFFCURVE",
"516.19 573 OFFCURVE",
"361.19 573 CURVE SMOOTH",
"215.19 573 OFFCURVE",
"101.205 471 OFFCURVE",
"74.403 319 CURVE"
);
},
{
closed = 1;
nodes = (
"73.86 4 LINE",
"73.155 0 LINE",
"73.155 0 OFFCURVE",
"156.155 0 OFFCURVE",
"156.155 0 CURVE",
"521.051 317 LINE",
"521.051 317 OFFCURVE",
"516.454 376 OFFCURVE",
"516.454 376 CURVE"
);
},
{
closed = 1;
nodes = (
"860.661 570 LINE",
"798.242 216 LINE",
"863.242 216 LINE",
"925.661 570 LINE"
);
},
{
closed = 1;
nodes = (
"771.154 414 LINE",
"859.154 414 OFFCURVE",
"905.913 458 OFFCURVE",
"921.077 544 CURVE SMOOTH",
"927.601 581 LINE",
"862.601 581 LINE",
"856.43 546 LINE SMOOTH",
"846.908 492 OFFCURVE",
"837.205 471 OFFCURVE",
"780.205 471 CURVE SMOOTH",
"565.205 471 LINE",
"555.154 414 LINE"
);
},
{
closed = 1;
nodes = (
"818.119 -159 LINE",
"797.414 -163 OFFCURVE",
"777.061 -165 OFFCURVE",
"760.061 -165 CURVE SMOOTH",
"693.061 -165 OFFCURVE",
"657.174 -136 OFFCURVE",
"666.872 -81 CURVE SMOOTH",
"678.686 -14 OFFCURVE",
"737.918 10 OFFCURVE",
"801.918 10 CURVE SMOOTH",
"827.918 10 LINE",
"837.793 66 LINE",
"815.793 66 LINE SMOOTH",
"757.793 66 OFFCURVE",
"691.851 72 OFFCURVE",
"703.664 139 CURVE SMOOTH",
"715.831 208 OFFCURVE",
"783.242 216 OFFCURVE",
"841.242 216 CURVE SMOOTH",
"852.242 216 LINE",
"852.242 216 OFFCURVE",
"861.411 268 OFFCURVE",
"861.411 268 CURVE",
"808.411 268 LINE SMOOTH",
"738.234 267 OFFCURVE",
"659.063 232 OFFCURVE",
"643.193 142 CURVE SMOOTH",
"634.201 91 OFFCURVE",
"657.148 51 OFFCURVE",
"694.15 34 CURVE",
"650.447 13 OFFCURVE",
"615.042 -29 OFFCURVE",
"605.52 -83 CURVE SMOOTH",
"591.766 -161 OFFCURVE",
"638.363 -220 OFFCURVE",
"746.363 -220 CURVE SMOOTH",
"765.363 -220 OFFCURVE",
"785.716 -218 OFFCURVE",
"808.597 -213 CURVE"
);
}
);
width = 966;
},
{
layerId = "AD4288EF-621A-4539-AF14-1A70F42B46A9";
paths = (
{
closed = 1;
nodes = (
"423.888 0 LINE",
"587.888 0 LINE",
"693.684 600 LINE",
"1122.684 600 LINE",
"1147.37 740 LINE",
"67.37 740 LINE",
"42.684 600 LINE",
"529.684 600 LINE"
);
},
{
closed = 1;
nodes = (
"227.675 254 LINE",
"241.252 331 OFFCURVE",
"291.656 390 OFFCURVE",
"366.656 390 CURVE SMOOTH",
"448.656 390 OFFCURVE",
"484.192 342 OFFCURVE",
"470.262 263 CURVE",
"539.151 217 LINE",
"572.421 383 OFFCURVE",
"538.989 528 OFFCURVE",
"361.989 528 CURVE SMOOTH",
"202.989 528 OFFCURVE",
"92.887 414 OFFCURVE",
"64.675 254 CURVE"
);
},
{
closed = 1;
nodes = (
"47.122 7 CURVE",
"45.888 0 LINE",
"45.888 0 OFFCURVE",
"260.888 0 OFFCURVE",
"260.888 0 CURVE",
"260.888 0 OFFCURVE",
"532.736 243 OFFCURVE",
"532.736 243 CURVE",
"532.736 243 OFFCURVE",
"470.663 339 OFFCURVE",
"470.663 339 CURVE",
"470.663 339 OFFCURVE",
"104.233 53 OFFCURVE"
);
},
{
closed = 1;
nodes = (
"872.87 533 LINE",
"811.332 184 LINE",
"811.332 184 OFFCURVE",
"953.332 184 OFFCURVE",
"953.332 184 CURVE",
"1014.87 533 LINE"
);
},
{
closed = 1;
nodes = (
"789.781 334 LINE",
"933.781 334 OFFCURVE",
"986.482 372 OFFCURVE",
"1011.344 513 CURVE SMOOTH",
"1017.339 547 LINE",
"875.339 547 LINE",
"869.344 513 LINE SMOOTH",
"863.172 478 OFFCURVE",
"850.409 468 OFFCURVE",
"813.409 468 CURVE SMOOTH",
"629.409 468 LINE",
"605.781 334 LINE"
);
},
{
closed = 1;
nodes = (
"963.905 -119 CURVE",
"947.2 -123 OFFCURVE",
"908.789 -131 OFFCURVE",
"872.789 -131 CURVE SMOOTH",
"830.789 -131 OFFCURVE",
"792.729 -120 OFFCURVE",
"799.606 -81 CURVE SMOOTH",
"807.54 -36 OFFCURVE",
"848.951 -28 OFFCURVE",
"897.951 -28 CURVE",
"897.951 -28 OFFCURVE",
"937.951 -28 OFFCURVE",
"937.951 -28 CURVE",
"937.951 -28 OFFCURVE",
"959.463 94 OFFCURVE",
"959.463 94 CURVE",
"959.463 94 OFFCURVE",
"956.463 94 OFFCURVE",
"919.463 94 CURVE SMOOTH",
"881.463 94 OFFCURVE",
"830.639 95 OFFCURVE",
"838.221 138 CURVE SMOOTH",
"845.274 178 OFFCURVE",
"884.156 183 OFFCURVE",
"924.332 184 CURVE SMOOTH",
"924.332 184 OFFCURVE",
"929.332 184 OFFCURVE",
"935.332 184 CURVE",
"948.554 276 LINE",
"922.554 276 LINE SMOOTH",
"832.554 276 OFFCURVE",
"703.146 251 OFFCURVE",
"683.574 140 CURVE SMOOTH",
"673.523 83 OFFCURVE",
"710.47 43 OFFCURVE",
"760.002 29 CURVE",
"703.828 11 OFFCURVE",
"652.717 -35 OFFCURVE",
"641.784 -97 CURVE SMOOTH",
"621.507 -212 OFFCURVE",
"726.63 -251 OFFCURVE",
"838.63 -251 CURVE SMOOTH",
"872.63 -251 OFFCURVE",
"912.159 -248 OFFCURVE",
"942.57 -240 CURVE",
"942.57 -240 OFFCURVE",
"963.905 -119 OFFCURVE"
);
}
);
width = 1040;
}
);
unicode = 0960;
},
{
glyphname = dvvL;
lastChange = "2017-08-08 23:18:27 +0000";
layers = (
{
layerId = "C0ED9D5D-A651-429A-8F5D-D93A2EDA2DC0";
paths = (
{
closed = 1;
nodes = (
"806 -64 CURVE SMOOTH",
"828 -64 OFFCURVE",
"855 -61 OFFCURVE",
"872 -55 CURVE",
"872 0 LINE",
"851 -6 OFFCURVE",
"829 -9 OFFCURVE",
"808 -9 CURVE SMOOTH",
"741 -9 OFFCURVE",
"683 23 OFFCURVE",
"683 104 CURVE",
"683 174 OFFCURVE",
"724 216 OFFCURVE",
"796 216 CURVE SMOOTH",
"821 216 LINE",
"824 241 OFFCURVE",
"826 264 OFFCURVE",
"826 286 CURVE SMOOTH",
"826 414 OFFCURVE",
"768 491 OFFCURVE",
"674 507 CURVE",
"674 680 LINE",
"946 680 LINE",
"946 740 LINE",
"-40 740 LINE",
"-40 680 LINE",
"609 680 LINE",
"609 510 LINE",
"533 503 OFFCURVE",
"478 459 OFFCURVE",
"458 385 CURVE",
"436 466 OFFCURVE",
"371 511 OFFCURVE",
"285 511 CURVE SMOOTH",
"143 511 OFFCURVE",
"87 414 OFFCURVE",
"87 271 CURVE SMOOTH",
"87 108 OFFCURVE",
"190 5 OFFCURVE",
"351 21 CURVE",
"351 81 LINE",
"214 72 OFFCURVE",
"152 153 OFFCURVE",
"152 272 CURVE SMOOTH",
"152 374 OFFCURVE",
"184 451 OFFCURVE",
"285 451 CURVE SMOOTH",
"396 451 OFFCURVE",
"430 357 OFFCURVE",
"426 231 CURVE",
"490 231 LINE",
"486 357 OFFCURVE",
"519 451 OFFCURVE",
"630 451 CURVE",
"747 451 OFFCURVE",
"768 349 OFFCURVE",
"763 270 CURVE",
"673 258 OFFCURVE",
"622 195 OFFCURVE",
"622 104 CURVE SMOOTH",
"622 -14 OFFCURVE",
"707 -64 OFFCURVE"
);
}
);
width = 906;
},
{
layerId = "22D14058-393A-410A-BECB-F56B411A01B2";
paths = (
{
closed = 1;
nodes = (
"824 -79 CURVE SMOOTH",
"849 -79 OFFCURVE",
"876 -77 OFFCURVE",
"903 -72 CURVE",
"903 57 LINE",
"883 52 OFFCURVE",
"862 50 OFFCURVE",
"843 50 CURVE SMOOTH",
"792 50 OFFCURVE",
"751 70 OFFCURVE",
"751 115 CURVE",
"751 158 OFFCURVE",
"776 184 OFFCURVE",
"850 184 CURVE SMOOTH",
"854 184 OFFCURVE",
"858 184 OFFCURVE",
"862 184 CURVE",
"870 211 OFFCURVE",
"873 238 OFFCURVE",
"873 269 CURVE SMOOTH",
"873 414 OFFCURVE",
"795 493 OFFCURVE",
"691 511 CURVE",
"691 600 LINE",
"931 600 LINE",
"931 740 LINE",
"-20 740 LINE",
"-20 600 LINE",
"533 600 LINE",
"533 487 LINE",
"504 470 OFFCURVE",
"483 445 OFFCURVE",
"469 415 CURVE",
"438 477 OFFCURVE",
"378 515 OFFCURVE",
"290 515 CURVE SMOOTH",
"164 515 OFFCURVE",
"63 435 OFFCURVE",
"63 269 CURVE SMOOTH",
"63 101 OFFCURVE",
"176 -1 OFFCURVE",
"370 13 CURVE",
"370 155 LINE",
"287 150 OFFCURVE",
"228 178 OFFCURVE",
"228 270 CURVE SMOOTH",
"228 330 OFFCURVE",
"254 371 OFFCURVE",
"312 371 CURVE SMOOTH",
"399 371 OFFCURVE",
"400 280 OFFCURVE",
"392 206 CURVE",
"542 206 LINE",
"533 280 OFFCURVE",
"535 371 OFFCURVE",
"627 371 CURVE SMOOTH",
"689 371 OFFCURVE",
"711 324 OFFCURVE",
"711 266 CURVE",
"644 244 OFFCURVE",
"596 187 OFFCURVE",
"596 108 CURVE SMOOTH",
"596 -16 OFFCURVE",
"692 -79 OFFCURVE"
);
}
);
width = 911;
},
{
layerId = "3C02C8EC-C43C-4762-8B99-FE4CB64E6532";
paths = (
{
closed = 1;
nodes = (
"735.117 -64 CURVE SMOOTH",
"757.117 -64 OFFCURVE",
"784.646 -61 OFFCURVE",
"802.703 -55 CURVE",
"812.401 0 LINE",
"790.344 -6 OFFCURVE",
"767.815 -9 OFFCURVE",
"746.815 -9 CURVE SMOOTH",
"679.815 -9 OFFCURVE",
"627.457 23 OFFCURVE",
"641.74 104 CURVE",
"654.082 174 OFFCURVE",
"702.488 216 OFFCURVE",
"774.488 216 CURVE SMOOTH",
"799.488 216 LINE",
"806.896 241 OFFCURVE",
"812.952 264 OFFCURVE",
"816.831 286 CURVE SMOOTH",
"839.401 414 OFFCURVE",
"794.978 491 OFFCURVE",
"703.799 507 CURVE",
"734.304 680 LINE",
"1006.304 680 LINE",
"1016.883 740 LINE",
"30.883 740 LINE",
"20.304 680 LINE",
"669.304 680 LINE",
"639.328 510 LINE",
"562.094 503 OFFCURVE",
"499.336 459 OFFCURVE",
"466.287 385 CURVE",
"458.57 466 OFFCURVE",
"401.505 511 OFFCURVE",
"315.505 511 CURVE SMOOTH",
"173.505 511 OFFCURVE",
"100.401 414 OFFCURVE",
"75.186 271 CURVE SMOOTH",
"46.445 108 OFFCURVE",
"131.283 5 OFFCURVE",
"295.104 21 CURVE",
"305.684 81 LINE",
"167.097 72 OFFCURVE",
"119.38 153 OFFCURVE",
"140.362 272 CURVE SMOOTH",
"158.348 374 OFFCURVE",
"203.925 451 OFFCURVE",
"304.925 451 CURVE SMOOTH",
"415.925 451 OFFCURVE",
"433.35 357 OFFCURVE",
"407.133 231 CURVE",
"471.133 231 LINE",
"489.35 357 OFFCURVE",
"538.925 451 OFFCURVE",
"649.925 451 CURVE",
"766.925 451 OFFCURVE",
"769.94 349 OFFCURVE",
"751.01 270 CURVE",
"658.894 258 OFFCURVE",
"596.785 195 OFFCURVE",
"580.74 104 CURVE SMOOTH",
"559.933 -14 OFFCURVE",
"636.117 -64 OFFCURVE"
);
}
);
width = 906;
},
{
layerId = "AD4288EF-621A-4539-AF14-1A70F42B46A9";
paths = (
{
closed = 1;
nodes = (
"751.794 -79 CURVE SMOOTH",
"776.794 -79 OFFCURVE",
"804.147 -77 OFFCURVE",
"832.028 -72 CURVE",
"854.775 57 LINE",
"833.893 52 OFFCURVE",
"812.54 50 OFFCURVE",
"793.54 50 CURVE SMOOTH",
"742.54 50 OFFCURVE",
"705.067 70 OFFCURVE",
"713.002 115 CURVE",
"720.584 158 OFFCURVE",
"750.168 184 OFFCURVE",
"824.168 184 CURVE SMOOTH",
"828.168 184 OFFCURVE",
"832.168 184 OFFCURVE",
"836.168 184 CURVE",
"848.929 211 OFFCURVE",
"856.69 238 OFFCURVE",
"862.156 269 CURVE SMOOTH",
"887.723 414 OFFCURVE",
"823.653 493 OFFCURVE",
"722.827 511 CURVE",
"738.52 600 LINE",
"978.52 600 LINE",
"1003.206 740 LINE",
"52.206 740 LINE",
"27.52 600 LINE",
"580.52 600 LINE",
"560.595 487 LINE",
"528.598 470 OFFCURVE",
"503.189 445 OFFCURVE",
"483.9 415 CURVE",
"463.832 477 OFFCURVE",
"410.532 515 OFFCURVE",
"322.532 515 CURVE SMOOTH",
"196.532 515 OFFCURVE",
"81.426 435 OFFCURVE",
"52.156 269 CURVE SMOOTH",
"22.533 101 OFFCURVE",
"117.548 -1 OFFCURVE",
"314.016 13 CURVE",
"339.055 155 LINE",
"255.173 150 OFFCURVE",
"201.11 178 OFFCURVE",
"217.332 270 CURVE SMOOTH",
"227.912 330 OFFCURVE",
"261.141 371 OFFCURVE",
"319.141 371 CURVE SMOOTH",
"406.141 371 OFFCURVE",
"391.095 280 OFFCURVE",
"370.047 206 CURVE",
"520.047 206 LINE",
"524.095 280 OFFCURVE",
"542.141 371 OFFCURVE",
"634.141 371 CURVE SMOOTH",
"696.141 371 OFFCURVE",
"709.854 324 OFFCURVE",
"699.627 266 CURVE",
"628.748 244 OFFCURVE",
"570.697 187 OFFCURVE",
"556.767 108 CURVE SMOOTH",
"534.903 -16 OFFCURVE",
"619.794 -79 OFFCURVE"
);
}
);
width = 911;
}
);
unicode = 090C;
},
{
glyphname = dvEcandra;
lastChange = "2017-08-08 23:18:27 +0000";
layers = (
{
components = (
{
name = dvE;
transform = "{1, 0, 0, 1, -37, 0}";
}
);
layerId = "C0ED9D5D-A651-429A-8F5D-D93A2EDA2DC0";
paths = (
{
closed = 1;
nodes = (
"162 1000 CURVE",
"102 1000 LINE",
"102 902 OFFCURVE",
"161 822 OFFCURVE",
"302 822 CURVE SMOOTH",
"443 822 OFFCURVE",
"502 902 OFFCURVE",
"502 1000 CURVE",
"442 1000 LINE",
"442 934 OFFCURVE",
"407 877 OFFCURVE",
"302 877 CURVE SMOOTH",
"202 877 OFFCURVE",
"162 934 OFFCURVE"
);
}
);
width = 615;
},
{
components = (
{
name = dvE;
}
);
layerId = "22D14058-393A-410A-BECB-F56B411A01B2";
paths = (
{
closed = 1;
nodes = (
"588 1024 CURVE",
"451 1024 LINE",
"451 971 OFFCURVE",
"420 930 OFFCURVE",
"351 930 CURVE",
"282 930 OFFCURVE",
"251 971 OFFCURVE",
"251 1024 CURVE",
"114 1024 LINE",
"114 894 OFFCURVE",
"185 810 OFFCURVE",
"351 810 CURVE",
"517 810 OFFCURVE",
"588 894 OFFCURVE"
);
}
);
width = 684;
},
{
components = (
{
name = dvE;
transform = "{1, 0, 0, 1, -126.839, 0}";
}
);
layerId = "3C02C8EC-C43C-4762-8B99-FE4CB64E6532";
paths = (
{
closed = 1;
nodes = (
"248.488 1000 CURVE",
"188.488 1000 LINE",
"171.208 902 OFFCURVE",
"216.102 822 OFFCURVE",
"357.102 822 CURVE SMOOTH",
"498.102 822 OFFCURVE",
"571.208 902 OFFCURVE",
"588.488 1000 CURVE",
"528.488 1000 LINE",
"516.851 934 OFFCURVE",
"471.8 877 OFFCURVE",
"366.8 877 CURVE SMOOTH",
"266.8 877 OFFCURVE",
"236.851 934 OFFCURVE"
);
}
);
width = 615;
},
{
components = (
{
name = dvE;
transform = "{1, 0, 0, 1, -91.955, 0}";
}
);
layerId = "AD4288EF-621A-4539-AF14-1A70F42B46A9";
paths = (
{
closed = 1;
nodes = (
"676.604 1024 CURVE",
"539.604 1024 LINE",
"530.259 971 OFFCURVE",
"492.03 930 OFFCURVE",
"423.03 930 CURVE",
"354.03 930 OFFCURVE",
"330.259 971 OFFCURVE",
"339.604 1024 CURVE",
"202.604 1024 LINE",
"179.682 894 OFFCURVE",
"235.87 810 OFFCURVE",
"401.87 810 CURVE",
"567.87 810 OFFCURVE",
"653.682 894 OFFCURVE"
);
}
);
width = 684;
}
);
unicode = 090D;
},
{
glyphname = dvE;
lastChange = "2017-08-08 23:18:27 +0000";
layers = (
{
layerId = "C0ED9D5D-A651-429A-8F5D-D93A2EDA2DC0";
paths = (
{
closed = 1;
nodes = (
"695 680 LINE",
"695 740 LINE",
"-40 740 LINE",
"-40 680 LINE"
);
},
{
closed = 1;
nodes = (
"571 680 LINE",
"506 680 LINE",
"506 555 LINE SMOOTH",
"506 425 OFFCURVE",
"476 405 OFFCURVE",
"370 401 CURVE",
"370 340 LINE",
"512 341 OFFCURVE",
"571 392 OFFCURVE",
"571 554 CURVE SMOOTH"
);
},
{
closed = 1;
nodes = (
"113 273 LINE",
"113 125 OFFCURVE",
"179 19 OFFCURVE",
"352 19 CURVE SMOOTH",
"494 19 OFFCURVE",
"579 103 OFFCURVE",
"579 245 CURVE",
"514 245 LINE",
"514 135 OFFCURVE",
"459 79 OFFCURVE",
"349 79 CURVE SMOOTH",
"229 79 OFFCURVE",
"178 145 OFFCURVE",
"178 265 CURVE SMOOTH",
"178 723 LINE",
"113 723 LINE"
);
}
);
width = 655;
},
{
layerId = "22D14058-393A-410A-BECB-F56B411A01B2";
paths = (
{
closed = 1;
nodes = (
"704 600 LINE",
"704 740 LINE",
"-20 740 LINE",
"-20 600 LINE"
);
},
{
closed = 1;
nodes = (
"609 670 LINE",
"443 670 LINE",
"443 494 LINE SMOOTH",
"443 442 OFFCURVE",
"422 423 OFFCURVE",
"365 426 CURVE",
"365 426 OFFCURVE",
"365 277 OFFCURVE",
"365 277 CURVE",
"530 271 OFFCURVE",
"609 338 OFFCURVE",
"609 494 CURVE"
);
},
{
closed = 1;
nodes = (
"101 263 LINE",
"101 120 OFFCURVE",
"183 19 OFFCURVE",
"356 19 CURVE SMOOTH",
"501 19 OFFCURVE",
"599 97 OFFCURVE",
"599 235 CURVE",
"439 235 LINE",
"439 185 OFFCURVE",
"407 159 OFFCURVE",
"353 159 CURVE SMOOTH",
"300 159 OFFCURVE",
"267 189 OFFCURVE",
"267 255 CURVE SMOOTH",
"267 723 LINE",
"100 723 LINE"
);
}
);
width = 684;
},
{
layerId = "3C02C8EC-C43C-4762-8B99-FE4CB64E6532";
paths = (
{
closed = 1;
nodes = (
"747.986 680 LINE",
"758.566 740 LINE",
"23.566 740 LINE",
"12.986 680 LINE"
);
},
{
closed = 1;
nodes = (
"623.986 680 LINE",
"558.986 680 LINE",
"536.945 555 LINE SMOOTH",
"514.023 425 OFFCURVE",
"480.496 405 OFFCURVE",
"373.791 401 CURVE",
"363.035 340 LINE",
"505.211 341 OFFCURVE",
"573.204 392 OFFCURVE",
"601.769 554 CURVE SMOOTH"
);
},
{
closed = 1;
nodes = (
"94.221 273 LINE",
"68.125 125 OFFCURVE",
"115.434 19 OFFCURVE",
"288.434 19 CURVE SMOOTH",
"430.434 19 OFFCURVE",
"530.246 103 OFFCURVE",
"555.284 245 CURVE",
"490.284 245 LINE",
"470.888 135 OFFCURVE",
"406.014 79 OFFCURVE",
"296.014 79 CURVE SMOOTH",
"176.014 79 OFFCURVE",
"136.651 145 OFFCURVE",
"157.811 265 CURVE SMOOTH",
"238.568 723 LINE",
"173.568 723 LINE"
);
}
);
width = 655;
},
{
layerId = "AD4288EF-621A-4539-AF14-1A70F42B46A9";
paths = (
{
closed = 1;
nodes = (
"742.88 600 LINE",
"767.566 740 LINE",
"43.566 740 LINE",
"18.88 600 LINE"
);
},
{
closed = 1;
nodes = (
"660.223 670 LINE",
"494.223 670 LINE",
"463.189 494 LINE SMOOTH",
"454.02 442 OFFCURVE",
"429.67 423 OFFCURVE",
"373.199 426 CURVE",
"373.199 426 OFFCURVE",
"346.926 277 OFFCURVE",
"346.926 277 CURVE",
"510.869 271 OFFCURVE",
"601.682 338 OFFCURVE",
"629.189 494 CURVE"
);
},
{
closed = 1;
nodes = (
"80.458 263 LINE",
"55.243 120 OFFCURVE",
"119.434 19 OFFCURVE",
"292.434 19 CURVE SMOOTH",
"437.434 19 OFFCURVE",
"549.188 97 OFFCURVE",
"573.521 235 CURVE",
"413.521 235 LINE",
"404.704 185 OFFCURVE",
"368.12 159 OFFCURVE",
"314.12 159 CURVE SMOOTH",
"261.12 159 OFFCURVE",
"233.41 189 OFFCURVE",
"245.047 255 CURVE SMOOTH",
"327.568 723 LINE",
"160.568 723 LINE"
);
}
);
width = 684;
}
);
unicode = 090F;
},
{
glyphname = dvmE;
lastChange = "2017-08-08 23:18:27 +0000";
layers = (
{
anchors = (
{
name = _abvm.e;
position = "{-100, 740}";
}
);
layerId = "C0ED9D5D-A651-429A-8F5D-D93A2EDA2DC0";
paths = (
{
closed = 1;
nodes = (
"-101 732 LINE",
"-247 967 OFFCURVE",
"-300 974 OFFCURVE",
"-452 974 CURVE SMOOTH",
"-479 974 LINE",
"-479 914 LINE",
"-447 914 LINE SMOOTH",
"-301 914 OFFCURVE",
"-289 902 OFFCURVE",
"-173 732 CURVE"
);
}
);
width = 0;
},
{
anchors = (
{
name = _abvm.e;
position = "{-75, 740}";
}
);
layerId = "22D14058-393A-410A-BECB-F56B411A01B2";
paths = (
{
closed = 1;
nodes = (
"-82 734 LINE",
"-217 969 OFFCURVE",
"-272 993 OFFCURVE",
"-436 994 CURVE",
"-483 994 LINE",
"-483 868 LINE",
"-431 868 LINE",
"-324 868 OFFCURVE",
"-305 851 OFFCURVE",
"-227 734 CURVE"
);
}
);
width = 0;
},
{
anchors = (
{
name = _abvm.e;
position = "{-119.925, 740}";
}
);
layerId = "3C02C8EC-C43C-4762-8B99-FE4CB64E6532";
paths = (
{
closed = 1;
nodes = (
"-122.336 732 LINE",
"-226.899 967 OFFCURVE",
"-278.664 974 OFFCURVE",
"-430.664 974 CURVE SMOOTH",
"-457.664 974 LINE",
"-468.244 914 LINE",
"-436.244 914 LINE SMOOTH",
"-290.244 914 OFFCURVE",
"-280.36 902 OFFCURVE",
"-194.336 732 CURVE"
);
}
);
width = 0;
},
{
anchors = (
{
name = _abvm.e;
position = "{-96.865, 740}";
}
);
layerId = "AD4288EF-621A-4539-AF14-1A70F42B46A9";
paths = (
{
closed = 1;
nodes = (
"-104.923 734 LINE",
"-198.486 969 OFFCURVE",
"-249.254 993 OFFCURVE",
"-413.077 994 CURVE",
"-460.077 994 LINE",
"-482.295 868 LINE",
"-430.295 868 LINE",
"-323.295 868 OFFCURVE",
"-307.292 851 OFFCURVE",
"-249.923 734 CURVE"
);
}
);
width = 0;
}
);
unicode = 0947;
},
{
glyphname = dvOcandra;
lastChange = "2017-08-08 23:18:27 +0000";
layers = (
{
components = (
{
name = dvA;
},
{
name = dvmAA;
transform = "{1, 0, 0, 1, 822, 0}";
}
);
layerId = "C0ED9D5D-A651-429A-8F5D-D93A2EDA2DC0";
paths = (
{
closed = 1;
nodes = (
"1008 987 CURVE",
"948 987 LINE",
"948 931 OFFCURVE",
"924 874 OFFCURVE",
"838 874 CURVE",
"752 874 OFFCURVE",
"728 931 OFFCURVE",
"728 987 CURVE",
"668 987 LINE",
"668 899 OFFCURVE",
"707 819 OFFCURVE",
"838 819 CURVE",
"969 819 OFFCURVE",
"1008 899 OFFCURVE"
);
}
);
width = 1087;
},
{
components = (
{
name = dvA;
transform = "{1, 0, 0, 1, 23, 0}";
},
{
name = dvmAA;
transform = "{1, 0, 0, 1, 888, 0}";
}
);
layerId = "22D14058-393A-410A-BECB-F56B411A01B2";
paths = (
{
closed = 1;
nodes = (
"1142 1024 CURVE",
"1005 1024 LINE",
"1005 971 OFFCURVE",
"974 930 OFFCURVE",
"905 930 CURVE",
"836 930 OFFCURVE",
"805 971 OFFCURVE",
"805 1024 CURVE",
"668 1024 LINE",
"668 894 OFFCURVE",
"739 810 OFFCURVE",
"905 810 CURVE",
"1071 810 OFFCURVE",
"1142 894 OFFCURVE"
);
}
);
width = 1202;
},
{
components = (
{
name = dvA;
transform = "{1, 0, 0, 1, -87.017, 0}";
},
{
name = dvmAA;
transform = "{1, 0, 0, 1, 734.983, 0}";
}
);
layerId = "3C02C8EC-C43C-4762-8B99-FE4CB64E6532";
paths = (
{
closed = 1;
nodes = (
"1095.017 987 CURVE",
"1035.017 987 LINE",
"1025.143 931 OFFCURVE",
"991.092 874 OFFCURVE",
"905.092 874 CURVE",
"819.092 874 OFFCURVE",
"805.143 931 OFFCURVE",
"815.017 987 CURVE",
"755.017 987 LINE",
"739.501 899 OFFCURVE",
"764.394 819 OFFCURVE",
"895.394 819 CURVE",
"1026.394 819 OFFCURVE",
"1079.501 899 OFFCURVE"
);
}
);
width = 1087;
},
{
components = (
{
name = dvA;
transform = "{1, 0, 0, 1, -67.279, 0}";
},
{
name = dvmAA;
transform = "{1, 0, 0, 1, 797.721, 0}";
}
);
layerId = "AD4288EF-621A-4539-AF14-1A70F42B46A9";
paths = (
{
closed = 1;
nodes = (
"1232.279 1024 CURVE",
"1095.279 1024 LINE",
"1085.934 971 OFFCURVE",
"1047.705 930 OFFCURVE",
"978.705 930 CURVE",
"909.705 930 OFFCURVE",
"885.934 971 OFFCURVE",
"895.279 1024 CURVE",
"758.279 1024 LINE",
"735.357 894 OFFCURVE",
"791.545 810 OFFCURVE",
"957.545 810 CURVE",
"1123.545 810 OFFCURVE",
"1209.357 894 OFFCURVE"
);
}
);
width = 1202;
}
);
unicode = 0911;
},
{
glyphname = dvmAI;
lastChange = "2017-08-08 23:18:27 +0000";
layers = (
{
anchors = (
{
name = _abvm.e;
position = "{-100, 740}";
}
);
layerId = "C0ED9D5D-A651-429A-8F5D-D93A2EDA2DC0";
paths = (
{
closed = 1;
nodes = (
"-135 728 LINE",
"-238 873 OFFCURVE",
"-297 873 OFFCURVE",
"-427 873 CURVE SMOOTH",
"-454 873 LINE",
"-454 813 LINE",
"-422 813 LINE SMOOTH",
"-306 813 OFFCURVE",
"-244 813 OFFCURVE",
"-175 728 CURVE"
);
},
{
closed = 1;
nodes = (
"-102 728 LINE",
"-226 968 OFFCURVE",
"-282 990 OFFCURVE",
"-434 990 CURVE SMOOTH",
"-461 990 LINE",
"-461 930 LINE",
"-429 930 LINE SMOOTH",
"-283 930 OFFCURVE",
"-244 895 OFFCURVE",
"-145 728 CURVE"
);
}
);
width = 0;
},
{
anchors = (
{
name = _abvm.e;
position = "{-75, 740}";
}
);
layerId = "22D14058-393A-410A-BECB-F56B411A01B2";
paths = (
{
closed = 1;
nodes = (
"-113 734 LINE",
"-294 896 OFFCURVE",
"-296 895 OFFCURVE",
"-436 896 CURVE SMOOTH",
"-483 896 LINE",
"-483 796 LINE",
"-431 796 LINE SMOOTH",
"-307 796 OFFCURVE",
"-301 796 OFFCURVE",
"-209 734 CURVE"
);
},
{
closed = 1;
nodes = (
"-78 734 LINE",
"-237 1028 OFFCURVE",
"-272 1045 OFFCURVE",
"-436 1046 CURVE SMOOTH",
"-483 1046 LINE",
"-483 946 LINE",
"-431 946 LINE SMOOTH",
"-329 946 OFFCURVE",
"-286 946 OFFCURVE",
"-180 734 CURVE"
);
}
);
width = 0;
},
{
anchors = (
{
name = _abvm.e;
position = "{-120.983, 740}";
}
);
layerId = "3C02C8EC-C43C-4762-8B99-FE4CB64E6532";
paths = (
{
closed = 1;
nodes = (
"-158.099 728 LINE",
"-235.531 873 OFFCURVE",
"-294.531 873 OFFCURVE",
"-424.531 873 CURVE SMOOTH",
"-451.531 873 LINE",
"-462.111 813 LINE",
"-430.111 813 LINE SMOOTH",
"-314.111 813 OFFCURVE",
"-252.111 813 OFFCURVE",
"-198.099 728 CURVE"
);
},
{
closed = 1;
nodes = (
"-125.099 728 LINE",
"-206.78 968 OFFCURVE",
"-258.901 990 OFFCURVE",
"-410.901 990 CURVE SMOOTH",
"-437.901 990 LINE",
"-448.481 930 LINE",
"-416.481 930 LINE SMOOTH",
"-270.481 930 OFFCURVE",
"-237.652 895 OFFCURVE",
"-168.099 728 CURVE"
);
}
);
width = 0;
},
{
anchors = (
{
name = _abvm.e;
position = "{-101.449, 740}";
}
);
layerId = "AD4288EF-621A-4539-AF14-1A70F42B46A9";
paths = (
{
closed = 1;
nodes = (
"-140.507 734 LINE",
"-292.942 896 OFFCURVE",
"-295.118 895 OFFCURVE",
"-434.942 896 CURVE SMOOTH",
"-481.942 896 LINE",
"-499.575 796 LINE",
"-447.575 796 LINE SMOOTH",
"-323.575 796 OFFCURVE",
"-317.575 796 OFFCURVE",
"-236.507 734 CURVE"
);
},
{
closed = 1;
nodes = (
"-105.507 734 LINE",
"-212.667 1028 OFFCURVE",
"-244.669 1045 OFFCURVE",
"-408.493 1046 CURVE SMOOTH",
"-455.493 1046 LINE",
"-473.126 946 LINE",
"-421.126 946 LINE SMOOTH",
"-319.126 946 OFFCURVE",
"-276.126 946 OFFCURVE",
"-207.507 734 CURVE"
);
}
);
width = 0;
}
);
unicode = 0948;
},
{
glyphname = dvmI;
lastChange = "2017-08-08 23:18:27 +0000";
layers = (
{
layerId = "C0ED9D5D-A651-429A-8F5D-D93A2EDA2DC0";
paths = (
{
closed = 1;
nodes = (
"789 750 CURVE SMOOTH",
"789 703 LINE",
"854 703 LINE",
"854 760 LINE SMOOTH",
"854 965 OFFCURVE",
"651 988 OFFCURVE",
"478 988 CURVE",
"305 988 OFFCURVE",
"102 965 OFFCURVE",
"102 760 CURVE SMOOTH",
"102 703 LINE",
"167 703 LINE",
"167 750 LINE SMOOTH",
"167 922 OFFCURVE",
"331 928 OFFCURVE",
"478 928 CURVE",
"625 928 OFFCURVE",
"789 922 OFFCURVE"
);
},
{
closed = 1;
nodes = (
"305 680 CURVE",
"305 740 LINE",
"-40 740 LINE",
"-40 680 LINE",
"100 680 LINE",
"100 0 LINE",
"165 0 LINE",
"165 680 LINE",
"165 680 OFFCURVE",
"305 680 OFFCURVE"
);
}
);
width = 265;
},
{
layerId = "22D14058-393A-410A-BECB-F56B411A01B2";
paths = (
{
closed = 1;
nodes = (
"755 729 CURVE SMOOTH",
"755 697 LINE",
"917 697 LINE",
"917 742 LINE SMOOTH",
"917 933 OFFCURVE",
"751 1034 OFFCURVE",
"497 1034 CURVE SMOOTH",
"243 1034 OFFCURVE",
"77 933 OFFCURVE",
"77 742 CURVE SMOOTH",
"77 697 LINE",
"239 697 LINE",
"239 729 LINE SMOOTH",
"239 855 OFFCURVE",
"359 899 OFFCURVE",
"497 899 CURVE SMOOTH",
"635 899 OFFCURVE",
"755 855 OFFCURVE"
);
},
{
closed = 1;
nodes = (
"334 600 LINE",
"334 740 LINE",
"-20 740 LINE",
"-20 600 LINE",
"75 600 LINE",
"75 0 LINE",
"239 0 LINE",
"239 600 LINE"
);
}
);
width = 314;
},
{
layerId = "3C02C8EC-C43C-4762-8B99-FE4CB64E6532";
paths = (
{
closed = 1;
nodes = (
"834.14 750 CURVE SMOOTH",
"825.852 703 LINE",
"890.852 703 LINE",
"900.903 760 LINE SMOOTH",
"937.05 965 OFFCURVE",
"738.106 988 OFFCURVE",
"565.106 988 CURVE",
"392.106 988 OFFCURVE",
"185.05 965 OFFCURVE",
"148.903 760 CURVE SMOOTH",
"138.852 703 LINE",
"203.852 703 LINE",
"212.14 750 LINE SMOOTH",
"242.468 922 OFFCURVE",
"407.526 928 OFFCURVE",
"554.526 928 CURVE",
"701.526 928 OFFCURVE",
"864.468 922 OFFCURVE"
);
},
{
closed = 1;
nodes = (
"337.797 680 CURVE",
"348.376 740 LINE",
"3.376 740 LINE",
"-7.203 680 LINE",
"132.797 680 LINE",
"12.894 0 LINE",
"77.894 0 LINE",
"197.797 680 LINE",
"197.797 680 OFFCURVE",
"337.797 680 OFFCURVE"
);
}
);
width = 265;
},
{
layerId = "AD4288EF-621A-4539-AF14-1A70F42B46A9";
paths = (
{
closed = 1;
nodes = (
"792.381 729 CURVE SMOOTH",
"786.739 697 LINE",
"948.739 697 LINE",
"956.674 742 LINE SMOOTH",
"990.352 933 OFFCURVE",
"842.161 1034 OFFCURVE",
"588.161 1034 CURVE SMOOTH",
"334.161 1034 OFFCURVE",
"150.352 933 OFFCURVE",
"116.674 742 CURVE SMOOTH",
"108.739 697 LINE",
"270.739 697 LINE",
"276.381 729 LINE SMOOTH",
"298.599 855 OFFCURVE",
"426.357 899 OFFCURVE",
"564.357 899 CURVE SMOOTH",
"702.357 899 OFFCURVE",
"814.599 855 OFFCURVE"
);
},
{
closed = 1;
nodes = (
"348.635 600 LINE",
"373.321 740 LINE",
"19.321 740 LINE",
"-5.365 600 LINE",
"89.635 600 LINE",
"-16.161 0 LINE",
"147.839 0 LINE",
"253.635 600 LINE"
);
}
);
width = 314;
}
);
unicode = 093F;
},
{
glyphname = dvmII;
lastChange = "2017-08-08 23:18:27 +0000";
layers = (
{
layerId = "C0ED9D5D-A651-429A-8F5D-D93A2EDA2DC0";
paths = (
{
closed = 1;
nodes = (
"-173 780 CURVE SMOOTH",
"-173 703 LINE",
"-111 703 LINE",
"-111 770 LINE SMOOTH",
"-111 873 OFFCURVE",
"-88 928 OFFCURVE",
"-2 928 CURVE",
"84 928 OFFCURVE",
"107 873 OFFCURVE",
"107 770 CURVE",
"107 703 LINE",
"169 703 LINE",
"169 780 LINE",
"169 899 OFFCURVE",
"131 988 OFFCURVE",
"-2 988 CURVE",
"-135 988 OFFCURVE",
"-173 899 OFFCURVE"
);
},
{
closed = 1;
nodes = (
"305 680 CURVE",
"305 740 LINE",
"-40 740 LINE",
"-40 680 LINE",
"100 680 LINE",
"100 0 LINE",
"165 0 LINE",
"165 680 LINE",
"165 680 OFFCURVE",
"305 680 OFFCURVE"
);
}
);
width = 265;
},
{
layerId = "22D14058-393A-410A-BECB-F56B411A01B2";
paths = (
{
closed = 1;
nodes = (
"-228 769 CURVE SMOOTH",
"-228 697 LINE",
"-71 697 LINE",
"-71 765 LINE SMOOTH",
"-71 849 OFFCURVE",
"-66 900 OFFCURVE",
"0 900 CURVE SMOOTH",
"66 900 OFFCURVE",
"71 849 OFFCURVE",
"71 765 CURVE SMOOTH",
"71 697 LINE",
"228 697 LINE",
"228 769 LINE SMOOTH",
"228 923 OFFCURVE",
"179 1034 OFFCURVE",
"0 1034 CURVE SMOOTH",
"-179 1034 OFFCURVE",
"-228 927 OFFCURVE"
);
},
{
closed = 1;
nodes = (
"334 600 LINE",
"334 740 LINE",
"-20 740 LINE",
"-20 600 LINE",
"75 600 LINE",
"75 0 LINE",
"239 0 LINE",
"239 600 LINE"
);
}
);
width = 314;
},
{
layerId = "3C02C8EC-C43C-4762-8B99-FE4CB64E6532";
paths = (
{
closed = 1;
nodes = (
"-122.57 780 CURVE SMOOTH",
"-136.148 703 LINE",
"-74.148 703 LINE",
"-62.334 770 LINE SMOOTH",
"-44.172 873 OFFCURVE",
"-11.474 928 OFFCURVE",
"74.526 928 CURVE",
"160.526 928 OFFCURVE",
"173.828 873 OFFCURVE",
"155.666 770 CURVE",
"143.852 703 LINE",
"205.852 703 LINE",
"219.43 780 LINE",
"240.412 899 OFFCURVE",
"218.106 988 OFFCURVE",
"85.106 988 CURVE",
"-47.894 988 OFFCURVE",
"-101.588 899 OFFCURVE"
);
},
{
closed = 1;
nodes = (
"337.797 680 CURVE",
"348.376 740 LINE",
"3.376 740 LINE",
"-7.203 680 LINE",
"132.797 680 LINE",
"12.894 0 LINE",
"77.894 0 LINE",
"197.797 680 LINE",
"197.797 680 OFFCURVE",
"337.797 680 OFFCURVE"
);
}
);
width = 265;
},
{
layerId = "AD4288EF-621A-4539-AF14-1A70F42B46A9";
paths = (
{
closed = 1;
nodes = (
"-183.566 769 CURVE SMOOTH",
"-196.261 697 LINE",
"-39.261 697 LINE",
"-27.271 765 LINE SMOOTH",
"-12.459 849 OFFCURVE",
"1.533 900 OFFCURVE",
"67.533 900 CURVE SMOOTH",
"133.533 900 OFFCURVE",
"129.541 849 OFFCURVE",
"114.729 765 CURVE SMOOTH",
"102.739 697 LINE",
"259.739 697 LINE",
"272.434 769 LINE SMOOTH",
"299.589 923 OFFCURVE",
"270.161 1034 OFFCURVE",
"91.161 1034 CURVE SMOOTH",
"-87.839 1034 OFFCURVE",
"-155.706 927 OFFCURVE"
);
},
{
closed = 1;
nodes = (
"348.635 600 LINE",
"373.321 740 LINE",
"19.321 740 LINE",
"-5.365 600 LINE",
"89.635 600 LINE",
"-16.161 0 LINE",
"147.839 0 LINE",
"253.635 600 LINE"
);
}
);
width = 314;
}
);
unicode = 0940;
},
{
glyphname = dvmEcandra;
lastChange = "2017-08-08 23:18:27 +0000";
layers = (
{
anchors = (
{
name = _abvm.e;
position = "{-100, 740}";
}
);
layerId = "C0ED9D5D-A651-429A-8F5D-D93A2EDA2DC0";
paths = (
{
closed = 1;
nodes = (
"48 987 CURVE",
"-12 987 LINE",
"-12 931 OFFCURVE",
"-46 874 OFFCURVE",
"-132 874 CURVE SMOOTH",
"-218 874 OFFCURVE",
"-252 931 OFFCURVE",
"-252 987 CURVE",
"-312 987 LINE",
"-312 899 OFFCURVE",
"-263 819 OFFCURVE",
"-132 819 CURVE SMOOTH",
"-1 819 OFFCURVE",
"48 899 OFFCURVE"
);
}
);
width = 0;
},
{
anchors = (
{
name = _abvm.e;
position = "{-75, 740}";
}
);
layerId = "22D14058-393A-410A-BECB-F56B411A01B2";
paths = (
{
closed = 1;
nodes = (
"73 1024 CURVE",
"-64 1024 LINE",
"-64 971 OFFCURVE",
"-95 930 OFFCURVE",
"-164 930 CURVE",
"-233 930 OFFCURVE",
"-264 971 OFFCURVE",
"-264 1024 CURVE",
"-401 1024 LINE",
"-401 894 OFFCURVE",
"-330 810 OFFCURVE",
"-164 810 CURVE",
"2 810 OFFCURVE",
"73 894 OFFCURVE"
);
}
);
width = 0;
},
{
anchors = (
{
name = _abvm.e;
position = "{-128.741, 740}";
}
);
layerId = "3C02C8EC-C43C-4762-8B99-FE4CB64E6532";
paths = (
{
closed = 1;
nodes = (
"62.811 987 CURVE",
"2.811 987 LINE",
"-7.063 931 OFFCURVE",
"-51.113 874 OFFCURVE",
"-137.113 874 CURVE SMOOTH",
"-223.113 874 OFFCURVE",
"-247.063 931 OFFCURVE",
"-237.189 987 CURVE",
"-297.189 987 LINE",
"-312.705 899 OFFCURVE",
"-277.811 819 OFFCURVE",
"-146.811 819 CURVE SMOOTH",
"-15.811 819 OFFCURVE",
"47.295 899 OFFCURVE"
);
}
);
width = 0;
},
{
anchors = (
{
name = _abvm.e;
position = "{-106.21, 740}";
}
);
layerId = "AD4288EF-621A-4539-AF14-1A70F42B46A9";
paths = (
{
closed = 1;
nodes = (
"91.867 1024 CURVE",
"-45.133 1024 LINE",
"-54.478 971 OFFCURVE",
"-92.708 930 OFFCURVE",
"-161.708 930 CURVE",
"-230.708 930 OFFCURVE",
"-254.478 971 OFFCURVE",
"-245.133 1024 CURVE",
"-382.133 1024 LINE",
"-405.056 894 OFFCURVE",
"-348.867 810 OFFCURVE",
"-182.867 810 CURVE",
"-16.867 810 OFFCURVE",
"68.944 894 OFFCURVE"
);
}
);
width = 0;
}
);
unicode = 0945;
},
{
glyphname = dvKA;
lastChange = "2017-08-08 23:18:27 +0000";
layers = (
{
anchors = (
{
name = abvm.e;
position = "{552, 740}";
},
{
name = blwm.u;
position = "{552, 0}";
},
{
name = blwm.virama;
position = "{552, 0}";
}
);
layerId = "C0ED9D5D-A651-429A-8F5D-D93A2EDA2DC0";
paths = (
{
closed = 1;
nodes = (
"313 109 CURVE SMOOTH",
"468 109 OFFCURVE",
"528 225 OFFCURVE",
"518 336 CURVE",
"487 339 LINE",
"487 236 OFFCURVE",
"431 169 OFFCURVE",
"323 169 CURVE SMOOTH",
"216 169 OFFCURVE",
"153 230 OFFCURVE",
"153 339 CURVE",
"153 447 OFFCURVE",
"213 510 OFFCURVE",
"321 510 CURVE SMOOTH",
"426 510 OFFCURVE",
"487 447 OFFCURVE",
"487 339 CURVE",
"518 342 LINE",
"528 455 OFFCURVE",
"466 570 OFFCURVE",
"313 570 CURVE SMOOTH",
"178 570 OFFCURVE",
"88 476 OFFCURVE",
"88 339 CURVE",
"88 202 OFFCURVE",
"180 109 OFFCURVE"
);
},
{
closed = 1;
nodes = (
"666 114 LINE",
"827 100 OFFCURVE",
"942 189 OFFCURVE",
"942 339 CURVE SMOOTH",
"942 475 OFFCURVE",
"856 571 OFFCURVE",
"719 571 CURVE SMOOTH",
"568 571 OFFCURVE",
"511 450 OFFCURVE",
"524 325 CURVE",
"552 319 LINE",
"552 438 OFFCURVE",
"603 511 OFFCURVE",
"709 511 CURVE SMOOTH",
"818 511 OFFCURVE",
"877 446 OFFCURVE",
"877 339 CURVE SMOOTH",
"877 218 OFFCURVE",
"786 164 OFFCURVE",
"666 174 CURVE"
);
},
{
closed = 1;
nodes = (
"1058 740 LINE",
"-40 740 LINE",
"-40 680 LINE",
"487 680 LINE",
"487 0 LINE",
"552 0 LINE",
"552 340 OFFCURVE",
"552 680 OFFCURVE",
"552 680 CURVE",
"1058 680 LINE"
);
}
);
width = 1018;
},
{
anchors = (
{
name = abvm.e;
position = "{590, 740}";
},
{
name = blwm.u;
position = "{590, 0}";
},
{
name = blwm.virama;
position = "{590, 0}";
}
);
layerId = "22D14058-393A-410A-BECB-F56B411A01B2";
paths = (
{
closed = 1;
nodes = (
"289 74 CURVE SMOOTH",
"418 74 OFFCURVE",
"484 170 OFFCURVE",
"466 296 CURVE",
"433 309 LINE",
"433 251 OFFCURVE",
"394 214 OFFCURVE",
"335 214 CURVE SMOOTH",
"274 214 OFFCURVE",
"239 251 OFFCURVE",
"239 308 CURVE SMOOTH",
"239 365 OFFCURVE",
"274 402 OFFCURVE",
"335 402 CURVE SMOOTH",
"394 402 OFFCURVE",
"433 366 OFFCURVE",
"433 308 CURVE",
"466 320 LINE",
"487 443 OFFCURVE",
"418 542 OFFCURVE",
"289 542 CURVE SMOOTH",
"151 542 OFFCURVE",
"74 433 OFFCURVE",
"74 308 CURVE SMOOTH",
"74 183 OFFCURVE",
"151 74 OFFCURVE"
);
},
{
closed = 1;
nodes = (
"645 93 LINE",
"800 60 OFFCURVE",
"934 141 OFFCURVE",
"934 308 CURVE SMOOTH",
"934 433 OFFCURVE",
"862 542 OFFCURVE",
"724 542 CURVE SMOOTH",
"595 542 OFFCURVE",
"536 443 OFFCURVE",
"557 320 CURVE",
"590 299 LINE",
"590 360 OFFCURVE",
"622 402 OFFCURVE",
"678 402 CURVE SMOOTH",
"740 402 OFFCURVE",
"769 361 OFFCURVE",
"769 308 CURVE SMOOTH",
"769 246 OFFCURVE",
"729 207 OFFCURVE",
"644 222 CURVE"
);
},
{
closed = 1;
nodes = (
"1007 740 LINE",
"-20 740 LINE",
"-20 600 LINE",
"433 600 LINE",
"433 0 LINE",
"590 0 LINE",
"590 600 LINE",
"1007 600 LINE"
);
}
);
width = 987;
},
{
anchors = (
{
name = abvm.e;
position = "{617.241, 740}";
},
{
name = blwm.u;
position = "{486.759, 0}";
},
{
name = blwm.virama;
position = "{486.759, 0}";
}
);
layerId = "3C02C8EC-C43C-4762-8B99-FE4CB64E6532";
paths = (
{
closed = 1;
nodes = (
"266.979 109 CURVE SMOOTH",
"421.979 109 OFFCURVE",
"502.433 225 OFFCURVE",
"512.005 336 CURVE",
"481.534 339 LINE",
"463.372 236 OFFCURVE",
"395.558 169 OFFCURVE",
"287.558 169 CURVE SMOOTH",
"180.558 169 OFFCURVE",
"128.314 230 OFFCURVE",
"147.534 339 CURVE",
"166.577 447 OFFCURVE",
"237.686 510 OFFCURVE",
"345.686 510 CURVE SMOOTH",
"450.686 510 OFFCURVE",
"500.577 447 OFFCURVE",
"481.534 339 CURVE",
"513.063 342 LINE",
"542.988 455 OFFCURVE",
"501.265 570 OFFCURVE",
"348.265 570 CURVE SMOOTH",
"213.265 570 OFFCURVE",
"106.691 476 OFFCURVE",
"82.534 339 CURVE",
"58.377 202 OFFCURVE",
"133.979 109 OFFCURVE"
);
},
{
closed = 1;
nodes = (
"620.86 114 LINE",
"779.392 100 OFFCURVE",
"910.085 189 OFFCURVE",
"936.534 339 CURVE SMOOTH",
"960.514 475 OFFCURVE",
"891.442 571 OFFCURVE",
"754.442 571 CURVE SMOOTH",
"603.442 571 OFFCURVE",
"525.106 450 OFFCURVE",
"516.065 325 CURVE",
"543.007 319 LINE",
"563.99 438 OFFCURVE",
"627.862 511 OFFCURVE",
"733.862 511 CURVE SMOOTH",
"842.862 511 OFFCURVE",
"890.401 446 OFFCURVE",
"871.534 339 CURVE SMOOTH",
"850.198 218 OFFCURVE",
"749.677 164 OFFCURVE",
"631.44 174 CURVE"
);
},
{
closed = 1;
nodes = (
"1123.241 740 LINE",
"25.241 740 LINE",
"14.661 680 LINE",
"541.661 680 LINE",
"421.759 0 LINE",
"486.759 0 LINE",
"546.71 340 OFFCURVE",
"606.661 680 OFFCURVE",
"606.661 680 CURVE",
"1112.661 680 LINE"
);
}
);
width = 1018;
},
{
anchors = (
{
name = abvm.e;
position = "{655.241, 740}";
},
{
name = blwm.u;
position = "{524.759, 0}";
},
{
name = blwm.virama;
position = "{524.759, 0}";
}
);
layerId = "AD4288EF-621A-4539-AF14-1A70F42B46A9";
paths = (
{
closed = 1;
nodes = (
"236.807 74 CURVE SMOOTH",
"365.807 74 OFFCURVE",
"448.735 170 OFFCURVE",
"452.952 296 CURVE",
"422.244 309 LINE",
"412.017 251 OFFCURVE",
"366.493 214 OFFCURVE",
"307.493 214 CURVE SMOOTH",
"246.493 214 OFFCURVE",
"218.017 251 OFFCURVE",
"228.068 308 CURVE SMOOTH",
"238.118 365 OFFCURVE",
"279.642 402 OFFCURVE",
"340.642 402 CURVE SMOOTH",
"399.642 402 OFFCURVE",
"432.295 366 OFFCURVE",
"422.068 308 CURVE",
"457.184 320 LINE",
"499.872 443 OFFCURVE",
"448.328 542 OFFCURVE",
"319.328 542 CURVE SMOOTH",
"181.328 542 OFFCURVE",
"85.109 433 OFFCURVE",
"63.068 308 CURVE SMOOTH",
"41.027 183 OFFCURVE",
"98.807 74 OFFCURVE"
);
},
{
closed = 1;
nodes = (
"596.157 93 LINE",
"745.339 60 OFFCURVE",
"893.621 141 OFFCURVE",
"923.068 308 CURVE SMOOTH",
"945.109 433 OFFCURVE",
"892.328 542 OFFCURVE",
"754.328 542 CURVE SMOOTH",
"625.328 542 OFFCURVE",
"548.872 443 OFFCURVE",
"548.184 320 CURVE",
"577.481 299 LINE",
"588.237 360 OFFCURVE",
"627.642 402 OFFCURVE",
"683.642 402 CURVE SMOOTH",
"745.642 402 OFFCURVE",
"767.413 361 OFFCURVE",
"758.068 308 CURVE SMOOTH",
"747.135 246 OFFCURVE",
"700.259 207 OFFCURVE",
"617.904 222 CURVE"
);
},
{
closed = 1;
nodes = (
"1072.241 740 LINE",
"45.241 740 LINE",
"20.555 600 LINE",
"473.555 600 LINE",
"367.759 0 LINE",
"524.759 0 LINE",
"630.555 600 LINE",
"1047.555 600 LINE"
);
}
);
width = 987;
}
);
},
{
glyphname = dvKHA;
lastChange = "2017-08-08 23:18:27 +0000";
layers = (
{
layerId = "C0ED9D5D-A651-429A-8F5D-D93A2EDA2DC0";
paths = (
{
closed = 1;
nodes = (
"150 353 LINE",
"295 353 OFFCURVE",
"337 399 OFFCURVE",
"337 581 CURVE SMOOTH",
"337 687 LINE",
"273 690 LINE",
"273 582 LINE SMOOTH",
"273 416 OFFCURVE",
"253 407 OFFCURVE",
"122 407 CURVE SMOOTH",
"85 407 LINE",
"85 228 LINE SMOOTH",
"85 84 OFFCURVE",
"178 -1 OFFCURVE",
"320 -1 CURVE SMOOTH",
"447 -1 OFFCURVE",
"546 64 OFFCURVE",
"556 190 CURVE",
"490 190 LINE",
"484 106 OFFCURVE",
"419 59 OFFCURVE",
"320 59 CURVE SMOOTH",
"206 59 OFFCURVE",
"150 113 OFFCURVE",
"150 230 CURVE SMOOTH"
);
},
{
closed = 1;
nodes = (
"596 493 CURVE SMOOTH",
"684 493 OFFCURVE",
"740 437 OFFCURVE",
"740 349 CURVE",
"771 355 LINE",
"781 462 OFFCURVE",
"733 553 OFFCURVE",
"586 553 CURVE SMOOTH",
"467 553 OFFCURVE",
"384 469 OFFCURVE",
"384 349 CURVE SMOOTH",
"384 229 OFFCURVE",
"467 145 OFFCURVE",
"586 145 CURVE SMOOTH",
"723 145 OFFCURVE",
"781 236 OFFCURVE",
"771 343 CURVE",
"740 349 LINE",
"740 261 OFFCURVE",
"684 205 OFFCURVE",
"596 205 CURVE SMOOTH",
"508 205 OFFCURVE",
"449 261 OFFCURVE",
"449 349 CURVE SMOOTH",
"449 437 OFFCURVE",
"508 493 OFFCURVE"
);
},
{
closed = 1;
nodes = (
"740 0 LINE",
"805 0 LINE",
"805 340 OFFCURVE",
"805 680 OFFCURVE",
"805 680 CURVE",
"945 680 LINE",
"945 740 LINE",
"-40 740 LINE",
"-40 680 LINE",
"740 680 LINE"
);
}
);
width = 905;
},
{
layerId = "22D14058-393A-410A-BECB-F56B411A01B2";
paths = (
{
closed = 1;
nodes = (
"237 297 LINE",
"382 317 OFFCURVE",
"408 391 OFFCURVE",
"408 592 CURVE SMOOTH",
"408 610 LINE",
"408 610 OFFCURVE",
"243 610 OFFCURVE",
"243 610 CURVE",
"243 591 LINE SMOOTH",
"243 441 OFFCURVE",
"219 410 OFFCURVE",
"95 407 CURVE SMOOTH",
"87 407 OFFCURVE",
"79 407 OFFCURVE",
"71 407 CURVE",
"71 276 LINE SMOOTH",
"71 96 OFFCURVE",
"180 -4 OFFCURVE",
"353 -4 CURVE SMOOTH",
"515 -4 OFFCURVE",
"632 89 OFFCURVE",
"623 242 CURVE",
"471 242 LINE",
"469 177 OFFCURVE",
"433 136 OFFCURVE",
"351 136 CURVE SMOOTH",
"269 136 OFFCURVE",
"237 187 OFFCURVE",
"237 258 CURVE SMOOTH"
);
},
{
closed = 1;
nodes = (
"648 403 CURVE SMOOTH",
"697 403 OFFCURVE",
"725 373 OFFCURVE",
"725 322 CURVE",
"751 343 LINE",
"774 454 OFFCURVE",
"711 529 OFFCURVE",
"605 529 CURVE SMOOTH",
"494 529 OFFCURVE",
"419 440 OFFCURVE",
"419 323 CURVE SMOOTH",
"419 207 OFFCURVE",
"492 116 OFFCURVE",
"605 116 CURVE SMOOTH",
"711 116 OFFCURVE",
"774 192 OFFCURVE",
"751 303 CURVE",
"725 324 LINE",
"725 273 OFFCURVE",
"694 243 OFFCURVE",
"648 243 CURVE SMOOTH",
"598 243 OFFCURVE",
"566 272 OFFCURVE",
"566 323 CURVE SMOOTH",
"566 373 OFFCURVE",
"598 403 OFFCURVE"
);
},
{
closed = 1;
nodes = (
"726 0 LINE",
"883 0 LINE",
"883 600 LINE",
"978 600 LINE",
"978 740 LINE",
"-20 740 LINE",
"-20 600 LINE",
"726 600 LINE"
);
}
);
width = 958;
},
{
layerId = "3C02C8EC-C43C-4762-8B99-FE4CB64E6532";
paths = (
{
closed = 1;
nodes = (
"147.091 353 LINE",
"292.091 353 OFFCURVE",
"342.202 399 OFFCURVE",
"374.293 581 CURVE SMOOTH",
"392.984 687 LINE",
"329.513 690 LINE",
"310.469 582 LINE SMOOTH",
"281.199 416 OFFCURVE",
"259.612 407 OFFCURVE",
"128.612 407 CURVE SMOOTH",
"91.612 407 LINE",
"60.05 228 LINE SMOOTH",
"34.659 84 OFFCURVE",
"112.671 -1 OFFCURVE",
"254.671 -1 CURVE SMOOTH",
"381.671 -1 OFFCURVE",
"492.132 64 OFFCURVE",
"524.349 190 CURVE",
"458.349 190 LINE",
"437.538 106 OFFCURVE",
"364.25 59 OFFCURVE",
"265.25 59 CURVE SMOOTH",
"151.25 59 OFFCURVE",
"104.772 113 OFFCURVE",
"125.402 230 CURVE SMOOTH"
);
},
{
closed = 1;
nodes = (
"617.776 493 CURVE SMOOTH",
"705.776 493 OFFCURVE",
"751.902 437 OFFCURVE",
"736.385 349 CURVE",
"768.443 355 LINE",
"797.31 462 OFFCURVE",
"765.356 553 OFFCURVE",
"618.356 553 CURVE SMOOTH",
"499.356 553 OFFCURVE",
"401.545 469 OFFCURVE",
"380.385 349 CURVE SMOOTH",
"359.226 229 OFFCURVE",
"427.415 145 OFFCURVE",
"546.415 145 CURVE SMOOTH",
"683.415 145 OFFCURVE",
"757.46 236 OFFCURVE",
"766.327 343 CURVE",
"736.385 349 LINE",
"720.869 261 OFFCURVE",
"654.994 205 OFFCURVE",
"566.994 205 CURVE SMOOTH",
"478.994 205 OFFCURVE",
"429.869 261 OFFCURVE",
"445.385 349 CURVE SMOOTH",
"460.902 437 OFFCURVE",
"529.776 493 OFFCURVE"
);
},
{
closed = 1;
nodes = (
"674.847 0 LINE",
"739.847 0 LINE",
"799.798 340 OFFCURVE",
"859.75 680 OFFCURVE",
"859.75 680 CURVE",
"999.75 680 LINE",
"1010.329 740 LINE",
"25.329 740 LINE",
"14.75 680 LINE",
"794.75 680 LINE"
);
}
);
width = 905;
},
{
layerId = "AD4288EF-621A-4539-AF14-1A70F42B46A9";
paths = (
{
closed = 1;
nodes = (
"224.481 297 LINE",
"373.007 317 OFFCURVE",
"412.056 391 OFFCURVE",
"447.497 592 CURVE SMOOTH",
"450.671 610 LINE",
"450.671 610 OFFCURVE",
"285.671 610 OFFCURVE",
"285.671 610 CURVE",
"282.321 591 LINE SMOOTH",
"255.872 441 OFFCURVE",
"226.406 410 OFFCURVE",
"101.877 407 CURVE SMOOTH",
"93.877 407 OFFCURVE",
"85.877 407 OFFCURVE",
"77.877 407 CURVE",
"54.778 276 LINE SMOOTH",
"23.039 96 OFFCURVE",
"114.406 -4 OFFCURVE",
"287.406 -4 CURVE SMOOTH",
"449.406 -4 OFFCURVE",
"582.805 89 OFFCURVE",
"600.783 242 CURVE",
"448.783 242 LINE",
"435.322 177 OFFCURVE",
"392.092 136 OFFCURVE",
"310.092 136 CURVE SMOOTH",
"228.092 136 OFFCURVE",
"205.085 187 OFFCURVE",
"217.604 258 CURVE SMOOTH"
);
},
{
closed = 1;
nodes = (
"654.171 403 CURVE SMOOTH",
"703.171 403 OFFCURVE",
"725.882 373 OFFCURVE",
"716.889 322 CURVE",
"746.592 343 LINE",
"789.164 454 OFFCURVE",
"739.389 529 OFFCURVE",
"633.389 529 CURVE SMOOTH",
"522.389 529 OFFCURVE",
"431.696 440 OFFCURVE",
"411.065 323 CURVE SMOOTH",
"390.611 207 OFFCURVE",
"447.566 116 OFFCURVE",
"560.566 116 CURVE SMOOTH",
"666.566 116 OFFCURVE",
"742.966 192 OFFCURVE",
"739.539 303 CURVE",
"717.242 324 LINE",
"708.249 273 OFFCURVE",
"671.959 243 OFFCURVE",
"625.959 243 CURVE SMOOTH",
"575.959 243 OFFCURVE",
"549.073 272 OFFCURVE",
"558.065 323 CURVE SMOOTH",
"566.882 373 OFFCURVE",
"604.171 403 OFFCURVE"
);
},
{
closed = 1;
nodes = (
"661.112 0 LINE",
"818.112 0 LINE",
"923.908 600 LINE",
"1018.908 600 LINE",
"1043.594 740 LINE",
"45.594 740 LINE",
"20.908 600 LINE",
"766.908 600 LINE"
);
}
);
width = 958;
}
);
},
{
glyphname = dvGA;
lastChange = "2017-08-08 23:18:27 +0000";
layers = (
{
layerId = "C0ED9D5D-A651-429A-8F5D-D93A2EDA2DC0";
paths = (
{
closed = 1;
nodes = (
"301 690 LINE",
"237 690 LINE",
"237 425 LINE",
"237 353 OFFCURVE",
"232 297 OFFCURVE",
"162 297 CURVE SMOOTH",
"92 297 OFFCURVE",
"86 353 OFFCURVE",
"86 425 CURVE",
"22 425 LINE",
"17 310 OFFCURVE",
"60 237 OFFCURVE",
"162 237 CURVE",
"268 237 OFFCURVE",
"301 304 OFFCURVE",
"301 425 CURVE"
);
},
{
closed = 1;
nodes = (
"727 680 CURVE",
"727 740 LINE",
"-40 740 LINE",
"-40 680 LINE",
"522 680 LINE",
"522 0 LINE",
"587 0 LINE",
"587 680 LINE",
"587 680 OFFCURVE",
"727 680 OFFCURVE"
);
}
);
width = 687;
},
{
layerId = "22D14058-393A-410A-BECB-F56B411A01B2";
paths = (
{
closed = 1;
nodes = (
"444 641 LINE",
"444 641 OFFCURVE",
"290 620 OFFCURVE",
"290 620 CURVE",
"290 401 LINE SMOOTH",
"290 356 OFFCURVE",
"292 305 OFFCURVE",
"247 305 CURVE SMOOTH",
"204 305 OFFCURVE",
"200 348 OFFCURVE",
"200 391 CURVE",
"36 391 LINE",
"34 241 OFFCURVE",
"97 165 OFFCURVE",
"243 165 CURVE SMOOTH",
"394 165 OFFCURVE",
"444 254 OFFCURVE",
"444 404 CURVE SMOOTH"
);
},
{
closed = 1;
nodes = (
"835 600 LINE",
"835 740 LINE",
"-20 740 LINE",
"-20 600 LINE",
"576 600 LINE",
"576 0 LINE",
"740 0 LINE",
"740 600 LINE"
);
}
);
width = 815;
},
{
layerId = "3C02C8EC-C43C-4762-8B99-FE4CB64E6532";
paths = (
{
closed = 1;
nodes = (
"357.425 690 LINE",
"293.425 690 LINE",
"246.698 425 LINE",
"234.002 353 OFFCURVE",
"219.128 297 OFFCURVE",
"149.128 297 CURVE SMOOTH",
"79.128 297 OFFCURVE",
"83.002 353 OFFCURVE",
"95.698 425 CURVE",
"31.698 425 LINE",
"6.42 310 OFFCURVE",
"36.549 237 OFFCURVE",
"138.549 237 CURVE",
"244.549 237 OFFCURVE",
"289.362 304 OFFCURVE",
"310.698 425 CURVE"
);
},
{
closed = 1;
nodes = (
"781.661 680 CURVE",
"792.241 740 LINE",
"25.241 740 LINE",
"14.661 680 LINE",
"576.661 680 LINE",
"456.759 0 LINE",
"521.759 0 LINE",
"641.661 680 LINE",
"641.661 680 OFFCURVE",
"781.661 680 OFFCURVE"
);
}
);
width = 687;
},
{
layerId = "AD4288EF-621A-4539-AF14-1A70F42B46A9";
paths = (
{
closed = 1;
nodes = (
"491.785 641 LINE",
"491.785 641 OFFCURVE",
"334.082 620 OFFCURVE",
"334.082 620 CURVE",
"295.466 401 LINE SMOOTH",
"287.531 356 OFFCURVE",
"280.539 305 OFFCURVE",
"235.539 305 CURVE SMOOTH",
"192.539 305 OFFCURVE",
"196.121 348 OFFCURVE",
"203.703 391 CURVE",
"39.703 391 LINE",
"11.254 241 OFFCURVE",
"60.853 165 OFFCURVE",
"206.853 165 CURVE SMOOTH",
"357.853 165 OFFCURVE",
"423.546 254 OFFCURVE",
"449.995 404 CURVE SMOOTH"
);
},
{
closed = 1;
nodes = (
"875.555 600 LINE",
"900.241 740 LINE",
"45.241 740 LINE",
"20.555 600 LINE",
"616.555 600 LINE",
"510.759 0 LINE",
"674.759 0 LINE",
"780.555 600 LINE"
);
}
);
width = 815;
}
);
},
{
glyphname = dvGHA;
lastChange = "2017-08-08 23:18:27 +0000";
layers = (
{
layerId = "C0ED9D5D-A651-429A-8F5D-D93A2EDA2DC0";
paths = (
{
closed = 1;
nodes = (
"734 740 LINE",
"-40 740 LINE",
"-40 680 LINE",
"734 680 LINE"
);
},
{
closed = 1;
nodes = (
"594 0 LINE",
"594 690 LINE",
"594 690 OFFCURVE",
"529 698 OFFCURVE",
"529 698 CURVE",
"529 0 LINE"
);
},
{
closed = 1;
nodes = (
"559 311 CURVE",
"529 355 LINE",
"529 240 OFFCURVE",
"432 170 OFFCURVE",
"316 170 CURVE",
"227 170 OFFCURVE",
"143 201 OFFCURVE",
"143 291 CURVE SMOOTH",
"143 379 OFFCURVE",
"217 416 OFFCURVE",
"306 416 CURVE SMOOTH",
"306 416 OFFCURVE",
"339 416 OFFCURVE",
"339 416 CURVE",
"339 416 OFFCURVE",
"339 475 OFFCURVE",
"339 475 CURVE",
"306 475 LINE SMOOTH",
"187 475 OFFCURVE",
"162 520 OFFCURVE",
"162 642 CURVE SMOOTH",
"162 680 LINE",
"96 693 LINE",
"96 642 LINE SMOOTH",
"96 546 OFFCURVE",
"107 484 OFFCURVE",
"182 451 CURVE",
"182 445 LINE",
"122 420 OFFCURVE",
"78 368 OFFCURVE",
"78 292 CURVE SMOOTH",
"78 170 OFFCURVE",
"186 110 OFFCURVE",
"306 110 CURVE SMOOTH",
"445 110 OFFCURVE",
"551 183 OFFCURVE"
);
}
);
width = 694;
},
{
layerId = "22D14058-393A-410A-BECB-F56B411A01B2";
paths = (
{
closed = 1;
nodes = (
"718 740 LINE",
"-20 740 LINE",
"-20 600 LINE",
"718 600 LINE"
);
},
{
closed = 1;
nodes = (
"623 0 LINE",
"623 622 LINE",
"623 622 OFFCURVE",
"458 622 OFFCURVE",
"458 622 CURVE",
"458 0 LINE"
);
},
{
closed = 1;
nodes = (
"506 262 CURVE",
"458 358 LINE",
"458 278 OFFCURVE",
"395 232 OFFCURVE",
"318 232 CURVE SMOOTH",
"273 232 OFFCURVE",
"231 250 OFFCURVE",
"231 295 CURVE SMOOTH",
"231 332 OFFCURVE",
"258 356 OFFCURVE",
"318 356 CURVE SMOOTH",
"369 356 LINE",
"369 488 LINE",
"321 488 LINE SMOOTH",
"253 488 OFFCURVE",
"243 533 OFFCURVE",
"243 602 CURVE SMOOTH",
"243 655 LINE",
"78 618 LINE",
"78 602 LINE SMOOTH",
"78 496 OFFCURVE",
"104 450 OFFCURVE",
"159 424 CURVE",
"159 418 LINE",
"110 397 OFFCURVE",
"66 350 OFFCURVE",
"66 278 CURVE SMOOTH",
"66 155 OFFCURVE",
"184 98 OFFCURVE",
"283 98 CURVE SMOOTH",
"406 98 OFFCURVE",
"482 153 OFFCURVE"
);
}
);
width = 698;
},
{
layerId = "3C02C8EC-C43C-4762-8B99-FE4CB64E6532";
paths = (
{
closed = 1;
nodes = (
"799.241 740 LINE",
"25.241 740 LINE",
"14.661 680 LINE",
"788.661 680 LINE"
);
},
{
closed = 1;
nodes = (
"528.759 0 LINE",
"650.425 690 LINE",
"650.425 690 OFFCURVE",
"586.835 698 OFFCURVE",
"586.835 698 CURVE",
"463.759 0 LINE"
);
},
{
closed = 1;
nodes = (
"548.597 311 CURVE",
"526.355 355 LINE",
"506.077 240 OFFCURVE",
"396.735 170 OFFCURVE",
"280.735 170 CURVE",
"191.735 170 OFFCURVE",
"113.201 201 OFFCURVE",
"129.07 291 CURVE SMOOTH",
"144.587 379 OFFCURVE",
"225.111 416 OFFCURVE",
"314.111 416 CURVE SMOOTH",
"314.111 416 OFFCURVE",
"347.111 416 OFFCURVE",
"347.111 416 CURVE",
"347.111 416 OFFCURVE",
"357.514 475 OFFCURVE",
"357.514 475 CURVE",
"324.514 475 LINE SMOOTH",
"205.514 475 OFFCURVE",
"188.449 520 OFFCURVE",
"209.961 642 CURVE SMOOTH",
"216.661 680 LINE",
"152.954 693 LINE",
"143.961 642 LINE SMOOTH",
"127.034 546 OFFCURVE",
"127.101 484 OFFCURVE",
"196.282 451 CURVE",
"195.225 445 LINE",
"130.816 420 OFFCURVE",
"77.647 368 OFFCURVE",
"64.246 292 CURVE SMOOTH",
"42.735 170 OFFCURVE",
"140.155 110 OFFCURVE",
"260.155 110 CURVE SMOOTH",
"399.155 110 OFFCURVE",
"518.027 183 OFFCURVE"
);
}
);
width = 694;
},
{
layerId = "AD4288EF-621A-4539-AF14-1A70F42B46A9";
paths = (
{
closed = 1;
nodes = (
"783.241 740 LINE",
"45.241 740 LINE",
"20.555 600 LINE",
"758.555 600 LINE"
);
},
{
closed = 1;
nodes = (
"557.759 0 LINE",
"667.434 622 LINE",
"667.434 622 OFFCURVE",
"502.434 622 OFFCURVE",
"502.434 622 CURVE",
"392.759 0 LINE"
);
},
{
closed = 1;
nodes = (
"486.957 262 CURVE",
"455.884 358 LINE",
"441.778 278 OFFCURVE",
"370.667 232 OFFCURVE",
"293.667 232 CURVE SMOOTH",
"248.667 232 OFFCURVE",
"209.841 250 OFFCURVE",
"217.775 295 CURVE SMOOTH",
"224.3 332 OFFCURVE",
"255.531 356 OFFCURVE",
"315.531 356 CURVE SMOOTH",
"366.531 356 LINE",
"389.807 488 LINE",
"341.807 488 LINE SMOOTH",
"273.807 488 OFFCURVE",
"271.741 533 OFFCURVE",
"283.908 602 CURVE SMOOTH",
"293.253 655 LINE",
"121.729 618 LINE",
"118.908 602 LINE SMOOTH",
"100.217 496 OFFCURVE",
"118.106 450 OFFCURVE",
"168.522 424 CURVE",
"167.464 418 LINE",
"114.761 397 OFFCURVE",
"62.473 350 OFFCURVE",
"49.778 278 CURVE SMOOTH",
"28.09 155 OFFCURVE",
"136.039 98 OFFCURVE",
"235.039 98 CURVE SMOOTH",
"358.039 98 OFFCURVE",
"443.737 153 OFFCURVE"
);
}
);
width = 698;
}
);
},
{
glyphname = dvNGA;
lastChange = "2017-08-08 23:18:27 +0000";
layers = (
{
anchors = (
{
name = abvm.e;
position = "{469, 740}";
},
{
name = blwm.u;
position = "{359, -108}";
},
{
name = blwm.virama;
position = "{360, -25}";
}
);
layerId = "C0ED9D5D-A651-429A-8F5D-D93A2EDA2DC0";
paths = (
{
closed = 1;
nodes = (
"685 680 LINE",
"685 740 LINE",
"-40 740 LINE",
"-40 680 LINE"
);
},
{
closed = 1;
nodes = (
"404 512 LINE",
"469 512 LINE",
"469 718 LINE",
"404 718 LINE"
);
},
{
closed = 1;
nodes = (
"82 202 LINE",
"84 66 OFFCURVE",
"179 -10 OFFCURVE",
"324 -10 CURVE SMOOTH",
"451 -10 OFFCURVE",
"529 63 OFFCURVE",
"529 156 CURVE SMOOTH",
"529 298 OFFCURVE",
"413 316 OFFCURVE",
"301 316 CURVE SMOOTH",
"222 316 OFFCURVE",
"162 329 OFFCURVE",
"162 410 CURVE SMOOTH",
"162 488 OFFCURVE",
"230 501 OFFCURVE",
"305 501 CURVE SMOOTH",
"469 501 LINE",
"469 531 LINE",
"469 561 LINE",
"304 561 LINE SMOOTH",
"200 561 OFFCURVE",
"97 531 OFFCURVE",
"97 410 CURVE SMOOTH",
"97 289 OFFCURVE",
"190 258 OFFCURVE",
"315 258 CURVE SMOOTH",
"388 258 OFFCURVE",
"464 252 OFFCURVE",
"464 162 CURVE SMOOTH",
"464 84 OFFCURVE",
"407 50 OFFCURVE",
"321 50 CURVE",
"203 50 OFFCURVE",
"152 110 OFFCURVE",
"146 202 CURVE"
);
},
{
closed = 1;
nodes = (
"566 335 CURVE SMOOTH",
"593 335 OFFCURVE",
"615 357 OFFCURVE",
"615 384 CURVE SMOOTH",
"615 411 OFFCURVE",
"593 433 OFFCURVE",
"566 433 CURVE SMOOTH",
"539 433 OFFCURVE",
"517 411 OFFCURVE",
"517 384 CURVE SMOOTH",
"517 357 OFFCURVE",
"539 335 OFFCURVE"
);
}
);
width = 645;
},
{
anchors = (
{
name = abvm.e;
position = "{475, 740}";
},
{
name = blwm.u;
position = "{418, -124}";
},
{
name = blwm.virama;
position = "{403, -39}";
}
);
layerId = "22D14058-393A-410A-BECB-F56B411A01B2";
paths = (
{
closed = 1;
nodes = (
"736 600 LINE",
"736 740 LINE",
"-20 740 LINE",
"-20 600 LINE"
);
},
{
closed = 1;
nodes = (
"310 496 LINE",
"475 496 LINE",
"475 718 LINE",
"310 718 LINE"
);
},
{
closed = 1;
nodes = (
"54 179 LINE",
"60 50 OFFCURVE",
"167 -20 OFFCURVE",
"305 -20 CURVE SMOOTH",
"451 -20 OFFCURVE",
"538 51 OFFCURVE",
"538 162 CURVE SMOOTH",
"538 304 OFFCURVE",
"426 336 OFFCURVE",
"321 336 CURVE",
"268 336 OFFCURVE",
"232 338 OFFCURVE",
"232 373 CURVE SMOOTH",
"232 403 OFFCURVE",
"267 411 OFFCURVE",
"320 411 CURVE SMOOTH",
"475 411 LINE",
"475 508 LINE",
"325 541 LINE",
"271 541 LINE SMOOTH",
"162 541 OFFCURVE",
"66 494 OFFCURVE",
"66 384 CURVE SMOOTH",
"66 228 OFFCURVE",
"194 210 OFFCURVE",
"285 210 CURVE SMOOTH",
"344 210 OFFCURVE",
"376 199 OFFCURVE",
"376 159 CURVE SMOOTH",
"376 122 OFFCURVE",
"346 107 OFFCURVE",
"305 107 CURVE SMOOTH",
"256 107 OFFCURVE",
"220 130 OFFCURVE",
"216 179 CURVE"
);
},
{
closed = 1;
nodes = (
"602 270 CURVE SMOOTH",
"650 270 OFFCURVE",
"688 309 OFFCURVE",
"688 356 CURVE SMOOTH",
"688 404 OFFCURVE",
"650 442 OFFCURVE",
"602 442 CURVE SMOOTH",
"555 442 OFFCURVE",
"516 404 OFFCURVE",
"516 356 CURVE SMOOTH",
"516 309 OFFCURVE",
"555 270 OFFCURVE"
);
}
);
width = 716;
},
{
anchors = (
{
name = abvm.e;
position = "{535.123, 740}";
},
{
name = blwm.u;
position = "{275.597, -108}";
},
{
name = blwm.virama;
position = "{291.232, -25}";
}
);
layerId = "3C02C8EC-C43C-4762-8B99-FE4CB64E6532";
paths = (
{
closed = 1;
nodes = (
"740.543 680 LINE",
"751.123 740 LINE",
"26.123 740 LINE",
"15.543 680 LINE"
);
},
{
closed = 1;
nodes = (
"429.92 512 LINE",
"494.92 512 LINE",
"531.243 718 LINE",
"466.243 718 LINE"
);
},
{
closed = 1;
nodes = (
"53.259 202 LINE",
"31.278 66 OFFCURVE",
"112.877 -10 OFFCURVE",
"257.877 -10 CURVE SMOOTH",
"384.877 -10 OFFCURVE",
"475.749 63 OFFCURVE",
"492.148 156 CURVE SMOOTH",
"517.186 298 OFFCURVE",
"404.36 316 OFFCURVE",
"292.36 316 CURVE SMOOTH",
"213.36 316 OFFCURVE",
"155.652 329 OFFCURVE",
"169.935 410 CURVE SMOOTH",
"183.688 488 OFFCURVE",
"253.98 501 OFFCURVE",
"328.98 501 CURVE SMOOTH",
"492.98 501 LINE",
"498.27 531 LINE",
"503.56 561 LINE",
"338.56 561 LINE SMOOTH",
"234.56 561 OFFCURVE",
"126.27 531 OFFCURVE",
"104.935 410 CURVE SMOOTH",
"83.599 289 OFFCURVE",
"171.133 258 OFFCURVE",
"296.133 258 CURVE SMOOTH",
"369.133 258 OFFCURVE",
"444.075 252 OFFCURVE",
"428.206 162 CURVE SMOOTH",
"414.452 84 OFFCURVE",
"351.457 50 OFFCURVE",
"265.457 50 CURVE",
"147.457 50 OFFCURVE",
"107.037 110 OFFCURVE",
"117.259 202 CURVE"
);
},
{
closed = 1;
nodes = (
"560.71 335 CURVE SMOOTH",
"587.71 335 OFFCURVE",
"613.589 357 OFFCURVE",
"618.35 384 CURVE SMOOTH",
"623.111 411 OFFCURVE",
"604.99 433 OFFCURVE",
"577.99 433 CURVE SMOOTH",
"550.99 433 OFFCURVE",
"525.111 411 OFFCURVE",
"520.35 384 CURVE SMOOTH",
"515.589 357 OFFCURVE",
"533.71 335 OFFCURVE"
);
}
);
width = 645;
},
{
anchors = (
{
name = abvm.e;
position = "{542.004, 740}";
},
{
name = blwm.u;
position = "{332.658, -124}";
},
{
name = blwm.virama;
position = "{332.646, -39}";
}
);
layerId = "AD4288EF-621A-4539-AF14-1A70F42B46A9";
paths = (
{
closed = 1;
nodes = (
"778.318 600 LINE",
"803.004 740 LINE",
"47.004 740 LINE",
"22.318 600 LINE"
);
},
{
closed = 1;
nodes = (
"333.98 496 LINE",
"498.98 496 LINE",
"538.125 718 LINE",
"373.125 718 LINE"
);
},
{
closed = 1;
nodes = (
"22.085 179 LINE",
"5.339 50 OFFCURVE",
"99.996 -20 OFFCURVE",
"237.996 -20 CURVE SMOOTH",
"383.996 -20 OFFCURVE",
"483.515 51 OFFCURVE",
"503.087 162 CURVE SMOOTH",
"528.126 304 OFFCURVE",
"421.768 336 OFFCURVE",
"316.768 336 CURVE",
"263.768 336 OFFCURVE",
"228.121 338 OFFCURVE",
"234.292 373 CURVE SMOOTH",
"239.582 403 OFFCURVE",
"275.993 411 OFFCURVE",
"328.993 411 CURVE SMOOTH",
"483.993 411 LINE",
"501.096 508 LINE",
"356.915 541 LINE",
"302.915 541 LINE SMOOTH",
"193.915 541 OFFCURVE",
"89.628 494 OFFCURVE",
"70.232 384 CURVE SMOOTH",
"42.725 228 OFFCURVE",
"167.551 210 OFFCURVE",
"258.551 210 CURVE SMOOTH",
"317.551 210 OFFCURVE",
"347.611 199 OFFCURVE",
"340.558 159 CURVE SMOOTH",
"334.034 122 OFFCURVE",
"301.389 107 OFFCURVE",
"260.389 107 CURVE SMOOTH",
"211.389 107 OFFCURVE",
"179.445 130 OFFCURVE",
"184.085 179 CURVE"
);
},
{
closed = 1;
nodes = (
"586.131 270 CURVE SMOOTH",
"634.131 270 OFFCURVE",
"679.007 309 OFFCURVE",
"687.295 356 CURVE SMOOTH",
"695.758 404 OFFCURVE",
"664.459 442 OFFCURVE",
"616.459 442 CURVE SMOOTH",
"569.459 442 OFFCURVE",
"523.758 404 OFFCURVE",
"515.295 356 CURVE SMOOTH",
"507.007 309 OFFCURVE",
"539.131 270 OFFCURVE"
);
}
);
width = 716;
}
);
},
{
glyphname = dvCA;
lastChange = "2017-08-08 23:18:27 +0000";
layers = (
{
layerId = "C0ED9D5D-A651-429A-8F5D-D93A2EDA2DC0";
paths = (
{
closed = 1;
nodes = (
"411 531 LINE",
"49 531 LINE",
"49 474 LINE",
"411 474 LINE"
);
},
{
closed = 1;
nodes = (
"555 345 LINE",
"555 246 OFFCURVE",
"481 164 OFFCURVE",
"380 164 CURVE SMOOTH",
"280 164 OFFCURVE",
"208 218 OFFCURVE",
"208 315 CURVE SMOOTH",
"208 416 OFFCURVE",
"277 474 OFFCURVE",
"385 474 CURVE",
"374 503 LINE",
"242 513 OFFCURVE",
"143 443 OFFCURVE",
"143 312 CURVE SMOOTH",
"143 188 OFFCURVE",
"245 104 OFFCURVE",
"370 104 CURVE SMOOTH",
"518 104 OFFCURVE",
"568 205 OFFCURVE",
"576 257 CURVE"
);
},
{
closed = 1;
nodes = (
"555 0 LINE",
"620 0 LINE",
"620 680 LINE",
"620 680 OFFCURVE",
"760 680 OFFCURVE",
"760 680 CURVE",
"760 740 LINE",
"-40 740 LINE",
"-40 680 LINE",
"-40 680 OFFCURVE",
"555 680 OFFCURVE",
"555 680 CURVE"
);
}
);
width = 720;
},
{
layerId = "22D14058-393A-410A-BECB-F56B411A01B2";
paths = (
{
closed = 1;
nodes = (
"421 511 LINE",
"50 511 LINE",
"50 382 LINE",
"50 382 OFFCURVE",
"421 382 OFFCURVE",
"421 382 CURVE"
);
},
{
closed = 1;
nodes = (
"513 369 LINE",
"513 279 OFFCURVE",
"469 218 OFFCURVE",
"391 218 CURVE SMOOTH",
"333 218 OFFCURVE",
"289 246 OFFCURVE",
"289 302 CURVE SMOOTH",
"289 355 OFFCURVE",
"332 382 OFFCURVE",
"381 382 CURVE",
"329 433 LINE",
"246 451 OFFCURVE",
"135 390 OFFCURVE",
"135 272 CURVE SMOOTH",
"135 150 OFFCURVE",
"236 82 OFFCURVE",
"358 82 CURVE SMOOTH",
"503 82 OFFCURVE",
"563 177 OFFCURVE",
"553 311 CURVE"
);
},
{
closed = 1;
nodes = (
"513 0 LINE",
"678 0 LINE",
"678 600 LINE",
"773 600 LINE",
"773 740 LINE",
"-20 740 LINE",
"-20 600 LINE",
"513 600 LINE"
);
}
);
width = 753;
},
{
layerId = "3C02C8EC-C43C-4762-8B99-FE4CB64E6532";
paths = (
{
closed = 1;
nodes = (
"439.389 531 LINE",
"77.389 531 LINE",
"67.338 474 LINE",
"429.338 474 LINE"
);
},
{
closed = 1;
nodes = (
"550.592 345 LINE",
"533.135 246 OFFCURVE",
"444.677 164 OFFCURVE",
"343.677 164 CURVE SMOOTH",
"243.677 164 OFFCURVE",
"181.198 218 OFFCURVE",
"198.302 315 CURVE SMOOTH",
"216.111 416 OFFCURVE",
"295.338 474 OFFCURVE",
"403.338 474 CURVE",
"397.451 503 LINE",
"267.215 513 OFFCURVE",
"155.872 443 OFFCURVE",
"132.773 312 CURVE SMOOTH",
"110.908 188 OFFCURVE",
"198.097 104 OFFCURVE",
"323.097 104 CURVE SMOOTH",
"471.097 104 OFFCURVE",
"538.906 205 OFFCURVE",
"556.075 257 CURVE"
);
},
{
closed = 1;
nodes = (
"489.759 0 LINE",
"554.759 0 LINE",
"674.661 680 LINE",
"674.661 680 OFFCURVE",
"814.661 680 OFFCURVE",
"814.661 680 CURVE",
"825.241 740 LINE",
"25.241 740 LINE",
"14.661 680 LINE",
"14.661 680 OFFCURVE",
"609.661 680 OFFCURVE",
"609.661 680 CURVE"
);
}
);
width = 720;
},
{
layerId = "AD4288EF-621A-4539-AF14-1A70F42B46A9";
paths = (
{
closed = 1;
nodes = (
"445.862 511 LINE",
"74.862 511 LINE",
"52.116 382 LINE",
"52.116 382 OFFCURVE",
"423.116 382 OFFCURVE",
"423.116 382 CURVE"
);
},
{
closed = 1;
nodes = (
"512.824 369 LINE",
"496.954 279 OFFCURVE",
"442.198 218 OFFCURVE",
"364.198 218 CURVE SMOOTH",
"306.198 218 OFFCURVE",
"267.135 246 OFFCURVE",
"277.01 302 CURVE SMOOTH",
"286.355 355 OFFCURVE",
"334.116 382 OFFCURVE",
"383.116 382 CURVE",
"340.109 433 LINE",
"260.282 451 OFFCURVE",
"138.527 390 OFFCURVE",
"117.72 272 CURVE SMOOTH",
"96.208 150 OFFCURVE",
"185.218 82 OFFCURVE",
"307.218 82 CURVE SMOOTH",
"452.218 82 OFFCURVE",
"528.969 177 OFFCURVE",
"542.597 311 CURVE"
);
},
{
closed = 1;
nodes = (
"447.759 0 LINE",
"612.759 0 LINE",
"718.555 600 LINE",
"813.555 600 LINE",
"838.241 740 LINE",
"45.241 740 LINE",
"20.555 600 LINE",
"553.555 600 LINE"
);
}
);
width = 753;
}
);
},
{
glyphname = dvCHA;
lastChange = "2017-08-08 23:18:27 +0000";
layers = (
{
anchors = (
{
name = abvm.e;
position = "{632, 740}";
},
{
name = blwm.u;
position = "{489, -83}";
},
{
name = blwm.virama;
position = "{444, -11}";
}
);
layerId = "C0ED9D5D-A651-429A-8F5D-D93A2EDA2DC0";
paths = (
{
closed = 1;
nodes = (
"857 680 LINE",
"857 740 LINE",
"-40 740 LINE",
"-40 680 LINE"
);
},
{
closed = 1;
nodes = (
"632 680 LINE",
"632 680 OFFCURVE",
"567 680 OFFCURVE",
"567 680 CURVE",
"567 680 OFFCURVE",
"567 556 OFFCURVE",
"567 556 CURVE",
"567 556 OFFCURVE",
"632 539 OFFCURVE",
"632 539 CURVE"
);
},
{
closed = 1;
nodes = (
"588 514 CURVE SMOOTH",
"654 514 OFFCURVE",
"706 472 OFFCURVE",
"706 354 CURVE SMOOTH",
"706 171 OFFCURVE",
"580 92 OFFCURVE",
"409 92 CURVE SMOOTH",
"280 92 OFFCURVE",
"145 126 OFFCURVE",
"145 249 CURVE SMOOTH",
"145 342 OFFCURVE",
"216 386 OFFCURVE",
"320 386 CURVE",
"320 386 OFFCURVE",
"332 386 OFFCURVE",
"332 386 CURVE",
"332 386 OFFCURVE",
"332 446 OFFCURVE",
"332 446 CURVE",
"320 446 LINE SMOOTH",
"190 446 OFFCURVE",
"168 497 OFFCURVE",
"168 628 CURVE SMOOTH",
"168 680 LINE",
"103 690 LINE",
"103 634 LINE SMOOTH",
"103 516 OFFCURVE",
"118 447 OFFCURVE",
"200 422 CURVE",
"200 416 LINE",
"129 390 OFFCURVE",
"81 334 OFFCURVE",
"81 250 CURVE SMOOTH",
"81 90 OFFCURVE",
"240 32 OFFCURVE",
"409 32 CURVE SMOOTH",
"626 32 OFFCURVE",
"766 152 OFFCURVE",
"766 347 CURVE SMOOTH",
"766 484 OFFCURVE",
"699 574 OFFCURVE",
"588 574 CURVE",
"466 571 OFFCURVE",
"407 486 OFFCURVE",
"409 310 CURVE",
"469 310 LINE",
"467 489 OFFCURVE",
"523 514 OFFCURVE"
);
}
);
width = 817;
},
{
anchors = (
{
name = abvm.e;
position = "{676, 740}";
},
{
name = blwm.u;
position = "{529, -91}";
},
{
name = blwm.virama;
position = "{529, -12}";
}
);
layerId = "22D14058-393A-410A-BECB-F56B411A01B2";
paths = (
{
closed = 1;
nodes = (
"850 600 LINE",
"850 740 LINE",
"-20 740 LINE",
"-20 600 LINE"
);
},
{
closed = 1;
nodes = (
"676 600 LINE",
"676 600 OFFCURVE",
"521 600 OFFCURVE",
"521 600 CURVE",
"518 441 LINE",
"676 441 LINE"
);
},
{
closed = 1;
nodes = (
"583 422 CURVE SMOOTH",
"623 422 OFFCURVE",
"639 382 OFFCURVE",
"639 334 CURVE SMOOTH",
"639 218 OFFCURVE",
"557 167 OFFCURVE",
"409 167 CURVE SMOOTH",
"320 167 OFFCURVE",
"242 196 OFFCURVE",
"242 258 CURVE SMOOTH",
"242 306 OFFCURVE",
"280 332 OFFCURVE",
"323 332 CURVE SMOOTH",
"344 332 LINE",
"344 464 LINE",
"330 464 LINE SMOOTH",
"258 464 OFFCURVE",
"247 505 OFFCURVE",
"247 590 CURVE SMOOTH",
"247 618 LINE",
"82 618 LINE",
"82 591 LINE SMOOTH",
"82 493 OFFCURVE",
"101 432 OFFCURVE",
"170 400 CURVE",
"170 394 LINE",
"112 366 OFFCURVE",
"75 312 OFFCURVE",
"75 238 CURVE SMOOTH",
"75 94 OFFCURVE",
"242 30 OFFCURVE",
"413 30 CURVE SMOOTH",
"665 30 OFFCURVE",
"778 151 OFFCURVE",
"778 332 CURVE SMOOTH",
"778 463 OFFCURVE",
"714 543 OFFCURVE",
"578 543 CURVE SMOOTH",
"448 543 OFFCURVE",
"371 495 OFFCURVE",
"387 262 CURVE",
"387 262 OFFCURVE",
"524 262 OFFCURVE",
"524 262 CURVE",
"519 376 OFFCURVE",
"531 422 OFFCURVE"
);
}
);
width = 830;
},
{
anchors = (
{
name = abvm.e;
position = "{694.42, 740}";
},
{
name = blwm.u;
position = "{406.303, -83}";
},
{
name = blwm.virama;
position = "{373.998, -11}";
}
);
layerId = "3C02C8EC-C43C-4762-8B99-FE4CB64E6532";
paths = (
{
closed = 1;
nodes = (
"908.84 680 LINE",
"919.42 740 LINE",
"22.42 740 LINE",
"11.84 680 LINE"
);
},
{
closed = 1;
nodes = (
"683.84 680 LINE",
"683.84 680 OFFCURVE",
"618.84 680 OFFCURVE",
"618.84 680 CURVE",
"618.84 680 OFFCURVE",
"596.976 556 OFFCURVE",
"596.976 556 CURVE",
"596.976 556 OFFCURVE",
"658.978 539 OFFCURVE",
"658.978 539 CURVE"
);
},
{
closed = 1;
nodes = (
"610.57 514 CURVE SMOOTH",
"676.57 514 OFFCURVE",
"721.164 472 OFFCURVE",
"700.358 354 CURVE SMOOTH",
"668.09 171 OFFCURVE",
"528.16 92 OFFCURVE",
"357.16 92 CURVE SMOOTH",
"228.16 92 OFFCURVE",
"99.155 126 OFFCURVE",
"120.843 249 CURVE SMOOTH",
"137.242 342 OFFCURVE",
"216 386 OFFCURVE",
"320 386 CURVE",
"320 386 OFFCURVE",
"332 386 OFFCURVE",
"332 386 CURVE",
"332 386 OFFCURVE",
"342.58 446 OFFCURVE",
"342.58 446 CURVE",
"330.58 446 LINE SMOOTH",
"200.58 446 OFFCURVE",
"187.572 497 OFFCURVE",
"210.671 628 CURVE SMOOTH",
"219.84 680 LINE",
"156.603 690 LINE",
"146.729 634 LINE SMOOTH",
"125.923 516 OFFCURVE",
"128.756 447 OFFCURVE",
"206.348 422 CURVE",
"205.29 416 LINE",
"129.705 390 OFFCURVE",
"71.831 334 OFFCURVE",
"57.02 250 CURVE SMOOTH",
"28.807 90 OFFCURVE",
"177.58 32 OFFCURVE",
"346.58 32 CURVE SMOOTH",
"563.58 32 OFFCURVE",
"724.74 152 OFFCURVE",
"759.123 347 CURVE SMOOTH",
"783.28 484 OFFCURVE",
"732.149 574 OFFCURVE",
"621.149 574 CURVE",
"498.62 571 OFFCURVE",
"424.633 486 OFFCURVE",
"395.599 310 CURVE",
"455.599 310 LINE",
"485.162 489 OFFCURVE",
"545.57 514 OFFCURVE"
);
}
);
width = 817;
},
{
anchors = (
{
name = abvm.e;
position = "{738.596, 740}";
},
{
name = blwm.u;
position = "{445.068, -91}";
},
{
name = blwm.virama;
position = "{458.998, -12}";
}
);
layerId = "AD4288EF-621A-4539-AF14-1A70F42B46A9";
paths = (
{
closed = 1;
nodes = (
"887.91 600 LINE",
"912.596 740 LINE",
"42.596 740 LINE",
"17.91 600 LINE"
);
},
{
closed = 1;
nodes = (
"713.91 600 LINE",
"713.91 600 OFFCURVE",
"558.91 600 OFFCURVE",
"558.91 600 CURVE",
"527.874 441 LINE",
"685.874 441 LINE"
);
},
{
closed = 1;
nodes = (
"589.524 422 CURVE SMOOTH",
"629.524 422 OFFCURVE",
"638.471 382 OFFCURVE",
"630.007 334 CURVE SMOOTH",
"609.553 218 OFFCURVE",
"518.561 167 OFFCURVE",
"370.561 167 CURVE SMOOTH",
"281.561 167 OFFCURVE",
"208.674 196 OFFCURVE",
"219.606 258 CURVE SMOOTH",
"228.07 306 OFFCURVE",
"270.655 332 OFFCURVE",
"313.655 332 CURVE SMOOTH",
"334.655 332 LINE",
"357.93 464 LINE",
"343.93 464 LINE SMOOTH",
"271.93 464 OFFCURVE",
"268.159 505 OFFCURVE",
"283.147 590 CURVE SMOOTH",
"288.084 618 LINE",
"123.084 618 LINE",
"118.323 591 LINE SMOOTH",
"101.043 493 OFFCURVE",
"109.287 432 OFFCURVE",
"172.645 400 CURVE",
"171.587 394 LINE",
"108.65 366 OFFCURVE",
"62.128 312 OFFCURVE",
"49.08 238 CURVE SMOOTH",
"23.689 94 OFFCURVE",
"179.404 30 OFFCURVE",
"350.404 30 CURVE SMOOTH",
"602.404 30 OFFCURVE",
"736.74 151 OFFCURVE",
"768.655 332 CURVE SMOOTH",
"791.753 463 OFFCURVE",
"741.86 543 OFFCURVE",
"605.86 543 CURVE SMOOTH",
"475.86 543 OFFCURVE",
"390.396 495 OFFCURVE",
"365.312 262 CURVE",
"365.312 262 OFFCURVE",
"502.312 262 OFFCURVE",
"502.312 262 CURVE",
"517.413 376 OFFCURVE",
"537.524 422 OFFCURVE"
);
}
);
width = 830;
}
);
},
{
glyphname = dvJA;
lastChange = "2017-08-08 23:18:27 +0000";
layers = (
{
layerId = "C0ED9D5D-A651-429A-8F5D-D93A2EDA2DC0";
paths = (
{
closed = 1;
nodes = (
"139 398 CURVE SMOOTH",
"139 518 LINE",
"74 518 LINE",
"74 376 LINE SMOOTH",
"74 231 OFFCURVE",
"96 106 OFFCURVE",
"263 106 CURVE SMOOTH",
"430 106 OFFCURVE",
"452 231 OFFCURVE",
"452 376 CURVE SMOOTH",
"452 518 LINE",
"387 518 LINE",
"387 398 LINE SMOOTH",
"387 265 OFFCURVE",
"387 166 OFFCURVE",
"263 166 CURVE SMOOTH",
"139 166 OFFCURVE",
"139 265 OFFCURVE"
);
},
{
closed = 1;
nodes = (
"654 460 LINE",
"654 0 LINE",
"719 0 LINE",
"719 680 LINE",
"859 680 LINE",
"859 740 LINE",
"-40 740 LINE",
"-40 680 LINE",
"654 680 LINE",
"654 518 LINE",
"392 518 LINE",
"392 460 LINE"
);
}
);
width = 819;
},
{
layerId = "22D14058-393A-410A-BECB-F56B411A01B2";
paths = (
{
closed = 1;
nodes = (
"211 357 CURVE",
"211 497 LINE",
"47 497 LINE",
"47 330 LINE",
"47 204 OFFCURVE",
"112 96 OFFCURVE",
"287 96 CURVE SMOOTH",
"442 96 OFFCURVE",
"513 178 OFFCURVE",
"513 330 CURVE SMOOTH",
"513 497 LINE",
"352 497 LINE",
"352 357 LINE SMOOTH",
"352 283 OFFCURVE",
"345 236 OFFCURVE",
"285 236 CURVE",
"225 236 OFFCURVE",
"211 283 OFFCURVE"
);
},
{
closed = 1;
nodes = (
"618 366 LINE",
"618 0 LINE",
"782 0 LINE",
"782 600 LINE",
"877 600 LINE",
"877 740 LINE",
"-20 740 LINE",
"-20 600 LINE",
"618 600 LINE",
"618 497 LINE",
"366 497 LINE",
"366 366 LINE"
);
}
);
width = 857;
},
{
layerId = "3C02C8EC-C43C-4762-8B99-FE4CB64E6532";
paths = (
{
closed = 1;
nodes = (
"143.937 398 CURVE SMOOTH",
"165.096 518 LINE",
"100.096 518 LINE",
"75.058 376 LINE SMOOTH",
"49.491 231 OFFCURVE",
"49.45 106 OFFCURVE",
"216.45 106 CURVE SMOOTH",
"383.45 106 OFFCURVE",
"427.491 231 OFFCURVE",
"453.058 376 CURVE SMOOTH",
"478.096 518 LINE",
"413.096 518 LINE",
"391.937 398 LINE SMOOTH",
"368.486 265 OFFCURVE",
"351.029 166 OFFCURVE",
"227.029 166 CURVE SMOOTH",
"103.029 166 OFFCURVE",
"120.486 265 OFFCURVE"
);
},
{
closed = 1;
nodes = (
"669.869 460 LINE",
"588.759 0 LINE",
"653.759 0 LINE",
"773.661 680 LINE",
"913.661 680 LINE",
"924.241 740 LINE",
"25.241 740 LINE",
"14.661 680 LINE",
"708.661 680 LINE",
"680.096 518 LINE",
"418.096 518 LINE",
"407.869 460 LINE"
);
}
);
width = 819;
},
{
layerId = "AD4288EF-621A-4539-AF14-1A70F42B46A9";
paths = (
{
closed = 1;
nodes = (
"208.708 357 CURVE",
"233.394 497 LINE",
"69.394 497 LINE",
"39.947 330 LINE",
"17.73 204 OFFCURVE",
"63.686 96 OFFCURVE",
"238.686 96 CURVE SMOOTH",
"393.686 96 OFFCURVE",
"479.145 178 OFFCURVE",
"505.947 330 CURVE SMOOTH",
"535.394 497 LINE",
"374.394 497 LINE",
"349.708 357 LINE SMOOTH",
"336.66 283 OFFCURVE",
"321.372 236 OFFCURVE",
"261.372 236 CURVE",
"201.372 236 OFFCURVE",
"195.66 283 OFFCURVE"
);
},
{
closed = 1;
nodes = (
"617.295 366 LINE",
"552.759 0 LINE",
"716.759 0 LINE",
"822.555 600 LINE",
"917.555 600 LINE",
"942.241 740 LINE",
"45.241 740 LINE",
"20.555 600 LINE",
"658.555 600 LINE",
"640.394 497 LINE",
"388.394 497 LINE",
"365.295 366 LINE"
);
}
);
width = 857;
}
);
},
{
glyphname = dvJHA;
lastChange = "2017-08-08 23:18:27 +0000";
layers = (
{
layerId = "C0ED9D5D-A651-429A-8F5D-D93A2EDA2DC0";
paths = (
{
closed = 1;
nodes = (
"859 680 LINE",
"859 740 LINE",
"-40 740 LINE",
"-40 680 LINE"
);
},
{
closed = 1;
nodes = (
"654 0 LINE",
"719 0 LINE",
"719 705 LINE",
"719 705 OFFCURVE",
"654 705 OFFCURVE",
"654 705 CURVE"
);
},
{
closed = 1;
nodes = (
"418 522 LINE",
"483 522 LINE",
"483 718 LINE",
"418 718 LINE"
);
},
{
closed = 1;
nodes = (
"705 290 LINE",
"705 343 LINE",
"297 343 LINE",
"230 343 OFFCURVE",
"176 354 OFFCURVE",
"176 430 CURVE SMOOTH",
"176 509 OFFCURVE",
"244 511 OFFCURVE",
"319 511 CURVE SMOOTH",
"483 511 LINE",
"483 541 LINE",
"483 571 LINE",
"318 571 LINE SMOOTH",
"214 571 OFFCURVE",
"111 554 OFFCURVE",
"111 430 CURVE SMOOTH",
"111 304 OFFCURVE",
"206 288 OFFCURVE",
"325 288 CURVE SMOOTH",
"396 288 OFFCURVE",
"457 284 OFFCURVE",
"457 198 CURVE SMOOTH",
"457 130 OFFCURVE",
"414 93 OFFCURVE",
"328 93 CURVE SMOOTH",
"236 93 OFFCURVE",
"175 148 OFFCURVE",
"170 231 CURVE",
"105 231 LINE",
"105 -30 LINE",
"170 -30 LINE",
"170 114 LINE",
"198 69 OFFCURVE",
"260 34 OFFCURVE",
"336 34 CURVE SMOOTH",
"463 34 OFFCURVE",
"522 110 OFFCURVE",
"522 192 CURVE SMOOTH",
"522 238 OFFCURVE",
"495 276 OFFCURVE",
"466 290 CURVE"
);
}
);
width = 819;
},
{
layerId = "22D14058-393A-410A-BECB-F56B411A01B2";
paths = (
{
closed = 1;
nodes = (
"898 600 LINE",
"898 740 LINE",
"-20 740 LINE",
"-20 600 LINE"
);
},
{
closed = 1;
nodes = (
"639 0 LINE",
"803 0 LINE",
"803 723 LINE",
"639 723 LINE"
);
},
{
closed = 1;
nodes = (
"307 506 LINE",
"472 506 LINE",
"472 718 LINE",
"307 718 LINE"
);
},
{
closed = 1;
nodes = (
"675 226 LINE",
"695 356 LINE",
"306 356 LINE SMOOTH",
"259 356 OFFCURVE",
"229 356 OFFCURVE",
"229 388 CURVE SMOOTH",
"229 418 OFFCURVE",
"264 421 OFFCURVE",
"317 421 CURVE SMOOTH",
"472 421 LINE",
"472 518 LINE",
"322 551 LINE",
"268 551 LINE SMOOTH",
"159 551 OFFCURVE",
"63 509 OFFCURVE",
"63 399 CURVE SMOOTH",
"63 243 OFFCURVE",
"191 231 OFFCURVE",
"282 231 CURVE SMOOTH",
"336 231 OFFCURVE",
"373 231 OFFCURVE",
"373 189 CURVE SMOOTH",
"373 154 OFFCURVE",
"346 137 OFFCURVE",
"308 137 CURVE SMOOTH",
"262 137 OFFCURVE",
"234 158 OFFCURVE",
"234 204 CURVE",
"79 204 LINE",
"79 -60 LINE",
"234 -60 LINE",
"234 44 LINE",
"260 20 OFFCURVE",
"305 11 OFFCURVE",
"342 11 CURVE SMOOTH",
"458 11 OFFCURVE",
"523 84 OFFCURVE",
"523 186 CURVE SMOOTH",
"523 206 OFFCURVE",
"517 220 OFFCURVE",
"513 226 CURVE"
);
}
);
width = 878;
},
{
layerId = "3C02C8EC-C43C-4762-8B99-FE4CB64E6532";
paths = (
{
closed = 1;
nodes = (
"916.306 680 LINE",
"926.886 740 LINE",
"27.886 740 LINE",
"17.306 680 LINE"
);
},
{
closed = 1;
nodes = (
"591.404 0 LINE",
"656.404 0 LINE",
"780.714 705 LINE",
"780.714 705 OFFCURVE",
"715.714 705 OFFCURVE",
"715.714 705 CURVE"
);
},
{
closed = 1;
nodes = (
"447.447 522 LINE",
"512.447 522 LINE",
"547.007 718 LINE",
"482.007 718 LINE"
);
},
{
closed = 1;
nodes = (
"693.539 290 LINE",
"702.884 343 LINE",
"294.884 343 LINE",
"227.884 343 OFFCURVE",
"175.824 354 OFFCURVE",
"189.225 430 CURVE SMOOTH",
"203.154 509 OFFCURVE",
"271.507 511 OFFCURVE",
"346.507 511 CURVE SMOOTH",
"510.507 511 LINE",
"515.797 541 LINE",
"521.087 571 LINE",
"356.087 571 LINE SMOOTH",
"252.087 571 OFFCURVE",
"146.089 554 OFFCURVE",
"124.225 430 CURVE SMOOTH",
"102.007 304 OFFCURVE",
"194.186 288 OFFCURVE",
"313.186 288 CURVE SMOOTH",
"384.186 288 OFFCURVE",
"444.481 284 OFFCURVE",
"429.317 198 CURVE SMOOTH",
"417.326 130 OFFCURVE",
"367.802 93 OFFCURVE",
"281.802 93 CURVE SMOOTH",
"189.802 93 OFFCURVE",
"138.5 148 OFFCURVE",
"148.135 231 CURVE",
"83.135 231 LINE",
"37.114 -30 LINE",
"102.114 -30 LINE",
"127.505 114 LINE",
"147.57 69 OFFCURVE",
"203.399 34 OFFCURVE",
"279.399 34 CURVE SMOOTH",
"406.399 34 OFFCURVE",
"478.8 110 OFFCURVE",
"493.259 192 CURVE SMOOTH",
"501.37 238 OFFCURVE",
"481.07 276 OFFCURVE",
"454.539 290 CURVE"
);
}
);
width = 819;
},
{
layerId = "AD4288EF-621A-4539-AF14-1A70F42B46A9";
paths = (
{
closed = 1;
nodes = (
"943.845 600 LINE",
"968.531 740 LINE",
"50.531 740 LINE",
"25.845 600 LINE"
);
},
{
closed = 1;
nodes = (
"579.049 0 LINE",
"743.049 0 LINE",
"870.533 723 LINE",
"706.533 723 LINE"
);
},
{
closed = 1;
nodes = (
"336.27 506 LINE",
"501.27 506 LINE",
"538.652 718 LINE",
"373.652 718 LINE"
);
},
{
closed = 1;
nodes = (
"654.899 226 LINE",
"697.821 356 LINE",
"308.821 356 LINE SMOOTH",
"261.821 356 OFFCURVE",
"231.821 356 OFFCURVE",
"237.464 388 CURVE SMOOTH",
"242.754 418 OFFCURVE",
"278.282 421 OFFCURVE",
"331.282 421 CURVE SMOOTH",
"486.282 421 LINE",
"503.386 518 LINE",
"359.205 551 LINE",
"305.205 551 LINE SMOOTH",
"196.205 551 OFFCURVE",
"92.799 509 OFFCURVE",
"73.403 399 CURVE SMOOTH",
"45.896 243 OFFCURVE",
"171.78 231 OFFCURVE",
"262.78 231 CURVE SMOOTH",
"316.78 231 OFFCURVE",
"353.78 231 OFFCURVE",
"346.375 189 CURVE SMOOTH",
"340.203 154 OFFCURVE",
"310.206 137 OFFCURVE",
"272.206 137 CURVE SMOOTH",
"226.206 137 OFFCURVE",
"201.908 158 OFFCURVE",
"210.02 204 CURVE",
"55.02 204 LINE",
"8.469 -60 LINE",
"163.469 -60 LINE",
"181.807 44 LINE",
"203.575 20 OFFCURVE",
"246.988 11 OFFCURVE",
"283.988 11 CURVE SMOOTH",
"399.988 11 OFFCURVE",
"477.86 84 OFFCURVE",
"495.846 186 CURVE SMOOTH",
"499.372 206 OFFCURVE",
"495.841 220 OFFCURVE",
"492.899 226 CURVE"
);
}
);
width = 878;
}
);
},
{
glyphname = dvNYA;
lastChange = "2017-08-08 23:18:27 +0000";
layers = (
{
layerId = "C0ED9D5D-A651-429A-8F5D-D93A2EDA2DC0";
paths = (
{
closed = 1;
nodes = (
"633 0 LINE",
"698 0 LINE",
"698 680 LINE",
"698 680 OFFCURVE",
"838 680 OFFCURVE",
"838 680 CURVE",
"838 740 LINE",
"-40 740 LINE",
"-40 680 LINE",
"633 680 LINE"
);
},
{
closed = 1;
nodes = (
"673 325 LINE",
"673 383 LINE",
"468 383 LINE",
"468 325 LINE"
);
},
{
closed = 1;
nodes = (
"288 589 CURVE SMOOTH",
"146 589 OFFCURVE",
"82 502 OFFCURVE",
"66 424 CURVE",
"132 424 LINE",
"145 476 OFFCURVE",
"192 529 OFFCURVE",
"288 529 CURVE SMOOTH",
"398 529 OFFCURVE",
"448 460 OFFCURVE",
"448 351 CURVE",
"448 242 OFFCURVE",
"398 173 OFFCURVE",
"288 173 CURVE SMOOTH",
"192 173 OFFCURVE",
"145 226 OFFCURVE",
"132 278 CURVE",
"66 278 LINE",
"82 200 OFFCURVE",
"146 113 OFFCURVE",
"288 113 CURVE SMOOTH",
"445 113 OFFCURVE",
"513 224 OFFCURVE",
"513 351 CURVE",
"513 478 OFFCURVE",
"445 589 OFFCURVE"
);
}
);
width = 798;
},
{
layerId = "22D14058-393A-410A-BECB-F56B411A01B2";
paths = (
{
closed = 1;
nodes = (
"638 0 LINE",
"802 0 LINE",
"802 600 LINE",
"897 600 LINE",
"897 740 LINE",
"-20 740 LINE",
"-20 600 LINE",
"638 600 LINE"
);
},
{
closed = 1;
nodes = (
"728 232 LINE",
"728 372 LINE",
"470 372 LINE",
"470 232 LINE"
);
},
{
closed = 1;
nodes = (
"296 542 CURVE SMOOTH",
"160 542 OFFCURVE",
"71 469 OFFCURVE",
"56 357 CURVE",
"216 357 LINE",
"225 384 OFFCURVE",
"256 403 OFFCURVE",
"296 403 CURVE SMOOTH",
"356 403 OFFCURVE",
"385 357 OFFCURVE",
"385 300 CURVE SMOOTH",
"385 243 OFFCURVE",
"356 197 OFFCURVE",
"296 197 CURVE SMOOTH",
"256 197 OFFCURVE",
"225 216 OFFCURVE",
"216 243 CURVE",
"56 243 LINE",
"71 131 OFFCURVE",
"160 58 OFFCURVE",
"296 58 CURVE SMOOTH",
"445 58 OFFCURVE",
"541 152 OFFCURVE",
"541 300 CURVE",
"541 448 OFFCURVE",
"445 542 OFFCURVE"
);
}
);
width = 877;
},
{
layerId = "3C02C8EC-C43C-4762-8B99-FE4CB64E6532";
paths = (
{
closed = 1;
nodes = (
"567.759 0 LINE",
"632.759 0 LINE",
"752.661 680 LINE",
"752.661 680 OFFCURVE",
"892.661 680 OFFCURVE",
"892.661 680 CURVE",
"903.241 740 LINE",
"25.241 740 LINE",
"14.661 680 LINE",
"687.661 680 LINE"
);
},
{
closed = 1;
nodes = (
"665.065 325 LINE",
"675.292 383 LINE",
"470.292 383 LINE",
"460.065 325 LINE"
);
},
{
closed = 1;
nodes = (
"326.616 589 CURVE SMOOTH",
"184.616 589 OFFCURVE",
"105.275 502 OFFCURVE",
"75.522 424 CURVE",
"141.522 424 LINE",
"163.691 476 OFFCURVE",
"220.036 529 OFFCURVE",
"316.036 529 CURVE SMOOTH",
"426.036 529 OFFCURVE",
"463.869 460 OFFCURVE",
"444.65 351 CURVE",
"425.43 242 OFFCURVE",
"363.264 173 OFFCURVE",
"253.264 173 CURVE SMOOTH",
"157.264 173 OFFCURVE",
"119.609 226 OFFCURVE",
"115.778 278 CURVE",
"49.778 278 LINE",
"52.024 200 OFFCURVE",
"100.684 113 OFFCURVE",
"242.684 113 CURVE SMOOTH",
"399.684 113 OFFCURVE",
"487.256 224 OFFCURVE",
"509.65 351 CURVE",
"532.043 478 OFFCURVE",
"483.616 589 OFFCURVE"
);
}
);
width = 798;
},
{
layerId = "AD4288EF-621A-4539-AF14-1A70F42B46A9";
paths = (
{
closed = 1;
nodes = (
"572.759 0 LINE",
"736.759 0 LINE",
"842.555 600 LINE",
"937.555 600 LINE",
"962.241 740 LINE",
"45.241 740 LINE",
"20.555 600 LINE",
"678.555 600 LINE"
);
},
{
closed = 1;
nodes = (
"703.667 232 LINE",
"728.353 372 LINE",
"470.353 372 LINE",
"445.667 232 LINE"
);
},
{
closed = 1;
nodes = (
"326.328 542 CURVE SMOOTH",
"190.328 542 OFFCURVE",
"88.456 469 OFFCURVE",
"53.708 357 CURVE",
"213.708 357 LINE",
"227.469 384 OFFCURVE",
"261.819 403 OFFCURVE",
"301.819 403 CURVE SMOOTH",
"361.819 403 OFFCURVE",
"382.708 357 OFFCURVE",
"372.657 300 CURVE SMOOTH",
"362.606 243 OFFCURVE",
"325.495 197 OFFCURVE",
"265.495 197 CURVE SMOOTH",
"225.495 197 OFFCURVE",
"197.846 216 OFFCURVE",
"193.606 243 CURVE",
"33.606 243 LINE",
"28.858 131 OFFCURVE",
"104.986 58 OFFCURVE",
"240.986 58 CURVE SMOOTH",
"389.986 58 OFFCURVE",
"502.561 152 OFFCURVE",
"528.657 300 CURVE",
"554.753 448 OFFCURVE",
"475.328 542 OFFCURVE"
);
}
);
width = 877;
}
);
},
{
glyphname = dvTTA;
lastChange = "2017-08-08 23:18:27 +0000";
layers = (
{
anchors = (
{
name = abvm.e;
position = "{444, 740}";
},
{
name = blwm.u;
position = "{407, -69}";
},
{
name = blwm.virama;
position = "{387, 8}";
}
);
layerId = "C0ED9D5D-A651-429A-8F5D-D93A2EDA2DC0";
paths = (
{
closed = 1;
nodes = (
"444 506 LINE",
"444 680 LINE",
"703 680 LINE",
"703 740 LINE",
"-40 740 LINE",
"-40 680 LINE",
"379 680 LINE",
"379 566 LINE",
"206 565 OFFCURVE",
"78 478 OFFCURVE",
"78 305 CURVE SMOOTH",
"78 151 OFFCURVE",
"190 48 OFFCURVE",
"344 48 CURVE SMOOTH",
"501 48 OFFCURVE",
"606 150 OFFCURVE",
"606 307 CURVE",
"541 307 LINE",
"541 184 OFFCURVE",
"467 108 OFFCURVE",
"344 108 CURVE SMOOTH",
"224 108 OFFCURVE",
"143 185 OFFCURVE",
"143 305 CURVE SMOOTH",
"143 444 OFFCURVE",
"240 505 OFFCURVE",
"379 506 CURVE SMOOTH"
);
}
);
width = 663;
},
{
anchors = (
{
name = abvm.e;
position = "{460, 740}";
},
{
name = blwm.u;
position = "{468, -99}";
},
{
name = blwm.virama;
position = "{436, -13}";
}
);
layerId = "22D14058-393A-410A-BECB-F56B411A01B2";
paths = (
{
closed = 1;
nodes = (
"460 404 LINE",
"460 600 LINE",
"669 600 LINE",
"669 740 LINE",
"-20 740 LINE",
"-20 600 LINE",
"296 600 LINE",
"296 542 LINE",
"152 526 OFFCURVE",
"52 432 OFFCURVE",
"52 279 CURVE SMOOTH",
"52 116 OFFCURVE",
"171 18 OFFCURVE",
"341 18 CURVE SMOOTH",
"510 18 OFFCURVE",
"618 112 OFFCURVE",
"618 281 CURVE",
"462 281 LINE",
"462 208 OFFCURVE",
"420 159 OFFCURVE",
"340 159 CURVE SMOOTH",
"265 159 OFFCURVE",
"213 206 OFFCURVE",
"213 277 CURVE SMOOTH",
"213 370 OFFCURVE",
"285 404 OFFCURVE",
"378 404 CURVE SMOOTH"
);
}
);
width = 649;
},
{
anchors = (
{
name = abvm.e;
position = "{505.009, 740}";
},
{
name = blwm.u;
position = "{325.361, -69}";
},
{
name = blwm.virama;
position = "{318.938, 8}";
}
);
layerId = "3C02C8EC-C43C-4762-8B99-FE4CB64E6532";
paths = (
{
closed = 1;
nodes = (
"463.749 506 LINE",
"494.43 680 LINE",
"753.43 680 LINE",
"764.009 740 LINE",
"21.009 740 LINE",
"10.43 680 LINE",
"429.43 680 LINE",
"409.328 566 LINE",
"236.152 565 OFFCURVE",
"92.811 478 OFFCURVE",
"62.307 305 CURVE SMOOTH",
"35.153 151 OFFCURVE",
"128.991 48 OFFCURVE",
"282.991 48 CURVE SMOOTH",
"439.991 48 OFFCURVE",
"562.976 150 OFFCURVE",
"590.66 307 CURVE",
"525.66 307 LINE",
"503.971 184 OFFCURVE",
"416.57 108 OFFCURVE",
"293.57 108 CURVE SMOOTH",
"173.57 108 OFFCURVE",
"106.148 185 OFFCURVE",
"127.307 305 CURVE SMOOTH",
"151.816 444 OFFCURVE",
"259.572 505 OFFCURVE",
"398.749 506 CURVE SMOOTH"
);
}
);
width = 663;
},
{
anchors = (
{
name = abvm.e;
position = "{523.654, 740}";
},
{
name = blwm.u;
position = "{383.716, -99}";
},
{
name = blwm.virama;
position = "{366.88, -13}";
}
);
layerId = "AD4288EF-621A-4539-AF14-1A70F42B46A9";
paths = (
{
closed = 1;
nodes = (
"464.408 404 LINE",
"498.968 600 LINE",
"707.968 600 LINE",
"732.654 740 LINE",
"43.654 740 LINE",
"18.968 600 LINE",
"334.968 600 LINE",
"324.741 542 LINE",
"177.92 526 OFFCURVE",
"61.345 432 OFFCURVE",
"34.367 279 CURVE SMOOTH",
"5.626 116 OFFCURVE",
"107.346 18 OFFCURVE",
"277.346 18 CURVE SMOOTH",
"446.346 18 OFFCURVE",
"570.921 112 OFFCURVE",
"600.72 281 CURVE",
"444.72 281 LINE",
"431.848 208 OFFCURVE",
"381.208 159 OFFCURVE",
"301.208 159 CURVE SMOOTH",
"226.208 159 OFFCURVE",
"182.495 206 OFFCURVE",
"195.015 277 CURVE SMOOTH",
"211.413 370 OFFCURVE",
"289.408 404 OFFCURVE",
"382.408 404 CURVE SMOOTH"
);
}
);
width = 649;
}
);
},
{
glyphname = dvTTHA;
lastChange = "2017-08-08 23:18:27 +0000";
layers = (
{
anchors = (
{
name = abvm.e;
position = "{377, 740}";
},
{
name = blwm.u;
position = "{416, -63}";
},
{
name = blwm.virama;
position = "{388, 8}";
}
);
layerId = "C0ED9D5D-A651-429A-8F5D-D93A2EDA2DC0";
paths = (
{
closed = 1;
nodes = (
"377 563 CURVE",
"377 680 LINE",
"709 680 LINE",
"709 740 LINE",
"-40 740 LINE",
"-40 680 LINE",
"312 680 LINE",
"312 563 LINE",
"176 549 OFFCURVE",
"81 450 OFFCURVE",
"81 309 CURVE SMOOTH",
"81 156 OFFCURVE",
"192 53 OFFCURVE",
"345 53 CURVE SMOOTH",
"498 53 OFFCURVE",
"609 156 OFFCURVE",
"609 309 CURVE SMOOTH",
"609 451 OFFCURVE",
"513 550 OFFCURVE"
);
},
{
closed = 1;
nodes = (
"345 506 CURVE SMOOTH",
"463 506 OFFCURVE",
"544 427 OFFCURVE",
"544 309 CURVE SMOOTH",
"544 191 OFFCURVE",
"463 112 OFFCURVE",
"345 112 CURVE SMOOTH",
"227 112 OFFCURVE",
"146 191 OFFCURVE",
"146 309 CURVE SMOOTH",
"146 427 OFFCURVE",
"227 506 OFFCURVE"
);
}
);
width = 669;
},
{
anchors = (
{
name = abvm.e;
position = "{419, 740}";
},
{
name = blwm.u;
position = "{447, -88}";
},
{
name = blwm.virama;
position = "{427, -3}";
}
);
layerId = "22D14058-393A-410A-BECB-F56B411A01B2";
paths = (
{
closed = 1;
nodes = (
"419 534 CURVE",
"419 600 LINE",
"691 600 LINE",
"691 740 LINE",
"-20 740 LINE",
"-20 600 LINE",
"255 600 LINE",
"255 534 LINE",
"136 506 OFFCURVE",
"53 417 OFFCURVE",
"53 286 CURVE SMOOTH",
"53 126 OFFCURVE",
"176 29 OFFCURVE",
"337 29 CURVE SMOOTH",
"498 29 OFFCURVE",
"621 126 OFFCURVE",
"621 286 CURVE SMOOTH",
"621 417 OFFCURVE",
"538 506 OFFCURVE"
);
},
{
closed = 1;
nodes = (
"337 406 CURVE SMOOTH",
"412 406 OFFCURVE",
"459 357 OFFCURVE",
"459 286 CURVE SMOOTH",
"459 215 OFFCURVE",
"412 166 OFFCURVE",
"337 166 CURVE SMOOTH",
"262 166 OFFCURVE",
"215 215 OFFCURVE",
"215 286 CURVE SMOOTH",
"215 357 OFFCURVE",
"262 406 OFFCURVE"
);
}
);
width = 671;
},
{
anchors = (
{
name = abvm.e;
position = "{437.568, 740}";
},
{
name = blwm.u;
position = "{334.978, -63}";
},
{
name = blwm.virama;
position = "{319.497, 8}";
}
);
layerId = "3C02C8EC-C43C-4762-8B99-FE4CB64E6532";
paths = (
{
closed = 1;
nodes = (
"406.358 563 CURVE",
"426.989 680 LINE",
"758.989 680 LINE",
"769.568 740 LINE",
"20.568 740 LINE",
"9.989 680 LINE",
"361.989 680 LINE",
"341.358 563 LINE",
"202.89 549 OFFCURVE",
"90.433 450 OFFCURVE",
"65.571 309 CURVE SMOOTH",
"38.593 156 OFFCURVE",
"131.432 53 OFFCURVE",
"284.432 53 CURVE SMOOTH",
"437.432 53 OFFCURVE",
"566.593 156 OFFCURVE",
"593.571 309 CURVE SMOOTH",
"618.61 451 OFFCURVE",
"540.066 550 OFFCURVE"
);
},
{
closed = 1;
nodes = (
"364.308 506 CURVE SMOOTH",
"482.308 506 OFFCURVE",
"549.378 427 OFFCURVE",
"528.571 309 CURVE SMOOTH",
"507.765 191 OFFCURVE",
"412.835 112 OFFCURVE",
"294.835 112 CURVE SMOOTH",
"176.835 112 OFFCURVE",
"109.765 191 OFFCURVE",
"130.571 309 CURVE SMOOTH",
"151.378 427 OFFCURVE",
"246.308 506 OFFCURVE"
);
}
);
width = 669;
},
{
anchors = (
{
name = abvm.e;
position = "{481.684, 740}";
},
{
name = blwm.u;
position = "{363.686, -88}";
},
{
name = blwm.virama;
position = "{358.673, -3}";
}
);
layerId = "AD4288EF-621A-4539-AF14-1A70F42B46A9";
paths = (
{
closed = 1;
nodes = (
"445.361 534 CURVE",
"456.998 600 LINE",
"728.998 600 LINE",
"753.684 740 LINE",
"42.684 740 LINE",
"17.998 600 LINE",
"292.998 600 LINE",
"281.361 534 LINE",
"157.424 506 OFFCURVE",
"58.731 417 OFFCURVE",
"35.632 286 CURVE SMOOTH",
"7.419 126 OFFCURVE",
"113.316 29 OFFCURVE",
"274.316 29 CURVE SMOOTH",
"435.316 29 OFFCURVE",
"575.419 126 OFFCURVE",
"603.632 286 CURVE SMOOTH",
"626.731 417 OFFCURVE",
"559.424 506 OFFCURVE"
);
},
{
closed = 1;
nodes = (
"340.791 406 CURVE SMOOTH",
"415.791 406 OFFCURVE",
"454.151 357 OFFCURVE",
"441.632 286 CURVE SMOOTH",
"429.113 215 OFFCURVE",
"373.473 166 OFFCURVE",
"298.473 166 CURVE SMOOTH",
"223.473 166 OFFCURVE",
"185.113 215 OFFCURVE",
"197.632 286 CURVE SMOOTH",
"210.151 357 OFFCURVE",
"265.791 406 OFFCURVE"
);
}
);
width = 671;
}
);
},
{
glyphname = dvDDA;
lastChange = "2017-08-08 23:18:27 +0000";
layers = (
{
anchors = (
{
name = abvm.e;
position = "{469, 740}";
},
{
name = blwm.u;
position = "{381, -124}";
},
{
name = blwm.virama;
position = "{360, -47}";
}
);
layerId = "C0ED9D5D-A651-429A-8F5D-D93A2EDA2DC0";
paths = (
{
closed = 1;
nodes = (
"626 680 LINE",
"626 740 LINE",
"-40 740 LINE",
"-40 680 LINE"
);
},
{
closed = 1;
nodes = (
"404 512 LINE",
"469 512 LINE",
"469 718 LINE",
"404 718 LINE"
);
},
{
closed = 1;
nodes = (
"82 202 LINE",
"84 66 OFFCURVE",
"179 -10 OFFCURVE",
"324 -10 CURVE SMOOTH",
"451 -10 OFFCURVE",
"529 63 OFFCURVE",
"529 156 CURVE SMOOTH",
"529 298 OFFCURVE",
"413 316 OFFCURVE",
"301 316 CURVE SMOOTH",
"222 316 OFFCURVE",
"162 329 OFFCURVE",
"162 410 CURVE SMOOTH",
"162 488 OFFCURVE",
"230 501 OFFCURVE",
"305 501 CURVE SMOOTH",
"469 501 LINE",
"469 531 LINE",
"469 561 LINE",
"304 561 LINE SMOOTH",
"200 561 OFFCURVE",
"97 531 OFFCURVE",
"97 410 CURVE SMOOTH",
"97 289 OFFCURVE",
"190 258 OFFCURVE",
"315 258 CURVE SMOOTH",
"388 258 OFFCURVE",
"464 252 OFFCURVE",
"464 162 CURVE SMOOTH",
"464 84 OFFCURVE",
"407 50 OFFCURVE",
"321 50 CURVE",
"203 50 OFFCURVE",
"152 110 OFFCURVE",
"146 202 CURVE"
);
}
);
width = 586;
},
{
anchors = (
{
name = abvm.e;
position = "{475, 740}";
},
{
name = blwm.u;
position = "{411, -135}";
},
{
name = blwm.virama;
position = "{392, -47}";
}
);
layerId = "22D14058-393A-410A-BECB-F56B411A01B2";
paths = (
{
closed = 1;
nodes = (
"588 600 LINE",
"588 740 LINE",
"-20 740 LINE",
"-20 600 LINE"
);
},
{
closed = 1;
nodes = (
"310 496 LINE",
"475 496 LINE",
"475 718 LINE",
"310 718 LINE"
);
},
{
closed = 1;
nodes = (
"54 179 LINE",
"60 50 OFFCURVE",
"167 -20 OFFCURVE",
"305 -20 CURVE SMOOTH",
"451 -20 OFFCURVE",
"538 51 OFFCURVE",
"538 162 CURVE SMOOTH",
"538 304 OFFCURVE",
"426 336 OFFCURVE",
"321 336 CURVE",
"268 336 OFFCURVE",
"232 338 OFFCURVE",
"232 373 CURVE SMOOTH",
"232 403 OFFCURVE",
"267 411 OFFCURVE",
"320 411 CURVE SMOOTH",
"475 411 LINE",
"475 508 LINE",
"325 541 LINE",
"271 541 LINE SMOOTH",
"162 541 OFFCURVE",
"66 494 OFFCURVE",
"66 384 CURVE SMOOTH",
"66 228 OFFCURVE",
"194 210 OFFCURVE",
"285 210 CURVE SMOOTH",
"344 210 OFFCURVE",
"376 199 OFFCURVE",
"376 159 CURVE SMOOTH",
"376 122 OFFCURVE",
"346 107 OFFCURVE",
"305 107 CURVE SMOOTH",
"256 107 OFFCURVE",
"220 130 OFFCURVE",
"216 179 CURVE"
);
}
);
width = 568;
},
{
anchors = (
{
name = abvm.e;
position = "{535.123, 740}";
},
{
name = blwm.u;
position = "{294.776, -124}";
},
{
name = blwm.virama;
position = "{287.353, -47}";
}
);
layerId = "3C02C8EC-C43C-4762-8B99-FE4CB64E6532";
paths = (
{
closed = 1;
nodes = (
"681.543 680 LINE",
"692.123 740 LINE",
"26.123 740 LINE",
"15.543 680 LINE"
);
},
{
closed = 1;
nodes = (
"429.92 512 LINE",
"494.92 512 LINE",
"531.243 718 LINE",
"466.243 718 LINE"
);
},
{
closed = 1;
nodes = (
"53.259 202 LINE",
"31.278 66 OFFCURVE",
"112.877 -10 OFFCURVE",
"257.877 -10 CURVE SMOOTH",
"384.877 -10 OFFCURVE",
"475.749 63 OFFCURVE",
"492.148 156 CURVE SMOOTH",
"517.186 298 OFFCURVE",
"404.36 316 OFFCURVE",
"292.36 316 CURVE SMOOTH",
"213.36 316 OFFCURVE",
"155.652 329 OFFCURVE",
"169.935 410 CURVE SMOOTH",
"183.688 488 OFFCURVE",
"253.98 501 OFFCURVE",
"328.98 501 CURVE SMOOTH",
"492.98 501 LINE",
"498.27 531 LINE",
"503.56 561 LINE",
"338.56 561 LINE SMOOTH",
"234.56 561 OFFCURVE",
"126.27 531 OFFCURVE",
"104.935 410 CURVE SMOOTH",
"83.599 289 OFFCURVE",
"171.133 258 OFFCURVE",
"296.133 258 CURVE SMOOTH",
"369.133 258 OFFCURVE",
"444.075 252 OFFCURVE",
"428.206 162 CURVE SMOOTH",
"414.452 84 OFFCURVE",
"351.457 50 OFFCURVE",
"265.457 50 CURVE",
"147.457 50 OFFCURVE",
"107.037 110 OFFCURVE",
"117.259 202 CURVE"
);
}
);
width = 586;
},
{
anchors = (
{
name = abvm.e;
position = "{542.004, 740}";
},
{
name = blwm.u;
position = "{323.718, -135}";
},
{
name = blwm.virama;
position = "{320.235, -47}";
}
);
layerId = "AD4288EF-621A-4539-AF14-1A70F42B46A9";
paths = (
{
closed = 1;
nodes = (
"630.318 600 LINE",
"655.004 740 LINE",
"47.004 740 LINE",
"22.318 600 LINE"
);
},
{
closed = 1;
nodes = (
"333.98 496 LINE",
"498.98 496 LINE",
"538.125 718 LINE",
"373.125 718 LINE"
);
},
{
closed = 1;
nodes = (
"22.085 179 LINE",
"5.339 50 OFFCURVE",
"99.996 -20 OFFCURVE",
"237.996 -20 CURVE SMOOTH",
"383.996 -20 OFFCURVE",
"483.515 51 OFFCURVE",
"503.087 162 CURVE SMOOTH",
"528.126 304 OFFCURVE",
"421.768 336 OFFCURVE",
"316.768 336 CURVE",
"263.768 336 OFFCURVE",
"228.121 338 OFFCURVE",
"234.292 373 CURVE SMOOTH",
"239.582 403 OFFCURVE",
"275.993 411 OFFCURVE",
"328.993 411 CURVE SMOOTH",
"483.993 411 LINE",
"501.096 508 LINE",
"356.915 541 LINE",
"302.915 541 LINE SMOOTH",
"193.915 541 OFFCURVE",
"89.628 494 OFFCURVE",
"70.232 384 CURVE SMOOTH",
"42.725 228 OFFCURVE",
"167.551 210 OFFCURVE",
"258.551 210 CURVE SMOOTH",
"317.551 210 OFFCURVE",
"347.611 199 OFFCURVE",
"340.558 159 CURVE SMOOTH",
"334.034 122 OFFCURVE",
"301.389 107 OFFCURVE",
"260.389 107 CURVE SMOOTH",
"211.389 107 OFFCURVE",
"179.445 130 OFFCURVE",
"184.085 179 CURVE"
);
}
);
width = 568;
}
);
},
{
glyphname = dvDDHA;
lastChange = "2017-08-08 23:18:27 +0000";
layers = (
{
anchors = (
{
name = abvm.e;
position = "{470, 740}";
},
{
name = blwm.u;
position = "{426, -117}";
},
{
name = blwm.virama;
position = "{434, -10}";
}
);
layerId = "C0ED9D5D-A651-429A-8F5D-D93A2EDA2DC0";
paths = (
{
closed = 1;
nodes = (
"405 517 LINE",
"470 517 LINE",
"470 680 LINE",
"470 680 OFFCURVE",
"673 680 OFFCURVE",
"673 680 CURVE",
"673 740 LINE",
"-40 740 LINE",
"-40 680 LINE",
"405 680 LINE"
);
},
{
closed = 1;
nodes = (
"257 193 CURVE",
"321 193 LINE",
"321 260 OFFCURVE",
"348 311 OFFCURVE",
"421 311 CURVE SMOOTH",
"498 311 OFFCURVE",
"524 260 OFFCURVE",
"524 202 CURVE SMOOTH",
"524 126 OFFCURVE",
"474 72 OFFCURVE",
"372 72 CURVE SMOOTH",
"245 72 OFFCURVE",
"143 145 OFFCURVE",
"143 288 CURVE SMOOTH",
"143 445 OFFCURVE",
"249 518 OFFCURVE",
"406 517 CURVE",
"406 517 OFFCURVE",
"406 577 OFFCURVE",
"406 577 CURVE",
"229 579 OFFCURVE",
"78 491 OFFCURVE",
"78 288 CURVE SMOOTH",
"78 116 OFFCURVE",
"205 12 OFFCURVE",
"371 12 CURVE SMOOTH",
"502 12 OFFCURVE",
"589 86 OFFCURVE",
"589 203 CURVE SMOOTH",
"589 307 OFFCURVE",
"520 370 OFFCURVE",
"419 370 CURVE SMOOTH",
"308 370 OFFCURVE",
"257 290 OFFCURVE"
);
}
);
width = 633;
},
{
anchors = (
{
name = abvm.e;
position = "{494, 740}";
},
{
name = blwm.u;
position = "{455, -124}";
},
{
name = blwm.virama;
position = "{455, -46}";
}
);
layerId = "22D14058-393A-410A-BECB-F56B411A01B2";
paths = (
{
closed = 1;
nodes = (
"330 410 LINE",
"494 410 LINE",
"494 600 LINE",
"664 600 LINE",
"664 740 LINE",
"-20 740 LINE",
"-20 600 LINE",
"330 600 LINE"
);
},
{
closed = 1;
nodes = (
"262 195 CURVE",
"398 195 LINE",
"398 217 OFFCURVE",
"406 243 OFFCURVE",
"440 243 CURVE SMOOTH",
"471 243 OFFCURVE",
"483 221 OFFCURVE",
"483 195 CURVE SMOOTH",
"483 152 OFFCURVE",
"441 128 OFFCURVE",
"376 128 CURVE SMOOTH",
"261 128 OFFCURVE",
"209 181 OFFCURVE",
"209 260 CURVE SMOOTH",
"209 360 OFFCURVE",
"284 409 OFFCURVE",
"388 410 CURVE",
"384 546 LINE",
"191 548 OFFCURVE",
"48 458 OFFCURVE",
"48 265 CURVE SMOOTH",
"48 84 OFFCURVE",
"189 -10 OFFCURVE",
"370 -10 CURVE SMOOTH",
"512 -10 OFFCURVE",
"632 58 OFFCURVE",
"632 200 CURVE SMOOTH",
"632 303 OFFCURVE",
"547 367 OFFCURVE",
"440 367 CURVE SMOOTH",
"318 367 OFFCURVE",
"259 305 OFFCURVE"
);
}
);
width = 644;
},
{
anchors = (
{
name = abvm.e;
position = "{534.183, 740}";
},
{
name = blwm.u;
position = "{339.071, -117}";
},
{
name = blwm.virama;
position = "{365.938, -10}";
}
);
layerId = "3C02C8EC-C43C-4762-8B99-FE4CB64E6532";
paths = (
{
closed = 1;
nodes = (
"429.862 517 LINE",
"494.862 517 LINE",
"523.603 680 LINE",
"523.603 680 OFFCURVE",
"726.603 680 OFFCURVE",
"726.603 680 CURVE",
"737.183 740 LINE",
"24.183 740 LINE",
"13.603 680 LINE",
"458.603 680 LINE"
);
},
{
closed = 1;
nodes = (
"224.732 193 CURVE",
"288.732 193 LINE",
"300.546 260 OFFCURVE",
"336.539 311 OFFCURVE",
"409.539 311 CURVE SMOOTH",
"486.539 311 OFFCURVE",
"503.546 260 OFFCURVE",
"493.319 202 CURVE SMOOTH",
"479.918 126 OFFCURVE",
"420.397 72 OFFCURVE",
"318.397 72 CURVE SMOOTH",
"191.397 72 OFFCURVE",
"102.268 145 OFFCURVE",
"127.483 288 CURVE SMOOTH",
"155.167 445 OFFCURVE",
"274.038 518 OFFCURVE",
"430.862 517 CURVE",
"430.862 517 OFFCURVE",
"441.442 577 OFFCURVE",
"441.442 577 CURVE",
"264.794 579 OFFCURVE",
"98.278 491 OFFCURVE",
"62.483 288 CURVE SMOOTH",
"32.155 116 OFFCURVE",
"140.817 12 OFFCURVE",
"306.817 12 CURVE SMOOTH",
"437.817 12 OFFCURVE",
"537.865 86 OFFCURVE",
"558.495 203 CURVE SMOOTH",
"576.833 307 OFFCURVE",
"518.942 370 OFFCURVE",
"417.942 370 CURVE SMOOTH",
"306.942 370 OFFCURVE",
"241.836 290 OFFCURVE"
);
}
);
width = 633;
},
{
anchors = (
{
name = abvm.e;
position = "{560.123, 740}";
},
{
name = blwm.u;
position = "{368.776, -124}";
},
{
name = blwm.virama;
position = "{382.53, -46}";
}
);
layerId = "AD4288EF-621A-4539-AF14-1A70F42B46A9";
paths = (
{
closed = 1;
nodes = (
"337.935 410 LINE",
"501.935 410 LINE",
"535.437 600 LINE",
"705.437 600 LINE",
"730.123 740 LINE",
"46.123 740 LINE",
"21.437 600 LINE",
"371.437 600 LINE"
);
},
{
closed = 1;
nodes = (
"232.024 195 CURVE",
"368.024 195 LINE",
"371.904 217 OFFCURVE",
"384.488 243 OFFCURVE",
"418.488 243 CURVE SMOOTH",
"449.488 243 OFFCURVE",
"457.609 221 OFFCURVE",
"453.024 195 CURVE SMOOTH",
"445.442 152 OFFCURVE",
"399.211 128 OFFCURVE",
"334.211 128 CURVE SMOOTH",
"219.211 128 OFFCURVE",
"176.556 181 OFFCURVE",
"190.486 260 CURVE SMOOTH",
"208.118 360 OFFCURVE",
"291.758 409 OFFCURVE",
"395.935 410 CURVE",
"415.915 546 LINE",
"223.268 548 OFFCURVE",
"64.398 458 OFFCURVE",
"30.367 265 CURVE SMOOTH",
"-1.548 84 OFFCURVE",
"122.877 -10 OFFCURVE",
"303.877 -10 CURVE SMOOTH",
"445.877 -10 OFFCURVE",
"577.868 58 OFFCURVE",
"602.906 200 CURVE SMOOTH",
"621.068 303 OFFCURVE",
"547.353 367 OFFCURVE",
"440.353 367 CURVE SMOOTH",
"318.353 367 OFFCURVE",
"248.42 305 OFFCURVE"
);
}
);
width = 644;
}
);
},
{
glyphname = dvNNA;
lastChange = "2017-08-08 23:18:27 +0000";
layers = (
{
layerId = "C0ED9D5D-A651-429A-8F5D-D93A2EDA2DC0";
paths = (
{
closed = 1;
nodes = (
"492 419 CURVE SMOOTH",
"492 705 LINE",
"492 705 OFFCURVE",
"427 705 OFFCURVE",
"427 705 CURVE",
"427 418 LINE SMOOTH",
"427 309 OFFCURVE",
"406 237 OFFCURVE",
"297 237 CURVE",
"188 237 OFFCURVE",
"167 309 OFFCURVE",
"167 418 CURVE SMOOTH",
"167 705 LINE",
"167 705 OFFCURVE",
"102 705 OFFCURVE",
"102 705 CURVE",
"102 419 LINE SMOOTH",
"102 273 OFFCURVE",
"151 177 OFFCURVE",
"297 177 CURVE",
"443 177 OFFCURVE",
"492 273 OFFCURVE"
);
},
{
closed = 1;
nodes = (
"888 680 CURVE",
"888 740 LINE",
"-40 740 LINE",
"-40 680 LINE",
"683 680 LINE",
"683 0 LINE",
"748 0 LINE",
"748 680 LINE",
"748 680 OFFCURVE",
"888 680 OFFCURVE"
);
}
);
width = 848;
},
{
layerId = "22D14058-393A-410A-BECB-F56B411A01B2";
paths = (
{
closed = 1;
nodes = (
"537 367 CURVE SMOOTH",
"537 675 LINE",
"375 675 LINE",
"375 360 LINE SMOOTH",
"375 312 OFFCURVE",
"358 276 OFFCURVE",
"310 276 CURVE SMOOTH",
"263 276 OFFCURVE",
"245 312 OFFCURVE",
"245 360 CURVE SMOOTH",
"245 675 LINE",
"83 675 LINE",
"83 367 LINE SMOOTH",
"83 229 OFFCURVE",
"151 136 OFFCURVE",
"310 136 CURVE SMOOTH",
"469 136 OFFCURVE",
"537 229 OFFCURVE"
);
},
{
closed = 1;
nodes = (
"919 600 LINE",
"919 740 LINE",
"-20 740 LINE",
"-20 600 LINE",
"660 600 LINE",
"660 0 LINE",
"824 0 LINE",
"824 600 LINE"
);
}
);
width = 899;
},
{
layerId = "3C02C8EC-C43C-4762-8B99-FE4CB64E6532";
paths = (
{
closed = 1;
nodes = (
"500.64 419 CURVE SMOOTH",
"551.07 705 LINE",
"551.07 705 OFFCURVE",
"486.07 705 OFFCURVE",
"486.07 705 CURVE",
"435.464 418 LINE SMOOTH",
"416.244 309 OFFCURVE",
"382.549 237 OFFCURVE",
"273.549 237 CURVE",
"164.549 237 OFFCURVE",
"156.244 309 OFFCURVE",
"175.464 418 CURVE SMOOTH",
"226.07 705 LINE",
"226.07 705 OFFCURVE",
"161.07 705 OFFCURVE",
"161.07 705 CURVE",
"110.64 419 LINE SMOOTH",
"84.896 273 OFFCURVE",
"116.969 177 OFFCURVE",
"262.969 177 CURVE",
"408.969 177 OFFCURVE",
"474.896 273 OFFCURVE"
);
},
{
closed = 1;
nodes = (
"942.661 680 CURVE",
"953.241 740 LINE",
"25.241 740 LINE",
"14.661 680 LINE",
"737.661 680 LINE",
"617.759 0 LINE",
"682.759 0 LINE",
"802.661 680 LINE",
"802.661 680 OFFCURVE",
"942.661 680 OFFCURVE"
);
}
);
width = 848;
},
{
layerId = "AD4288EF-621A-4539-AF14-1A70F42B46A9";
paths = (
{
closed = 1;
nodes = (
"536.471 367 CURVE SMOOTH",
"590.78 675 LINE",
"428.78 675 LINE",
"373.237 360 LINE SMOOTH",
"364.773 312 OFFCURVE",
"341.425 276 OFFCURVE",
"293.425 276 CURVE SMOOTH",
"246.425 276 OFFCURVE",
"234.773 312 OFFCURVE",
"243.237 360 CURVE SMOOTH",
"298.78 675 LINE",
"136.78 675 LINE",
"82.471 367 LINE SMOOTH",
"58.138 229 OFFCURVE",
"109.739 136 OFFCURVE",
"268.739 136 CURVE SMOOTH",
"427.739 136 OFFCURVE",
"512.138 229 OFFCURVE"
);
},
{
closed = 1;
nodes = (
"959.555 600 LINE",
"984.241 740 LINE",
"45.241 740 LINE",
"20.555 600 LINE",
"700.555 600 LINE",
"594.759 0 LINE",
"758.759 0 LINE",
"864.555 600 LINE"
);
}
);
width = 899;
}
);
},
{
glyphname = dvTA;
lastChange = "2017-08-08 23:18:27 +0000";
layers = (
{
layerId = "C0ED9D5D-A651-429A-8F5D-D93A2EDA2DC0";
paths = (
{
closed = 1;
nodes = (
"338 56 LINE",
"188 56 OFFCURVE",
"130 124 OFFCURVE",
"130 251 CURVE SMOOTH",
"130 389 OFFCURVE",
"225 439 OFFCURVE",
"350 439 CURVE SMOOTH",
"412 439 LINE",
"501 439 LINE",
"501 0 LINE",
"566 0 LINE",
"566 680 LINE",
"706 680 LINE",
"706 740 LINE",
"-40 740 LINE",
"-40 680 LINE",
"501 680 LINE",
"501 499 LINE",
"404 499 LINE",
"350 499 LINE SMOOTH",
"183 499 OFFCURVE",
"64 427 OFFCURVE",
"64 251 CURVE SMOOTH",
"64 106 OFFCURVE",
"140 -2 OFFCURVE",
"330 -2 CURVE SMOOTH",
"338 -2 LINE"
);
}
);
width = 666;
},
{
layerId = "22D14058-393A-410A-BECB-F56B411A01B2";
paths = (
{
closed = 1;
nodes = (
"353 129 LINE",
"259 129 OFFCURVE",
"224 172 OFFCURVE",
"224 239 CURVE",
"224 316 OFFCURVE",
"274 351 OFFCURVE",
"347 351 CURVE",
"361 351 LINE",
"462 351 LINE",
"462 0 LINE",
"626 0 LINE",
"626 600 LINE",
"721 600 LINE",
"721 740 LINE",
"-20 740 LINE",
"-20 600 LINE",
"462 600 LINE",
"462 491 LINE",
"365 491 LINE",
"344 491 LINE",
"190 491 OFFCURVE",
"59 427 OFFCURVE",
"59 239 CURVE SMOOTH",
"59 67 OFFCURVE",
"169 0 OFFCURVE",
"321 0 CURVE",
"353 0 LINE"
);
}
);
width = 701;
},
{
layerId = "3C02C8EC-C43C-4762-8B99-FE4CB64E6532";
paths = (
{
closed = 1;
nodes = (
"282.81 56 LINE",
"132.81 56 OFFCURVE",
"86.8 124 OFFCURVE",
"109.193 251 CURVE SMOOTH",
"133.527 389 OFFCURVE",
"237.343 439 OFFCURVE",
"362.343 439 CURVE SMOOTH",
"424.343 439 LINE",
"513.343 439 LINE",
"435.935 0 LINE",
"500.935 0 LINE",
"620.838 680 LINE",
"760.838 680 LINE",
"771.417 740 LINE",
"25.417 740 LINE",
"14.838 680 LINE",
"555.838 680 LINE",
"523.922 499 LINE",
"426.923 499 LINE",
"372.923 499 LINE SMOOTH",
"205.923 499 OFFCURVE",
"74.227 427 OFFCURVE",
"43.193 251 CURVE SMOOTH",
"17.626 106 OFFCURVE",
"74.583 -2 OFFCURVE",
"264.583 -2 CURVE SMOOTH",
"272.583 -2 LINE"
);
}
);
width = 666;
},
{
layerId = "AD4288EF-621A-4539-AF14-1A70F42B46A9";
paths = (
{
closed = 1;
nodes = (
"310.505 129 LINE",
"216.505 129 OFFCURVE",
"189.087 172 OFFCURVE",
"200.901 239 CURVE",
"214.478 316 OFFCURVE",
"270.65 351 OFFCURVE",
"343.65 351 CURVE",
"357.65 351 LINE",
"458.65 351 LINE",
"396.759 0 LINE",
"560.759 0 LINE",
"666.555 600 LINE",
"761.555 600 LINE",
"786.241 740 LINE",
"45.241 740 LINE",
"20.555 600 LINE",
"502.555 600 LINE",
"483.336 491 LINE",
"386.336 491 LINE",
"365.336 491 LINE",
"211.336 491 OFFCURVE",
"69.051 427 OFFCURVE",
"35.901 239 CURVE SMOOTH",
"5.573 67 OFFCURVE",
"103.759 0 OFFCURVE",
"255.759 0 CURVE",
"287.759 0 LINE"
);
}
);
width = 701;
}
);
},
{
glyphname = dvTHA;
lastChange = "2017-08-08 23:18:27 +0000";
layers = (
{
layerId = "C0ED9D5D-A651-429A-8F5D-D93A2EDA2DC0";
paths = (
{
closed = 1;
nodes = (
"791 680 LINE",
"791 740 LINE",
"586 740 LINE",
"586 341 LINE",
"581 235 OFFCURVE",
"490 159 OFFCURVE",
"382 159 CURVE SMOOTH",
"233 159 OFFCURVE",
"163 254 OFFCURVE",
"170 389 CURVE",
"329 385 OFFCURVE",
"478 406 OFFCURVE",
"478 570 CURVE SMOOTH",
"478 678 OFFCURVE",
"405 750 OFFCURVE",
"300 750 CURVE SMOOTH",
"183 750 OFFCURVE",
"115 667 OFFCURVE",
"118 552 CURVE",
"183 552 LINE",
"181 633 OFFCURVE",
"217 690 OFFCURVE",
"299 690 CURVE SMOOTH",
"371 690 OFFCURVE",
"413 646 OFFCURVE",
"413 574 CURVE SMOOTH",
"413 461 OFFCURVE",
"330 443 OFFCURVE",
"195 443 CURVE SMOOTH",
"167 443 OFFCURVE",
"137 444 OFFCURVE",
"105 445 CURVE",
"81 251 OFFCURVE",
"179 99 OFFCURVE",
"375 99 CURVE SMOOTH",
"493 99 OFFCURVE",
"560 157 OFFCURVE",
"586 204 CURVE",
"586 0 LINE",
"651 0 LINE",
"651 680 LINE"
);
}
);
width = 751;
},
{
layerId = "22D14058-393A-410A-BECB-F56B411A01B2";
paths = (
{
closed = 1;
nodes = (
"809 600 LINE",
"809 740 LINE",
"550 740 LINE",
"550 439 LINE SMOOTH",
"550 296 OFFCURVE",
"475 218 OFFCURVE",
"368 218 CURVE SMOOTH",
"268 218 OFFCURVE",
"224 277 OFFCURVE",
"232 347 CURVE",
"389 348 OFFCURVE",
"481 426 OFFCURVE",
"481 549 CURVE SMOOTH",
"481 685 OFFCURVE",
"385 747 OFFCURVE",
"276 747 CURVE SMOOTH",
"165 747 OFFCURVE",
"68 677 OFFCURVE",
"74 538 CURVE",
"223 538 LINE",
"220 581 OFFCURVE",
"239 607 OFFCURVE",
"273 607 CURVE SMOOTH",
"303 607 OFFCURVE",
"324 588 OFFCURVE",
"324 552 CURVE SMOOTH",
"324 491 OFFCURVE",
"263 468 OFFCURVE",
"176 468 CURVE SMOOTH",
"62 468 LINE",
"30 233 OFFCURVE",
"134 78 OFFCURVE",
"344 78 CURVE SMOOTH",
"450 78 OFFCURVE",
"520 126 OFFCURVE",
"550 175 CURVE",
"550 0 LINE",
"714 0 LINE",
"714 600 LINE"
);
}
);
width = 789;
},
{
layerId = "3C02C8EC-C43C-4762-8B99-FE4CB64E6532";
paths = (
{
closed = 1;
nodes = (
"844.78 680 LINE",
"855.359 740 LINE",
"650.359 740 LINE",
"580.005 341 LINE",
"556.314 235 OFFCURVE",
"451.913 159 OFFCURVE",
"343.913 159 CURVE SMOOTH",
"194.913 159 OFFCURVE",
"141.664 254 OFFCURVE",
"172.469 389 CURVE",
"330.763 385 OFFCURVE",
"483.466 406 OFFCURVE",
"512.384 570 CURVE SMOOTH",
"531.427 678 OFFCURVE",
"471.123 750 OFFCURVE",
"366.123 750 CURVE SMOOTH",
"249.123 750 OFFCURVE",
"166.487 667 OFFCURVE",
"149.21 552 CURVE",
"214.21 552 LINE",
"226.492 633 OFFCURVE",
"272.543 690 OFFCURVE",
"354.543 690 CURVE SMOOTH",
"426.543 690 OFFCURVE",
"460.785 646 OFFCURVE",
"448.089 574 CURVE SMOOTH",
"428.164 461 OFFCURVE",
"341.99 443 OFFCURVE",
"206.99 443 CURVE SMOOTH",
"178.99 443 OFFCURVE",
"149.167 444 OFFCURVE",
"117.343 445 CURVE",
"59.135 251 OFFCURVE",
"130.334 99 OFFCURVE",
"326.334 99 CURVE SMOOTH",
"444.334 99 OFFCURVE",
"521.561 157 OFFCURVE",
"555.848 204 CURVE",
"519.877 0 LINE",
"584.877 0 LINE",
"704.78 680 LINE"
);
}
);
width = 751;
},
{
layerId = "AD4288EF-621A-4539-AF14-1A70F42B46A9";
paths = (
{
closed = 1;
nodes = (
"848.938 600 LINE",
"873.624 740 LINE",
"614.624 740 LINE",
"561.549 439 LINE SMOOTH",
"536.335 296 OFFCURVE",
"447.581 218 OFFCURVE",
"340.581 218 CURVE SMOOTH",
"240.581 218 OFFCURVE",
"206.984 277 OFFCURVE",
"227.327 347 CURVE",
"384.504 348 OFFCURVE",
"490.257 426 OFFCURVE",
"511.945 549 CURVE SMOOTH",
"535.926 685 OFFCURVE",
"450.858 747 OFFCURVE",
"341.858 747 CURVE SMOOTH",
"230.858 747 OFFCURVE",
"121.515 677 OFFCURVE",
"103.006 538 CURVE",
"252.006 538 LINE",
"256.588 581 OFFCURVE",
"280.172 607 OFFCURVE",
"314.172 607 CURVE SMOOTH",
"344.172 607 OFFCURVE",
"361.822 588 OFFCURVE",
"355.474 552 CURVE SMOOTH",
"344.718 491 OFFCURVE",
"279.663 468 OFFCURVE",
"192.663 468 CURVE SMOOTH",
"78.663 468 LINE",
"5.226 233 OFFCURVE",
"81.895 78 OFFCURVE",
"291.895 78 CURVE SMOOTH",
"397.895 78 OFFCURVE",
"476.359 126 OFFCURVE",
"515 175 CURVE",
"484.142 0 LINE",
"648.142 0 LINE",
"753.938 600 LINE"
);
}
);
width = 789;
}
);
},
{
glyphname = dvDA;
lastChange = "2017-08-08 23:18:27 +0000";
layers = (
{
anchors = (
{
name = abvm.e;
position = "{474, 740}";
},
{
name = blwm.u;
position = "{514, 8}";
},
{
name = blwm.virama;
position = "{516, -35}";
}
);
layerId = "C0ED9D5D-A651-429A-8F5D-D93A2EDA2DC0";
paths = (
{
closed = 1;
nodes = (
"514 8 LINE",
"514 8 OFFCURVE",
"514 302 OFFCURVE",
"514 302 CURVE",
"514 302 OFFCURVE",
"455 302 OFFCURVE",
"455 302 CURVE",
"455 197 OFFCURVE",
"387 164 OFFCURVE",
"311 164 CURVE",
"201 164 OFFCURVE",
"129 217 OFFCURVE",
"129 331 CURVE SMOOTH",
"129 479 OFFCURVE",
"234 509 OFFCURVE",
"377 509 CURVE SMOOTH",
"474 509 LINE",
"474 680 LINE",
"632 680 LINE",
"632 740 LINE",
"-40 740 LINE",
"-40 680 LINE",
"409 680 LINE",
"409 569 LINE",
"365 569 LINE SMOOTH",
"189 569 OFFCURVE",
"63 505 OFFCURVE",
"63 331 CURVE SMOOTH",
"63 194 OFFCURVE",
"161 104 OFFCURVE",
"305 104 CURVE SMOOTH",
"367 104 OFFCURVE",
"424 126 OFFCURVE",
"449 162 CURVE",
"449 8 LINE"
);
}
);
width = 592;
},
{
anchors = (
{
name = abvm.e;
position = "{521, 740}";
},
{
name = blwm.u;
position = "{551, -28}";
},
{
name = blwm.virama;
position = "{551, -47}";
}
);
layerId = "22D14058-393A-410A-BECB-F56B411A01B2";
paths = (
{
closed = 1;
nodes = (
"551 -28 LINE",
"551 264 LINE",
"402 264 LINE",
"402 220 OFFCURVE",
"371 192 OFFCURVE",
"320 192 CURVE SMOOTH",
"260 192 OFFCURVE",
"222 223 OFFCURVE",
"222 284 CURVE SMOOTH",
"222 350 OFFCURVE",
"273 387 OFFCURVE",
"344 387 CURVE SMOOTH",
"521 387 LINE",
"521 600 LINE",
"633 600 LINE",
"633 740 LINE",
"-20 740 LINE",
"-20 600 LINE",
"357 600 LINE",
"357 532 LINE",
"334 532 LINE SMOOTH",
"177 532 OFFCURVE",
"58 454 OFFCURVE",
"58 291 CURVE SMOOTH",
"58 126 OFFCURVE",
"166 55 OFFCURVE",
"284 55 CURVE SMOOTH",
"334 55 OFFCURVE",
"369 69 OFFCURVE",
"388 88 CURVE",
"388 -28 LINE"
);
}
);
width = 613;
},
{
anchors = (
{
name = abvm.e;
position = "{538.536, 740}";
},
{
name = blwm.u;
position = "{449.464, 8}";
},
{
name = blwm.virama;
position = "{443.882, -35}";
}
);
layerId = "3C02C8EC-C43C-4762-8B99-FE4CB64E6532";
paths = (
{
closed = 1;
nodes = (
"449.464 8 LINE",
"449.464 8 OFFCURVE",
"501.304 302 OFFCURVE",
"501.304 302 CURVE",
"501.304 302 OFFCURVE",
"442.304 302 OFFCURVE",
"442.304 302 CURVE",
"423.79 197 OFFCURVE",
"349.971 164 OFFCURVE",
"273.971 164 CURVE",
"163.971 164 OFFCURVE",
"101.317 217 OFFCURVE",
"121.418 331 CURVE SMOOTH",
"147.514 479 OFFCURVE",
"257.804 509 OFFCURVE",
"400.804 509 CURVE SMOOTH",
"497.804 509 LINE",
"527.956 680 LINE",
"685.956 680 LINE",
"696.536 740 LINE",
"24.536 740 LINE",
"13.956 680 LINE",
"462.956 680 LINE",
"443.384 569 LINE",
"399.384 569 LINE SMOOTH",
"223.384 569 OFFCURVE",
"86.099 505 OFFCURVE",
"55.418 331 CURVE SMOOTH",
"31.261 194 OFFCURVE",
"113.392 104 OFFCURVE",
"257.392 104 CURVE SMOOTH",
"319.392 104 OFFCURVE",
"380.271 126 OFFCURVE",
"411.619 162 CURVE",
"384.464 8 LINE"
);
}
);
width = 592;
},
{
anchors = (
{
name = abvm.e;
position = "{588.71, 740}";
},
{
name = blwm.u;
position = "{483.29, -28}";
},
{
name = blwm.virama;
position = "{479.94, -47}";
}
);
layerId = "AD4288EF-621A-4539-AF14-1A70F42B46A9";
paths = (
{
closed = 1;
nodes = (
"483.29 -28 LINE",
"534.778 264 LINE",
"385.778 264 LINE",
"378.02 220 OFFCURVE",
"342.082 192 OFFCURVE",
"291.082 192 CURVE SMOOTH",
"231.082 192 OFFCURVE",
"198.549 223 OFFCURVE",
"209.304 284 CURVE SMOOTH",
"220.942 350 OFFCURVE",
"278.466 387 OFFCURVE",
"349.466 387 CURVE SMOOTH",
"526.466 387 LINE",
"564.024 600 LINE",
"676.024 600 LINE",
"700.71 740 LINE",
"47.71 740 LINE",
"23.024 600 LINE",
"400.024 600 LINE",
"388.034 532 LINE",
"365.034 532 LINE SMOOTH",
"208.034 532 OFFCURVE",
"75.28 454 OFFCURVE",
"46.539 291 CURVE SMOOTH",
"17.445 126 OFFCURVE",
"112.926 55 OFFCURVE",
"230.926 55 CURVE SMOOTH",
"280.926 55 OFFCURVE",
"318.394 69 OFFCURVE",
"340.744 88 CURVE",
"320.29 -28 LINE"
);
}
);
width = 613;
}
);
},
{
glyphname = dvDHA;
lastChange = "2017-08-08 23:18:27 +0000";
layers = (
{
layerId = "C0ED9D5D-A651-429A-8F5D-D93A2EDA2DC0";
paths = (
{
closed = 1;
nodes = (
"549 680 LINE",
"754 680 LINE",
"754 740 LINE",
"549 740 LINE"
);
},
{
closed = 1;
nodes = (
"614 0 LINE",
"614 690 LINE",
"614 690 OFFCURVE",
"549 698 OFFCURVE",
"549 698 CURVE",
"549 0 LINE"
);
},
{
closed = 1;
nodes = (
"371 568 CURVE",
"433 568 LINE",
"440 674 OFFCURVE",
"379 750 OFFCURVE",
"271 750 CURVE SMOOTH",
"171 750 OFFCURVE",
"105 681 OFFCURVE",
"105 586 CURVE SMOOTH",
"105 510 OFFCURVE",
"153 457 OFFCURVE",
"211 433 CURVE",
"211 427 LINE",
"147 404 OFFCURVE",
"107 357 OFFCURVE",
"107 287 CURVE SMOOTH",
"107 170 OFFCURVE",
"216 110 OFFCURVE",
"330 110 CURVE SMOOTH",
"467 110 OFFCURVE",
"578 182 OFFCURVE",
"576 305 CURVE",
"549 350 LINE",
"549 238 OFFCURVE",
"451 170 OFFCURVE",
"340 170 CURVE SMOOTH",
"259 170 OFFCURVE",
"172 202 OFFCURVE",
"172 286 CURVE SMOOTH",
"172 371 OFFCURVE",
"250 398 OFFCURVE",
"335 398 CURVE SMOOTH",
"335 398 OFFCURVE",
"383 398 OFFCURVE",
"383 398 CURVE",
"383 398 OFFCURVE",
"383 457 OFFCURVE",
"383 457 CURVE",
"335 457 LINE SMOOTH",
"239 457 OFFCURVE",
"170 497 OFFCURVE",
"170 588 CURVE SMOOTH",
"170 651 OFFCURVE",
"209 690 OFFCURVE",
"272 690 CURVE SMOOTH",
"345 690 OFFCURVE",
"373 639 OFFCURVE"
);
}
);
width = 714;
},
{
layerId = "22D14058-393A-410A-BECB-F56B411A01B2";
paths = (
{
closed = 1;
nodes = (
"500 600 LINE",
"757 600 LINE",
"757 740 LINE",
"500 740 LINE"
);
},
{
closed = 1;
nodes = (
"665 0 LINE",
"665 622 LINE",
"665 622 OFFCURVE",
"500 622 OFFCURVE",
"500 622 CURVE",
"500 0 LINE"
);
},
{
closed = 1;
nodes = (
"302 558 CURVE",
"431 558 LINE",
"439 669 OFFCURVE",
"373 750 OFFCURVE",
"251 750 CURVE SMOOTH",
"145 750 OFFCURVE",
"68 687 OFFCURVE",
"68 585 CURVE SMOOTH",
"68 498 OFFCURVE",
"118 443 OFFCURVE",
"183 422 CURVE",
"183 416 LINE",
"128 396 OFFCURVE",
"75 352 OFFCURVE",
"75 263 CURVE SMOOTH",
"75 142 OFFCURVE",
"190 78 OFFCURVE",
"308 78 CURVE SMOOTH",
"436 78 OFFCURVE",
"526 134 OFFCURVE",
"548 249 CURVE",
"500 374 LINE",
"500 276 OFFCURVE",
"435 213 OFFCURVE",
"344 213 CURVE SMOOTH",
"288 213 OFFCURVE",
"240 236 OFFCURVE",
"240 284 CURVE SMOOTH",
"240 338 OFFCURVE",
"295 354 OFFCURVE",
"359 354 CURVE SMOOTH",
"399 354 LINE",
"399 486 LINE",
"337 486 LINE SMOOTH",
"278 486 OFFCURVE",
"213 504 OFFCURVE",
"213 565 CURVE SMOOTH",
"213 593 OFFCURVE",
"233 610 OFFCURVE",
"257 610 CURVE SMOOTH",
"284 610 OFFCURVE",
"304 593 OFFCURVE"
);
}
);
width = 740;
},
{
layerId = "3C02C8EC-C43C-4762-8B99-FE4CB64E6532";
paths = (
{
closed = 1;
nodes = (
"602.78 680 LINE",
"807.78 680 LINE",
"818.359 740 LINE",
"613.359 740 LINE"
);
},
{
closed = 1;
nodes = (
"547.877 0 LINE",
"669.543 690 LINE",
"669.543 690 OFFCURVE",
"605.954 698 OFFCURVE",
"605.954 698 CURVE",
"482.877 0 LINE"
);
},
{
closed = 1;
nodes = (
"405.031 568 CURVE",
"467.031 568 LINE",
"492.722 674 OFFCURVE",
"445.123 750 OFFCURVE",
"337.123 750 CURVE SMOOTH",
"237.123 750 OFFCURVE",
"158.956 681 OFFCURVE",
"142.205 586 CURVE SMOOTH",
"128.804 510 OFFCURVE",
"167.459 457 OFFCURVE",
"221.227 433 CURVE",
"220.169 427 LINE",
"152.113 404 OFFCURVE",
"103.826 357 OFFCURVE",
"91.483 287 CURVE SMOOTH",
"70.853 170 OFFCURVE",
"169.273 110 OFFCURVE",
"283.273 110 CURVE SMOOTH",
"420.273 110 OFFCURVE",
"543.969 182 OFFCURVE",
"563.657 305 CURVE",
"544.592 350 LINE",
"524.843 238 OFFCURVE",
"414.853 170 OFFCURVE",
"303.853 170 CURVE SMOOTH",
"222.853 170 OFFCURVE",
"141.495 202 OFFCURVE",
"156.307 286 CURVE SMOOTH",
"171.295 371 OFFCURVE",
"254.056 398 OFFCURVE",
"339.056 398 CURVE SMOOTH",
"339.056 398 OFFCURVE",
"387.056 398 OFFCURVE",
"387.056 398 CURVE",
"387.056 398 OFFCURVE",
"397.459 457 OFFCURVE",
"397.459 457 CURVE",
"349.459 457 LINE SMOOTH",
"253.459 457 OFFCURVE",
"191.512 497 OFFCURVE",
"207.558 588 CURVE SMOOTH",
"218.666 651 OFFCURVE",
"264.543 690 OFFCURVE",
"327.543 690 CURVE SMOOTH",
"400.543 690 OFFCURVE",
"419.55 639 OFFCURVE"
);
}
);
width = 714;
},
{
layerId = "AD4288EF-621A-4539-AF14-1A70F42B46A9";
paths = (
{
closed = 1;
nodes = (
"539.674 600 LINE",
"796.674 600 LINE",
"821.359 740 LINE",
"564.359 740 LINE"
);
},
{
closed = 1;
nodes = (
"598.877 0 LINE",
"708.553 622 LINE",
"708.553 622 OFFCURVE",
"543.553 622 OFFCURVE",
"543.553 622 CURVE",
"433.877 0 LINE"
);
},
{
closed = 1;
nodes = (
"334.268 558 CURVE",
"463.268 558 LINE",
"490.84 669 OFFCURVE",
"439.123 750 OFFCURVE",
"317.123 750 CURVE SMOOTH",
"211.123 750 OFFCURVE",
"123.014 687 OFFCURVE",
"105.029 585 CURVE SMOOTH",
"89.688 498 OFFCURVE",
"129.99 443 OFFCURVE",
"191.287 422 CURVE",
"190.229 416 LINE",
"131.703 396 OFFCURVE",
"70.944 352 OFFCURVE",
"55.251 263 CURVE SMOOTH",
"33.916 142 OFFCURVE",
"137.631 78 OFFCURVE",
"255.631 78 CURVE SMOOTH",
"383.631 78 OFFCURVE",
"483.505 134 OFFCURVE",
"525.783 249 CURVE",
"499.824 374 LINE",
"482.544 276 OFFCURVE",
"406.435 213 OFFCURVE",
"315.435 213 CURVE SMOOTH",
"259.435 213 OFFCURVE",
"215.491 236 OFFCURVE",
"223.954 284 CURVE SMOOTH",
"233.476 338 OFFCURVE",
"291.297 354 OFFCURVE",
"355.297 354 CURVE SMOOTH",
"395.297 354 LINE",
"418.572 486 LINE",
"356.572 486 LINE SMOOTH",
"297.572 486 OFFCURVE",
"235.746 504 OFFCURVE",
"246.502 565 CURVE SMOOTH",
"251.439 593 OFFCURVE",
"274.437 610 OFFCURVE",
"298.437 610 CURVE SMOOTH",
"325.437 610 OFFCURVE",
"342.439 593 OFFCURVE"
);
}
);
width = 740;
}
);
},
{
glyphname = dvNA;
lastChange = "2017-08-08 23:18:27 +0000";
layers = (
{
layerId = "C0ED9D5D-A651-429A-8F5D-D93A2EDA2DC0";
paths = (
{
closed = 1;
nodes = (
"610 0 LINE",
"675 0 LINE",
"675 680 LINE",
"815 680 LINE",
"815 740 LINE",
"-40 740 LINE",
"-40 680 LINE",
"610 680 LINE",
"610 487 LINE",
"290 487 LINE SMOOTH",
"139 487 OFFCURVE",
"67 413 OFFCURVE",
"67 298 CURVE SMOOTH",
"67 182 OFFCURVE",
"156 110 OFFCURVE",
"268 110 CURVE SMOOTH",
"384 110 OFFCURVE",
"456 190 OFFCURVE",
"456 293 CURVE SMOOTH",
"456 352 OFFCURVE",
"432 404 OFFCURVE",
"385 429 CURVE",
"610 429 LINE"
);
},
{
closed = 1;
nodes = (
"263 428 CURVE SMOOTH",
"343 428 OFFCURVE",
"392 375 OFFCURVE",
"392 298 CURVE SMOOTH",
"392 212 OFFCURVE",
"331 169 OFFCURVE",
"268 169 CURVE SMOOTH",
"198 169 OFFCURVE",
"132 207 OFFCURVE",
"132 298 CURVE SMOOTH",
"132 382 OFFCURVE",
"193 428 OFFCURVE"
);
}
);
width = 775;
},
{
layerId = "22D14058-393A-410A-BECB-F56B411A01B2";
paths = (
{
closed = 1;
nodes = (
"571 0 LINE",
"735 0 LINE",
"735 600 LINE",
"830 600 LINE",
"830 740 LINE",
"-20 740 LINE",
"-20 600 LINE",
"571 600 LINE",
"571 489 LINE",
"274 489 LINE SMOOTH",
"134 489 OFFCURVE",
"28 419 OFFCURVE",
"28 279 CURVE SMOOTH",
"28 145 OFFCURVE",
"122 60 OFFCURVE",
"256 60 CURVE SMOOTH",
"381 60 OFFCURVE",
"466 127 OFFCURVE",
"466 247 CURVE SMOOTH",
"466 288 OFFCURVE",
"450 330 OFFCURVE",
"431 351 CURVE",
"571 351 LINE"
);
},
{
closed = 1;
nodes = (
"255 349 CURVE SMOOTH",
"303 349 OFFCURVE",
"329 324 OFFCURVE",
"329 277 CURVE SMOOTH",
"329 231 OFFCURVE",
"303 200 OFFCURVE",
"255 200 CURVE SMOOTH",
"209 200 OFFCURVE",
"176 231 OFFCURVE",
"176 277 CURVE SMOOTH",
"176 325 OFFCURVE",
"209 349 OFFCURVE"
);
}
);
width = 810;
},
{
layerId = "3C02C8EC-C43C-4762-8B99-FE4CB64E6532";
paths = (
{
closed = 1;
nodes = (
"544.759 0 LINE",
"609.759 0 LINE",
"729.661 680 LINE",
"869.661 680 LINE",
"880.241 740 LINE",
"25.241 740 LINE",
"14.661 680 LINE",
"664.661 680 LINE",
"630.63 487 LINE",
"310.63 487 LINE SMOOTH",
"159.63 487 OFFCURVE",
"74.582 413 OFFCURVE",
"54.304 298 CURVE SMOOTH",
"33.851 182 OFFCURVE",
"110.155 110 OFFCURVE",
"222.155 110 CURVE SMOOTH",
"338.155 110 OFFCURVE",
"424.261 190 OFFCURVE",
"442.423 293 CURVE SMOOTH",
"452.826 352 OFFCURVE",
"437.995 404 OFFCURVE",
"395.403 429 CURVE",
"620.403 429 LINE"
);
},
{
closed = 1;
nodes = (
"273.227 428 CURVE SMOOTH",
"353.227 428 OFFCURVE",
"392.882 375 OFFCURVE",
"379.304 298 CURVE SMOOTH",
"364.14 212 OFFCURVE",
"295.558 169 OFFCURVE",
"232.558 169 CURVE SMOOTH",
"162.558 169 OFFCURVE",
"103.259 207 OFFCURVE",
"119.304 298 CURVE SMOOTH",
"134.116 382 OFFCURVE",
"203.227 428 OFFCURVE"
);
}
);
width = 775;
},
{
layerId = "AD4288EF-621A-4539-AF14-1A70F42B46A9";
paths = (
{
closed = 1;
nodes = (
"505.759 0 LINE",
"669.759 0 LINE",
"775.555 600 LINE",
"870.555 600 LINE",
"895.241 740 LINE",
"45.241 740 LINE",
"20.555 600 LINE",
"611.555 600 LINE",
"591.983 489 LINE",
"294.983 489 LINE SMOOTH",
"154.983 489 OFFCURVE",
"36.64 419 OFFCURVE",
"11.954 279 CURVE SMOOTH",
"-11.674 145 OFFCURVE",
"67.339 60 OFFCURVE",
"201.339 60 CURVE SMOOTH",
"326.339 60 OFFCURVE",
"423.153 127 OFFCURVE",
"444.312 247 CURVE SMOOTH",
"451.541 288 OFFCURVE",
"442.947 330 OFFCURVE",
"427.65 351 CURVE",
"567.65 351 LINE"
);
},
{
closed = 1;
nodes = (
"251.297 349 CURVE SMOOTH",
"299.297 349 OFFCURVE",
"320.889 324 OFFCURVE",
"312.602 277 CURVE SMOOTH",
"304.491 231 OFFCURVE",
"273.024 200 OFFCURVE",
"225.024 200 CURVE SMOOTH",
"179.024 200 OFFCURVE",
"151.491 231 OFFCURVE",
"159.602 277 CURVE SMOOTH",
"168.065 325 OFFCURVE",
"205.297 349 OFFCURVE"
);
}
);
width = 810;
}
);
},
{
glyphname = dvPA;
lastChange = "2017-08-08 23:18:27 +0000";
layers = (
{
layerId = "C0ED9D5D-A651-429A-8F5D-D93A2EDA2DC0";
paths = (
{
closed = 1;
nodes = (
"478 0 LINE",
"543 0 LINE",
"543 680 LINE",
"543 680 OFFCURVE",
"683 680 OFFCURVE",
"683 680 CURVE",
"683 740 LINE",
"-40 740 LINE",
"-40 680 LINE",
"93 680 LINE",
"93 456 LINE SMOOTH",
"93 315 OFFCURVE",
"163 209 OFFCURVE",
"304 209 CURVE SMOOTH",
"451 209 OFFCURVE",
"491 311 OFFCURVE",
"498 355 CURVE",
"478 444 LINE",
"478 345 OFFCURVE",
"412 269 OFFCURVE",
"318 269 CURVE SMOOTH",
"203 269 OFFCURVE",
"158 345 OFFCURVE",
"158 460 CURVE SMOOTH",
"158 680 LINE",
"478 680 LINE"
);
}
);
width = 643;
},
{
layerId = "22D14058-393A-410A-BECB-F56B411A01B2";
paths = (
{
closed = 1;
nodes = (
"453 0 LINE",
"618 0 LINE",
"618 600 LINE",
"713 600 LINE",
"713 740 LINE",
"-20 740 LINE",
"-20 600 LINE",
"80 600 LINE",
"80 426 LINE SMOOTH",
"80 280 OFFCURVE",
"158 166 OFFCURVE",
"306 166 CURVE SMOOTH",
"437 166 OFFCURVE",
"487 251 OFFCURVE",
"493 342 CURVE",
"453 423 LINE",
"453 348 OFFCURVE",
"416 305 OFFCURVE",
"351 305 CURVE SMOOTH",
"272 305 OFFCURVE",
"245 352 OFFCURVE",
"245 422 CURVE SMOOTH",
"245 600 LINE",
"453 600 LINE"
);
}
);
width = 693;
},
{
layerId = "3C02C8EC-C43C-4762-8B99-FE4CB64E6532";
paths = (
{
closed = 1;
nodes = (
"412.759 0 LINE",
"477.759 0 LINE",
"597.661 680 LINE",
"597.661 680 OFFCURVE",
"737.661 680 OFFCURVE",
"737.661 680 CURVE",
"748.241 740 LINE",
"25.241 740 LINE",
"14.661 680 LINE",
"147.661 680 LINE",
"108.164 456 LINE SMOOTH",
"83.302 315 OFFCURVE",
"134.611 209 OFFCURVE",
"275.611 209 CURVE SMOOTH",
"422.611 209 OFFCURVE",
"480.597 311 OFFCURVE",
"495.355 355 CURVE",
"491.048 444 LINE",
"473.592 345 OFFCURVE",
"394.191 269 OFFCURVE",
"300.191 269 CURVE SMOOTH",
"185.191 269 OFFCURVE",
"153.592 345 OFFCURVE",
"173.869 460 CURVE SMOOTH",
"212.661 680 LINE",
"532.661 680 LINE"
);
}
);
width = 643;
},
{
layerId = "AD4288EF-621A-4539-AF14-1A70F42B46A9";
paths = (
{
closed = 1;
nodes = (
"387.759 0 LINE",
"552.759 0 LINE",
"658.555 600 LINE",
"753.555 600 LINE",
"778.241 740 LINE",
"45.241 740 LINE",
"20.555 600 LINE",
"120.555 600 LINE",
"89.874 426 LINE SMOOTH",
"64.131 280 OFFCURVE",
"122.029 166 OFFCURVE",
"270.029 166 CURVE SMOOTH",
"401.029 166 OFFCURVE",
"466.017 251 OFFCURVE",
"488.063 342 CURVE",
"462.345 423 LINE",
"449.121 348 OFFCURVE",
"404.539 305 OFFCURVE",
"339.539 305 CURVE SMOOTH",
"260.539 305 OFFCURVE",
"241.826 352 OFFCURVE",
"254.169 422 CURVE SMOOTH",
"285.555 600 LINE",
"493.555 600 LINE"
);
}
);
width = 693;
}
);
},
{
glyphname = dvPHA;
lastChange = "2017-08-08 23:18:27 +0000";
layers = (
{
anchors = (
{
name = abvm.e;
position = "{531, 740}";
},
{
name = blwm.u;
position = "{531, 0}";
},
{
name = blwm.virama;
position = "{531, 0}";
}
);
layerId = "C0ED9D5D-A651-429A-8F5D-D93A2EDA2DC0";
paths = (
{
closed = 1;
nodes = (
"466 0 LINE",
"531 0 LINE",
"531 680 LINE",
"531 680 OFFCURVE",
"1035 680 OFFCURVE",
"1035 680 CURVE",
"1035 740 LINE",
"-40 740 LINE",
"-40 680 LINE",
"101 680 LINE",
"101 490 LINE SMOOTH",
"101 350 OFFCURVE",
"166 246 OFFCURVE",
"305 246 CURVE SMOOTH",
"427 246 OFFCURVE",
"484 333 OFFCURVE",
"491 404 CURVE",
"466 488 LINE",
"466 391 OFFCURVE",
"413 306 OFFCURVE",
"319 306 CURVE SMOOTH",
"203 306 OFFCURVE",
"166 375 OFFCURVE",
"166 491 CURVE SMOOTH",
"166 680 LINE",
"466 680 LINE"
);
},
{
closed = 1;
nodes = (
"665 108 LINE",
"820 98 OFFCURVE",
"926 184 OFFCURVE",
"926 321 CURVE SMOOTH",
"926 453 OFFCURVE",
"840 543 OFFCURVE",
"710 543 CURVE SMOOTH",
"549 543 OFFCURVE",
"489 419 OFFCURVE",
"500 305 CURVE",
"531 294 LINE",
"531 402 OFFCURVE",
"592 483 OFFCURVE",
"700 483 CURVE SMOOTH",
"804 483 OFFCURVE",
"861 425 OFFCURVE",
"861 321 CURVE SMOOTH",
"861 216 OFFCURVE",
"780 155 OFFCURVE",
"665 166 CURVE"
);
}
);
width = 995;
},
{
anchors = (
{
name = abvm.e;
position = "{595, 740}";
},
{
name = blwm.u;
position = "{595, 0}";
},
{
name = blwm.virama;
position = "{595, 0}";
}
);
layerId = "22D14058-393A-410A-BECB-F56B411A01B2";
paths = (
{
closed = 1;
nodes = (
"430 0 LINE",
"595 0 LINE",
"595 600 LINE",
"992 600 LINE",
"992 740 LINE",
"-20 740 LINE",
"-20 600 LINE",
"77 600 LINE",
"77 450 LINE SMOOTH",
"77 304 OFFCURVE",
"145 186 OFFCURVE",
"293 186 CURVE SMOOTH",
"424 186 OFFCURVE",
"466 276 OFFCURVE",
"471 374 CURVE",
"430 453 LINE",
"430 375 OFFCURVE",
"405 325 OFFCURVE",
"338 325 CURVE SMOOTH",
"259 325 OFFCURVE",
"242 376 OFFCURVE",
"242 446 CURVE SMOOTH",
"242 600 LINE",
"430 600 LINE"
);
},
{
closed = 1;
nodes = (
"673 79 LINE",
"835 59 OFFCURVE",
"938 150 OFFCURVE",
"938 307 CURVE SMOOTH",
"938 432 OFFCURVE",
"861 531 OFFCURVE",
"730 531 CURVE SMOOTH",
"597 531 OFFCURVE",
"538 430 OFFCURVE",
"562 309 CURVE",
"595 287 LINE",
"595 345 OFFCURVE",
"631 390 OFFCURVE",
"690 390 CURVE SMOOTH",
"747 390 OFFCURVE",
"781 354 OFFCURVE",
"781 302 CURVE SMOOTH",
"781 237 OFFCURVE",
"742 210 OFFCURVE",
"672 213 CURVE"
);
}
);
width = 972;
},
{
anchors = (
{
name = abvm.e;
position = "{596.241, 740}";
},
{
name = blwm.u;
position = "{465.759, 0}";
},
{
name = blwm.virama;
position = "{465.759, 0}";
}
);
layerId = "3C02C8EC-C43C-4762-8B99-FE4CB64E6532";
paths = (
{
closed = 1;
nodes = (
"400.759 0 LINE",
"465.759 0 LINE",
"585.661 680 LINE",
"585.661 680 OFFCURVE",
"1089.661 680 OFFCURVE",
"1089.661 680 CURVE",
"1100.241 740 LINE",
"25.241 740 LINE",
"14.661 680 LINE",
"155.661 680 LINE",
"122.159 490 LINE SMOOTH",
"97.473 350 OFFCURVE",
"144.135 246 OFFCURVE",
"283.135 246 CURVE SMOOTH",
"405.135 246 OFFCURVE",
"477.476 333 OFFCURVE",
"496.995 404 CURVE",
"486.807 488 LINE",
"469.703 391 OFFCURVE",
"401.715 306 OFFCURVE",
"307.715 306 CURVE SMOOTH",
"191.715 306 OFFCURVE",
"166.882 375 OFFCURVE",
"187.336 491 CURVE SMOOTH",
"220.661 680 LINE",
"520.661 680 LINE"
);
},
{
closed = 1;
nodes = (
"618.802 108 LINE",
"772.039 98 OFFCURVE",
"893.203 184 OFFCURVE",
"917.36 321 CURVE SMOOTH",
"940.635 453 OFFCURVE",
"870.505 543 OFFCURVE",
"740.505 543 CURVE SMOOTH",
"579.505 543 OFFCURVE",
"497.64 419 OFFCURVE",
"488.539 305 CURVE",
"517.599 294 LINE",
"536.642 402 OFFCURVE",
"611.925 483 OFFCURVE",
"719.925 483 CURVE SMOOTH",
"823.925 483 OFFCURVE",
"870.698 425 OFFCURVE",
"852.36 321 CURVE SMOOTH",
"833.846 216 OFFCURVE",
"742.09 155 OFFCURVE",
"629.029 166 CURVE"
);
}
);
width = 995;
},
{
anchors = (
{
name = abvm.e;
position = "{660.241, 740}";
},
{
name = blwm.u;
position = "{529.759, 0}";
},
{
name = blwm.virama;
position = "{529.759, 0}";
}
);
layerId = "AD4288EF-621A-4539-AF14-1A70F42B46A9";
paths = (
{
closed = 1;
nodes = (
"364.759 0 LINE",
"529.759 0 LINE",
"635.555 600 LINE",
"1032.555 600 LINE",
"1057.241 740 LINE",
"45.241 740 LINE",
"20.555 600 LINE",
"117.555 600 LINE",
"91.106 450 LINE SMOOTH",
"65.362 304 OFFCURVE",
"112.556 186 OFFCURVE",
"260.556 186 CURVE SMOOTH",
"391.556 186 OFFCURVE",
"449.425 276 OFFCURVE",
"471.705 374 CURVE",
"444.635 453 LINE",
"430.882 375 OFFCURVE",
"397.065 325 OFFCURVE",
"330.065 325 CURVE SMOOTH",
"251.065 325 OFFCURVE",
"243.058 376 OFFCURVE",
"255.401 446 CURVE SMOOTH",
"282.555 600 LINE",
"470.555 600 LINE"
);
},
{
closed = 1;
nodes = (
"621.689 79 LINE",
"780.162 59 OFFCURVE",
"899.208 150 OFFCURVE",
"926.891 307 CURVE SMOOTH",
"948.932 432 OFFCURVE",
"889.389 531 OFFCURVE",
"758.389 531 CURVE SMOOTH",
"625.389 531 OFFCURVE",
"548.58 430 OFFCURVE",
"551.244 309 CURVE",
"580.365 287 LINE",
"590.592 345 OFFCURVE",
"634.527 390 OFFCURVE",
"693.527 390 CURVE SMOOTH",
"750.527 390 OFFCURVE",
"778.179 354 OFFCURVE",
"769.01 302 CURVE SMOOTH",
"757.549 237 OFFCURVE",
"713.788 210 OFFCURVE",
"644.317 213 CURVE"
);
}
);
width = 972;
}
);
},
{
glyphname = dvBA;
lastChange = "2017-08-08 23:18:27 +0000";
layers = (
{
layerId = "C0ED9D5D-A651-429A-8F5D-D93A2EDA2DC0";
paths = (
{
closed = 1;
nodes = (
"314 94 CURVE SMOOTH",
"406 94 OFFCURVE",
"472 135 OFFCURVE",
"508 194 CURVE",
"508 0 LINE",
"573 0 LINE",
"573 680 LINE",
"713 680 LINE",
"713 740 LINE",
"-40 740 LINE",
"-40 680 LINE",
"508 680 LINE",
"508 483 LINE",
"472 542 OFFCURVE",
"406 584 OFFCURVE",
"314 584 CURVE SMOOTH",
"171 584 OFFCURVE",
"62 484 OFFCURVE",
"62 339 CURVE SMOOTH",
"62 194 OFFCURVE",
"171 94 OFFCURVE"
);
},
{
closed = 1;
nodes = (
"127 339 CURVE SMOOTH",
"127 455 OFFCURVE",
"208 524 OFFCURVE",
"324 524 CURVE SMOOTH",
"432 524 OFFCURVE",
"508 447 OFFCURVE",
"508 339 CURVE",
"508 229 OFFCURVE",
"429 154 OFFCURVE",
"324 154 CURVE SMOOTH",
"208 154 OFFCURVE",
"127 223 OFFCURVE"
);
},
{
closed = 1;
nodes = (
"484 182 LINE",
"522 220 LINE",
"158 513 LINE",
"137 462 LINE"
);
}
);
width = 673;
},
{
layerId = "22D14058-393A-410A-BECB-F56B411A01B2";
paths = (
{
closed = 1;
nodes = (
"279 54 CURVE SMOOTH",
"345 54 OFFCURVE",
"401 75 OFFCURVE",
"435 115 CURVE",
"435 0 LINE",
"592 0 LINE",
"592 600 LINE",
"687 600 LINE",
"687 740 LINE",
"-20 740 LINE",
"-20 600 LINE",
"435 600 LINE",
"435 490 LINE",
"401 530 OFFCURVE",
"345 552 OFFCURVE",
"279 552 CURVE SMOOTH",
"138 552 OFFCURVE",
"35 449 OFFCURVE",
"35 303 CURVE SMOOTH",
"35 157 OFFCURVE",
"138 54 OFFCURVE"
);
},
{
closed = 1;
nodes = (
"177 303 CURVE SMOOTH",
"177 379 OFFCURVE",
"236 431 OFFCURVE",
"312 431 CURVE SMOOTH",
"388 431 OFFCURVE",
"444 379 OFFCURVE",
"444 303 CURVE SMOOTH",
"444 227 OFFCURVE",
"388 175 OFFCURVE",
"312 175 CURVE SMOOTH",
"236 175 OFFCURVE",
"177 223 OFFCURVE"
);
},
{
closed = 1;
nodes = (
"414 183 LINE",
"500 234 LINE",
"164 459 LINE",
"104 390 LINE"
);
}
);
width = 667;
},
{
layerId = "3C02C8EC-C43C-4762-8B99-FE4CB64E6532";
paths = (
{
closed = 1;
nodes = (
"265.334 94 CURVE SMOOTH",
"357.334 94 OFFCURVE",
"430.563 135 OFFCURVE",
"476.966 194 CURVE",
"442.759 0 LINE",
"507.759 0 LINE",
"627.661 680 LINE",
"767.661 680 LINE",
"778.241 740 LINE",
"25.241 740 LINE",
"14.661 680 LINE",
"562.661 680 LINE",
"527.925 483 LINE",
"502.328 542 OFFCURVE",
"443.734 584 OFFCURVE",
"351.734 584 CURVE SMOOTH",
"208.734 584 OFFCURVE",
"82.101 484 OFFCURVE",
"56.534 339 CURVE SMOOTH",
"30.966 194 OFFCURVE",
"122.334 94 OFFCURVE"
);
},
{
closed = 1;
nodes = (
"121.534 339 CURVE SMOOTH",
"141.988 455 OFFCURVE",
"235.154 524 OFFCURVE",
"351.154 524 CURVE SMOOTH",
"459.154 524 OFFCURVE",
"521.577 447 OFFCURVE",
"502.534 339 CURVE",
"483.138 229 OFFCURVE",
"390.913 154 OFFCURVE",
"285.913 154 CURVE SMOOTH",
"169.913 154 OFFCURVE",
"101.08 223 OFFCURVE"
);
},
{
closed = 1;
nodes = (
"450.851 182 LINE",
"495.551 220 LINE",
"183.215 513 LINE",
"153.222 462 LINE"
);
}
);
width = 673;
},
{
layerId = "AD4288EF-621A-4539-AF14-1A70F42B46A9";
paths = (
{
closed = 1;
nodes = (
"223.281 54 CURVE SMOOTH",
"289.281 54 OFFCURVE",
"348.984 75 OFFCURVE",
"390.037 115 CURVE",
"369.759 0 LINE",
"526.759 0 LINE",
"632.555 600 LINE",
"727.555 600 LINE",
"752.241 740 LINE",
"45.241 740 LINE",
"20.555 600 LINE",
"475.555 600 LINE",
"456.159 490 LINE",
"429.212 530 OFFCURVE",
"377.092 552 OFFCURVE",
"311.092 552 CURVE SMOOTH",
"170.092 552 OFFCURVE",
"48.93 449 OFFCURVE",
"23.186 303 CURVE SMOOTH",
"-2.558 157 OFFCURVE",
"82.281 54 OFFCURVE"
);
},
{
closed = 1;
nodes = (
"165.186 303 CURVE SMOOTH",
"178.587 379 OFFCURVE",
"246.756 431 OFFCURVE",
"322.756 431 CURVE SMOOTH",
"398.756 431 OFFCURVE",
"445.587 379 OFFCURVE",
"432.186 303 CURVE SMOOTH",
"418.785 227 OFFCURVE",
"353.616 175 OFFCURVE",
"277.616 175 CURVE SMOOTH",
"201.616 175 OFFCURVE",
"151.08 223 OFFCURVE"
);
},
{
closed = 1;
nodes = (
"381.027 183 LINE",
"476.02 234 LINE",
"179.693 459 LINE",
"107.527 390 LINE"
);
}
);
width = 667;
}
);
},
{
glyphname = dvBHA;
lastChange = "2017-08-08 23:18:27 +0000";
layers = (
{
layerId = "C0ED9D5D-A651-429A-8F5D-D93A2EDA2DC0";
paths = (
{
closed = 1;
nodes = (
"620 0 LINE",
"685 0 LINE",
"685 730 LINE",
"685 730 OFFCURVE",
"620 730 OFFCURVE",
"620 730 CURVE"
);
},
{
closed = 1;
nodes = (
"825 680 LINE",
"825 740 LINE",
"620 740 LINE",
"620 680 LINE"
);
},
{
closed = 1;
nodes = (
"383 326 LINE",
"383 228 OFFCURVE",
"362 169 OFFCURVE",
"274 169 CURVE SMOOTH",
"209 169 OFFCURVE",
"162 214 OFFCURVE",
"162 278 CURVE SMOOTH",
"162 369 OFFCURVE",
"227 390 OFFCURVE",
"321 390 CURVE SMOOTH",
"663 390 LINE",
"663 448 LINE",
"328 448 LINE SMOOTH",
"172 448 OFFCURVE",
"97 395 OFFCURVE",
"97 280 CURVE SMOOTH",
"97 180 OFFCURVE",
"176 110 OFFCURVE",
"275 110 CURVE SMOOTH",
"394 110 OFFCURVE",
"447 185 OFFCURVE",
"447 326 CURVE SMOOTH",
"447 541 LINE",
"447 666 OFFCURVE",
"399 745 OFFCURVE",
"284 745 CURVE SMOOTH",
"168 745 OFFCURVE",
"122 665 OFFCURVE",
"122 536 CURVE",
"185 536 LINE",
"185 627 OFFCURVE",
"205 685 OFFCURVE",
"283 685 CURVE SMOOTH",
"362 685 OFFCURVE",
"383 625 OFFCURVE",
"383 541 CURVE"
);
}
);
width = 785;
},
{
layerId = "22D14058-393A-410A-BECB-F56B411A01B2";
paths = (
{
closed = 1;
nodes = (
"629 0 LINE",
"793 0 LINE",
"793 723 LINE",
"629 723 LINE"
);
},
{
closed = 1;
nodes = (
"888 600 LINE",
"888 740 LINE",
"629 740 LINE",
"629 600 LINE"
);
},
{
closed = 1;
nodes = (
"355 286 LINE",
"355 233 OFFCURVE",
"340 196 OFFCURVE",
"290 196 CURVE SMOOTH",
"250 196 OFFCURVE",
"220 220 OFFCURVE",
"220 261 CURVE SMOOTH",
"220 312 OFFCURVE",
"262 332 OFFCURVE",
"313 332 CURVE SMOOTH",
"785 332 LINE",
"785 466 LINE",
"311 466 LINE SMOOTH",
"170 466 OFFCURVE",
"68 407 OFFCURVE",
"68 266 CURVE SMOOTH",
"68 139 OFFCURVE",
"168 58 OFFCURVE",
"294 58 CURVE SMOOTH",
"439 58 OFFCURVE",
"509 148 OFFCURVE",
"509 292 CURVE SMOOTH",
"509 509 LINE",
"509 654 OFFCURVE",
"458 750 OFFCURVE",
"307 750 CURVE SMOOTH",
"149 750 OFFCURVE",
"99 652 OFFCURVE",
"101 512 CURVE",
"265 512 LINE",
"265 557 OFFCURVE",
"265 608 OFFCURVE",
"310 608 CURVE SMOOTH",
"355 608 OFFCURVE",
"355 557 OFFCURVE",
"355 512 CURVE SMOOTH"
);
}
);
width = 868;
},
{
layerId = "3C02C8EC-C43C-4762-8B99-FE4CB64E6532";
paths = (
{
closed = 1;
nodes = (
"554.318 0 LINE",
"619.318 0 LINE",
"748.037 730 LINE",
"748.037 730 OFFCURVE",
"683.037 730 OFFCURVE",
"683.037 730 CURVE"
);
},
{
closed = 1;
nodes = (
"879.221 680 LINE",
"889.8 740 LINE",
"684.8 740 LINE",
"674.221 680 LINE"
);
},
{
closed = 1;
nodes = (
"374.801 326 LINE",
"357.521 228 OFFCURVE",
"326.117 169 OFFCURVE",
"238.117 169 CURVE SMOOTH",
"173.117 169 OFFCURVE",
"134.052 214 OFFCURVE",
"145.337 278 CURVE SMOOTH",
"161.383 369 OFFCURVE",
"230.086 390 OFFCURVE",
"324.086 390 CURVE SMOOTH",
"666.086 390 LINE",
"676.313 448 LINE",
"341.313 448 LINE SMOOTH",
"185.313 448 OFFCURVE",
"100.967 395 OFFCURVE",
"80.69 280 CURVE SMOOTH",
"63.057 180 OFFCURVE",
"129.714 110 OFFCURVE",
"228.714 110 CURVE SMOOTH",
"347.714 110 OFFCURVE",
"413.939 185 OFFCURVE",
"438.801 326 CURVE SMOOTH",
"476.711 541 LINE",
"498.752 666 OFFCURVE",
"464.682 745 OFFCURVE",
"349.682 745 CURVE SMOOTH",
"233.682 745 OFFCURVE",
"173.576 665 OFFCURVE",
"150.829 536 CURVE",
"213.829 536 LINE",
"229.875 627 OFFCURVE",
"260.102 685 OFFCURVE",
"338.102 685 CURVE SMOOTH",
"417.102 685 OFFCURVE",
"427.523 625 OFFCURVE",
"412.711 541 CURVE"
);
}
);
width = 785;
},
{
layerId = "AD4288EF-621A-4539-AF14-1A70F42B46A9";
paths = (
{
closed = 1;
nodes = (
"562.877 0 LINE",
"726.877 0 LINE",
"854.362 723 LINE",
"690.362 723 LINE"
);
},
{
closed = 1;
nodes = (
"927.674 600 LINE",
"952.359 740 LINE",
"693.359 740 LINE",
"668.674 600 LINE"
);
},
{
closed = 1;
nodes = (
"339.307 286 LINE",
"329.962 233 OFFCURVE",
"308.437 196 OFFCURVE",
"258.437 196 CURVE SMOOTH",
"218.437 196 OFFCURVE",
"192.669 220 OFFCURVE",
"199.899 261 CURVE SMOOTH",
"208.891 312 OFFCURVE",
"254.418 332 OFFCURVE",
"305.418 332 CURVE SMOOTH",
"777.418 332 LINE",
"801.046 466 LINE",
"327.046 466 LINE SMOOTH",
"186.046 466 OFFCURVE",
"73.642 407 OFFCURVE",
"48.78 266 CURVE SMOOTH",
"26.387 139 OFFCURVE",
"112.104 58 OFFCURVE",
"238.104 58 CURVE SMOOTH",
"383.104 58 OFFCURVE",
"468.974 148 OFFCURVE",
"494.365 292 CURVE SMOOTH",
"532.628 509 LINE",
"558.195 654 OFFCURVE",
"524.123 750 OFFCURVE",
"373.123 750 CURVE SMOOTH",
"215.123 750 OFFCURVE",
"147.843 652 OFFCURVE",
"125.157 512 CURVE",
"289.157 512 LINE",
"297.092 557 OFFCURVE",
"306.084 608 OFFCURVE",
"351.084 608 CURVE SMOOTH",
"396.084 608 OFFCURVE",
"387.092 557 OFFCURVE",
"379.157 512 CURVE SMOOTH"
);
}
);
width = 868;
}
);
},
{
glyphname = dvMA;
lastChange = "2017-08-08 23:18:27 +0000";
layers = (
{
layerId = "C0ED9D5D-A651-429A-8F5D-D93A2EDA2DC0";
paths = (
{
closed = 1;
nodes = (
"598 0 LINE",
"663 0 LINE",
"663 730 LINE",
"663 730 OFFCURVE",
"598 730 OFFCURVE",
"598 730 CURVE"
);
},
{
closed = 1;
nodes = (
"803 680 LINE",
"803 740 LINE",
"-40 740 LINE",
"-40 680 LINE"
);
},
{
closed = 1;
nodes = (
"336 329 LINE",
"336 231 OFFCURVE",
"315 172 OFFCURVE",
"227 172 CURVE SMOOTH",
"162 172 OFFCURVE",
"115 217 OFFCURVE",
"115 281 CURVE SMOOTH",
"115 372 OFFCURVE",
"180 393 OFFCURVE",
"274 393 CURVE SMOOTH",
"616 393 LINE",
"616 451 LINE",
"281 451 LINE SMOOTH",
"125 451 OFFCURVE",
"50 398 OFFCURVE",
"50 283 CURVE SMOOTH",
"50 183 OFFCURVE",
"129 113 OFFCURVE",
"228 113 CURVE SMOOTH",
"347 113 OFFCURVE",
"400 188 OFFCURVE",
"400 329 CURVE SMOOTH",
"400 707 LINE",
"400 707 OFFCURVE",
"336 707 OFFCURVE",
"336 707 CURVE"
);
}
);
width = 763;
},
{
layerId = "22D14058-393A-410A-BECB-F56B411A01B2";
paths = (
{
closed = 1;
nodes = (
"621 0 LINE",
"785 0 LINE",
"785 723 LINE",
"621 723 LINE"
);
},
{
closed = 1;
nodes = (
"880 600 LINE",
"880 740 LINE",
"-20 740 LINE",
"-20 600 LINE"
);
},
{
closed = 1;
nodes = (
"342 286 LINE",
"342 233 OFFCURVE",
"327 196 OFFCURVE",
"277 196 CURVE SMOOTH",
"237 196 OFFCURVE",
"207 220 OFFCURVE",
"207 261 CURVE SMOOTH",
"207 312 OFFCURVE",
"249 332 OFFCURVE",
"300 332 CURVE SMOOTH",
"772 332 LINE",
"772 466 LINE",
"298 466 LINE SMOOTH",
"157 466 OFFCURVE",
"55 407 OFFCURVE",
"55 266 CURVE SMOOTH",
"55 139 OFFCURVE",
"155 58 OFFCURVE",
"281 58 CURVE SMOOTH",
"426 58 OFFCURVE",
"496 148 OFFCURVE",
"496 292 CURVE SMOOTH",
"496 652 LINE",
"496 652 OFFCURVE",
"342 652 OFFCURVE",
"342 652 CURVE"
);
}
);
width = 860;
},
{
layerId = "3C02C8EC-C43C-4762-8B99-FE4CB64E6532";
paths = (
{
closed = 1;
nodes = (
"532.759 0 LINE",
"597.759 0 LINE",
"726.478 730 LINE",
"726.478 730 OFFCURVE",
"661.478 730 OFFCURVE",
"661.478 730 CURVE"
);
},
{
closed = 1;
nodes = (
"857.661 680 LINE",
"868.241 740 LINE",
"25.241 740 LINE",
"14.661 680 LINE"
);
},
{
closed = 1;
nodes = (
"328.771 329 LINE",
"311.491 231 OFFCURVE",
"280.087 172 OFFCURVE",
"192.087 172 CURVE SMOOTH",
"127.087 172 OFFCURVE",
"88.022 217 OFFCURVE",
"99.307 281 CURVE SMOOTH",
"115.353 372 OFFCURVE",
"184.056 393 OFFCURVE",
"278.056 393 CURVE SMOOTH",
"620.056 393 LINE",
"630.282 451 LINE",
"295.282 451 LINE SMOOTH",
"139.282 451 OFFCURVE",
"54.937 398 OFFCURVE",
"34.66 283 CURVE SMOOTH",
"17.027 183 OFFCURVE",
"83.684 113 OFFCURVE",
"182.684 113 CURVE SMOOTH",
"301.684 113 OFFCURVE",
"367.908 188 OFFCURVE",
"392.771 329 CURVE SMOOTH",
"459.422 707 LINE",
"459.422 707 OFFCURVE",
"395.422 707 OFFCURVE",
"395.422 707 CURVE"
);
}
);
width = 763;
},
{
layerId = "AD4288EF-621A-4539-AF14-1A70F42B46A9";
paths = (
{
closed = 1;
nodes = (
"555.759 0 LINE",
"719.759 0 LINE",
"847.243 723 LINE",
"683.243 723 LINE"
);
},
{
closed = 1;
nodes = (
"920.555 600 LINE",
"945.241 740 LINE",
"45.241 740 LINE",
"20.555 600 LINE"
);
},
{
closed = 1;
nodes = (
"327.189 286 LINE",
"317.843 233 OFFCURVE",
"296.319 196 OFFCURVE",
"246.319 196 CURVE SMOOTH",
"206.319 196 OFFCURVE",
"180.551 220 OFFCURVE",
"187.78 261 CURVE SMOOTH",
"196.773 312 OFFCURVE",
"242.3 332 OFFCURVE",
"293.3 332 CURVE SMOOTH",
"765.3 332 LINE",
"788.927 466 LINE",
"314.927 466 LINE SMOOTH",
"173.927 466 OFFCURVE",
"61.524 407 OFFCURVE",
"36.662 266 CURVE SMOOTH",
"14.268 139 OFFCURVE",
"99.986 58 OFFCURVE",
"225.986 58 CURVE SMOOTH",
"370.986 58 OFFCURVE",
"456.855 148 OFFCURVE",
"482.246 292 CURVE SMOOTH",
"545.724 652 LINE",
"545.724 652 OFFCURVE",
"391.724 652 OFFCURVE",
"391.724 652 CURVE"
);
}
);
width = 860;
}
);
},
{
glyphname = dvYA;
lastChange = "2017-08-08 23:18:27 +0000";
layers = (
{
layerId = "C0ED9D5D-A651-429A-8F5D-D93A2EDA2DC0";
paths = (
{
closed = 1;
nodes = (
"272 690 LINE",
"272 645 LINE",
"272 501 OFFCURVE",
"271 450 OFFCURVE",
"71 450 CURVE",
"62 245 OFFCURVE",
"158 114 OFFCURVE",
"343 114 CURVE SMOOTH",
"505 114 OFFCURVE",
"589 236 OFFCURVE",
"569 358 CURVE",
"553 409 LINE",
"553 272 OFFCURVE",
"475 174 OFFCURVE",
"350 174 CURVE SMOOTH",
"212 174 OFFCURVE",
"138 266 OFFCURVE",
"140 395 CURVE",
"316 404 OFFCURVE",
"337 490 OFFCURVE",
"337 644 CURVE",
"337 698 LINE"
);
},
{
closed = 1;
nodes = (
"553 680 LINE",
"553 0 LINE",
"618 0 LINE",
"618 680 LINE",
"618 680 OFFCURVE",
"758 680 OFFCURVE",
"758 680 CURVE",
"758 740 LINE",
"-40 740 LINE",
"-40 680 LINE"
);
}
);
width = 718;
},
{
layerId = "22D14058-393A-410A-BECB-F56B411A01B2";
paths = (
{
closed = 1;
nodes = (
"216 611 LINE",
"216 584 LINE SMOOTH",
"216 494 OFFCURVE",
"208 438 OFFCURVE",
"61 438 CURVE",
"49 230 OFFCURVE",
"140 78 OFFCURVE",
"342 78 CURVE SMOOTH",
"493 78 OFFCURVE",
"568 176 OFFCURVE",
"561 295 CURVE",
"519 371 LINE",
"519 279 OFFCURVE",
"468 218 OFFCURVE",
"372 218 CURVE SMOOTH",
"280 218 OFFCURVE",
"231 273 OFFCURVE",
"231 351 CURVE",
"352 367 OFFCURVE",
"377 434 OFFCURVE",
"377 577 CURVE SMOOTH",
"377 611 LINE"
);
},
{
closed = 1;
nodes = (
"519 600 LINE",
"519 0 LINE",
"683 0 LINE",
"683 600 LINE",
"778 600 LINE",
"778 740 LINE",
"-20 740 LINE",
"-20 600 LINE"
);
}
);
width = 758;
},
{
layerId = "3C02C8EC-C43C-4762-8B99-FE4CB64E6532";
paths = (
{
closed = 1;
nodes = (
"328.425 690 LINE",
"320.49 645 LINE",
"295.099 501 OFFCURVE",
"285.106 450 OFFCURVE",
"85.106 450 CURVE",
"39.959 245 OFFCURVE",
"112.86 114 OFFCURVE",
"297.86 114 CURVE SMOOTH",
"459.86 114 OFFCURVE",
"565.372 236 OFFCURVE",
"566.884 358 CURVE",
"559.877 409 LINE",
"535.72 272 OFFCURVE",
"440.44 174 OFFCURVE",
"315.44 174 CURVE SMOOTH",
"177.44 174 OFFCURVE",
"119.662 266 OFFCURVE",
"144.408 395 CURVE",
"321.995 404 OFFCURVE",
"358.159 490 OFFCURVE",
"385.314 644 CURVE",
"394.835 698 LINE"
);
},
{
closed = 1;
nodes = (
"607.661 680 LINE",
"487.759 0 LINE",
"552.759 0 LINE",
"672.661 680 LINE",
"672.661 680 OFFCURVE",
"812.661 680 OFFCURVE",
"812.661 680 CURVE",
"823.241 740 LINE",
"25.241 740 LINE",
"14.661 680 LINE"
);
}
);
width = 718;
},
{
layerId = "AD4288EF-621A-4539-AF14-1A70F42B46A9";
paths = (
{
closed = 1;
nodes = (
"258.495 611 LINE",
"253.734 584 LINE SMOOTH",
"237.865 494 OFFCURVE",
"219.99 438 OFFCURVE",
"72.99 438 CURVE",
"24.314 230 OFFCURVE",
"88.513 78 OFFCURVE",
"290.513 78 CURVE SMOOTH",
"441.513 78 OFFCURVE",
"533.793 176 OFFCURVE",
"547.775 295 CURVE",
"519.176 371 LINE",
"502.954 279 OFFCURVE",
"441.198 218 OFFCURVE",
"345.198 218 CURVE SMOOTH",
"253.198 218 OFFCURVE",
"213.896 273 OFFCURVE",
"227.65 351 CURVE",
"351.471 367 OFFCURVE",
"388.285 434 OFFCURVE",
"413.5 577 CURVE SMOOTH",
"419.495 611 LINE"
);
},
{
closed = 1;
nodes = (
"559.555 600 LINE",
"453.759 0 LINE",
"617.759 0 LINE",
"723.555 600 LINE",
"818.555 600 LINE",
"843.241 740 LINE",
"45.241 740 LINE",
"20.555 600 LINE"
);
}
);
width = 758;
}
);
},
{
glyphname = dvRA;
lastChange = "2017-08-08 23:18:27 +0000";
layers = (
{
layerId = "C0ED9D5D-A651-429A-8F5D-D93A2EDA2DC0";
paths = (
{
closed = 1;
nodes = (
"154 349 LINE",
"388 349 OFFCURVE",
"441 387 OFFCURVE",
"441 624 CURVE SMOOTH",
"441 687 LINE",
"375 690 LINE",
"375 628 LINE",
"375 400 OFFCURVE",
"352 407 OFFCURVE",
"88 407 CURVE",
"88 213 LINE SMOOTH",
"88 89 OFFCURVE",
"153 -1 OFFCURVE",
"279 -1 CURVE SMOOTH",
"401 -1 OFFCURVE",
"470 86 OFFCURVE",
"470 210 CURVE",
"404 210 LINE",
"404 120 OFFCURVE",
"367 59 OFFCURVE",
"279 59 CURVE SMOOTH",
"189 59 OFFCURVE",
"154 123 OFFCURVE",
"154 213 CURVE SMOOTH"
);
},
{
closed = 1;
nodes = (
"564 680 LINE",
"564 740 LINE",
"-40 740 LINE",
"-40 680 LINE"
);
}
);
width = 524;
},
{
layerId = "22D14058-393A-410A-BECB-F56B411A01B2";
paths = (
{
closed = 1;
nodes = (
"227 292 LINE",
"426 297 OFFCURVE",
"471 376 OFFCURVE",
"471 570 CURVE SMOOTH",
"471 610 LINE",
"471 610 OFFCURVE",
"306 610 OFFCURVE",
"306 610 CURVE",
"306 569 LINE SMOOTH",
"306 421 OFFCURVE",
"278 421 OFFCURVE",
"61 421 CURVE",
"61 210 LINE SMOOTH",
"61 66 OFFCURVE",
"140 -4 OFFCURVE",
"280 -4 CURVE SMOOTH",
"420 -4 OFFCURVE",
"491 66 OFFCURVE",
"490 212 CURVE",
"330 212 LINE",
"330 173 OFFCURVE",
"320 136 OFFCURVE",
"280 136 CURVE SMOOTH",
"235 136 OFFCURVE",
"227 171 OFFCURVE",
"227 212 CURVE SMOOTH"
);
},
{
closed = 1;
nodes = (
"545 600 LINE",
"545 740 LINE",
"-20 740 LINE",
"-20 600 LINE"
);
}
);
width = 525;
},
{
layerId = "3C02C8EC-C43C-4762-8B99-FE4CB64E6532";
paths = (
{
closed = 1;
nodes = (
"150.385 349 LINE",
"384.385 349 OFFCURVE",
"444.086 387 OFFCURVE",
"485.875 624 CURVE SMOOTH",
"496.984 687 LINE",
"431.513 690 LINE",
"420.581 628 LINE",
"380.378 400 OFFCURVE",
"358.612 407 OFFCURVE",
"94.612 407 CURVE",
"60.405 213 LINE SMOOTH",
"38.54 89 OFFCURVE",
"87.671 -1 OFFCURVE",
"213.671 -1 CURVE SMOOTH",
"335.671 -1 OFFCURVE",
"420.011 86 OFFCURVE",
"441.876 210 CURVE",
"375.876 210 LINE",
"360.006 120 OFFCURVE",
"312.25 59 OFFCURVE",
"224.25 59 CURVE SMOOTH",
"134.25 59 OFFCURVE",
"110.535 123 OFFCURVE",
"126.405 213 CURVE SMOOTH"
);
},
{
closed = 1;
nodes = (
"618.75 680 LINE",
"629.329 740 LINE",
"25.329 740 LINE",
"14.75 680 LINE"
);
}
);
width = 524;
},
{
layerId = "AD4288EF-621A-4539-AF14-1A70F42B46A9";
paths = (
{
closed = 1;
nodes = (
"213.599 292 LINE",
"413.481 297 OFFCURVE",
"472.411 376 OFFCURVE",
"506.618 570 CURVE SMOOTH",
"513.671 610 LINE",
"513.671 610 OFFCURVE",
"348.671 610 OFFCURVE",
"348.671 610 CURVE",
"341.442 569 LINE SMOOTH",
"315.345 421 OFFCURVE",
"287.345 421 OFFCURVE",
"70.345 421 CURVE",
"33.14 210 LINE SMOOTH",
"7.749 66 OFFCURVE",
"74.406 -4 OFFCURVE",
"214.406 -4 CURVE SMOOTH",
"354.406 -4 OFFCURVE",
"437.749 66 OFFCURVE",
"462.493 212 CURVE",
"302.493 212 LINE",
"295.616 173 OFFCURVE",
"279.092 136 OFFCURVE",
"239.092 136 CURVE SMOOTH",
"194.092 136 OFFCURVE",
"192.264 171 OFFCURVE",
"199.493 212 CURVE SMOOTH"
);
},
{
closed = 1;
nodes = (
"585.908 600 LINE",
"610.594 740 LINE",
"45.594 740 LINE",
"20.908 600 LINE"
);
}
);
width = 525;
}
);
unicode = 0930;
},
{
glyphname = dvLA;
lastChange = "2017-08-08 23:18:27 +0000";
layers = (
{
anchors = (
{
name = abvm.e;
position = "{674, 740}";
},
{
name = blwm.u;
position = "{674, -85}";
},
{
name = blwm.virama;
position = "{636, -18}";
}
);
layerId = "C0ED9D5D-A651-429A-8F5D-D93A2EDA2DC0";
paths = (
{
closed = 1;
nodes = (
"490 231 LINE",
"486 357 OFFCURVE",
"519 451 OFFCURVE",
"630 451 CURVE SMOOTH",
"731 451 OFFCURVE",
"763 374 OFFCURVE",
"763 272 CURVE SMOOTH",
"763 153 OFFCURVE",
"701 72 OFFCURVE",
"564 81 CURVE",
"564 21 LINE",
"725 5 OFFCURVE",
"828 108 OFFCURVE",
"828 271 CURVE SMOOTH",
"828 396 OFFCURVE",
"784 488 OFFCURVE",
"674 507 CURVE",
"674 680 LINE",
"946 680 LINE",
"946 740 LINE",
"-40 740 LINE",
"-40 680 LINE",
"609 680 LINE",
"609 510 LINE",
"533 503 OFFCURVE",
"478 459 OFFCURVE",
"458 385 CURVE",
"436 466 OFFCURVE",
"371 511 OFFCURVE",
"285 511 CURVE SMOOTH",
"143 511 OFFCURVE",
"87 414 OFFCURVE",
"87 271 CURVE SMOOTH",
"87 108 OFFCURVE",
"190 5 OFFCURVE",
"351 21 CURVE",
"351 81 LINE",
"214 72 OFFCURVE",
"152 153 OFFCURVE",
"152 272 CURVE SMOOTH",
"152 374 OFFCURVE",
"184 451 OFFCURVE",
"285 451 CURVE SMOOTH",
"396 451 OFFCURVE",
"430 357 OFFCURVE",
"426 231 CURVE"
);
}
);
width = 906;
},
{
anchors = (
{
name = abvm.e;
position = "{691, 740}";
},
{
name = blwm.u;
position = "{704, -102}";
},
{
name = blwm.virama;
position = "{715, -29}";
}
);
layerId = "22D14058-393A-410A-BECB-F56B411A01B2";
paths = (
{
closed = 1;
nodes = (
"542 206 LINE",
"533 280 OFFCURVE",
"537 371 OFFCURVE",
"624 371 CURVE SMOOTH",
"681 371 OFFCURVE",
"708 330 OFFCURVE",
"708 270 CURVE SMOOTH",
"708 178 OFFCURVE",
"649 150 OFFCURVE",
"566 155 CURVE",
"566 13 LINE",
"760 -1 OFFCURVE",
"873 101 OFFCURVE",
"873 269 CURVE SMOOTH",
"873 414 OFFCURVE",
"795 493 OFFCURVE",
"691 511 CURVE",
"691 600 LINE",
"931 600 LINE",
"931 740 LINE",
"-20 740 LINE",
"-20 600 LINE",
"533 600 LINE",
"533 487 LINE",
"504 470 OFFCURVE",
"483 445 OFFCURVE",
"469 415 CURVE",
"438 477 OFFCURVE",
"378 515 OFFCURVE",
"290 515 CURVE SMOOTH",
"164 515 OFFCURVE",
"63 435 OFFCURVE",
"63 269 CURVE SMOOTH",
"63 101 OFFCURVE",
"176 -1 OFFCURVE",
"370 13 CURVE",
"370 155 LINE",
"287 150 OFFCURVE",
"228 178 OFFCURVE",
"228 270 CURVE SMOOTH",
"228 330 OFFCURVE",
"254 371 OFFCURVE",
"312 371 CURVE SMOOTH",
"399 371 OFFCURVE",
"400 280 OFFCURVE",
"392 206 CURVE"
);
}
);
width = 911;
},
{
anchors = (
{
name = abvm.e;
position = "{737.533, 740}";
},
{
name = blwm.u;
position = "{592.064, -85}";
},
{
name = blwm.virama;
position = "{565.878, -18}";
}
);
layerId = "3C02C8EC-C43C-4762-8B99-FE4CB64E6532";
paths = (
{
closed = 1;
nodes = (
"463.783 231 LINE",
"482 357 OFFCURVE",
"531.575 451 OFFCURVE",
"642.575 451 CURVE SMOOTH",
"743.575 451 OFFCURVE",
"761.998 374 OFFCURVE",
"744.012 272 CURVE SMOOTH",
"723.029 153 OFFCURVE",
"646.747 72 OFFCURVE",
"511.334 81 CURVE",
"500.754 21 LINE",
"658.933 5 OFFCURVE",
"780.095 108 OFFCURVE",
"808.836 271 CURVE SMOOTH",
"830.877 396 OFFCURVE",
"803.099 488 OFFCURVE",
"696.449 507 CURVE",
"726.954 680 LINE",
"998.954 680 LINE",
"1009.533 740 LINE",
"23.533 740 LINE",
"12.954 680 LINE",
"661.954 680 LINE",
"631.978 510 LINE",
"554.744 503 OFFCURVE",
"491.986 459 OFFCURVE",
"458.937 385 CURVE",
"451.22 466 OFFCURVE",
"394.155 511 OFFCURVE",
"308.155 511 CURVE SMOOTH",
"166.155 511 OFFCURVE",
"93.051 414 OFFCURVE",
"67.836 271 CURVE SMOOTH",
"39.095 108 OFFCURVE",
"123.933 5 OFFCURVE",
"287.754 21 CURVE",
"298.334 81 LINE",
"159.747 72 OFFCURVE",
"112.029 153 OFFCURVE",
"133.012 272 CURVE SMOOTH",
"150.998 374 OFFCURVE",
"196.575 451 OFFCURVE",
"297.575 451 CURVE SMOOTH",
"408.575 451 OFFCURVE",
"426 357 OFFCURVE",
"399.783 231 CURVE"
);
}
);
width = 906;
},
{
anchors = (
{
name = abvm.e;
position = "{755.208, 740}";
},
{
name = blwm.u;
position = "{619.74, -102}";
},
{
name = blwm.virama;
position = "{643.612, -29}";
}
);
layerId = "AD4288EF-621A-4539-AF14-1A70F42B46A9";
paths = (
{
closed = 1;
nodes = (
"512.049 206 LINE",
"516.097 280 OFFCURVE",
"536.143 371 OFFCURVE",
"623.143 371 CURVE SMOOTH",
"680.143 371 OFFCURVE",
"699.914 330 OFFCURVE",
"689.334 270 CURVE SMOOTH",
"673.112 178 OFFCURVE",
"609.175 150 OFFCURVE",
"527.056 155 CURVE",
"502.018 13 LINE",
"693.549 -1 OFFCURVE",
"824.535 101 OFFCURVE",
"854.158 269 CURVE SMOOTH",
"879.725 414 OFFCURVE",
"815.655 493 OFFCURVE",
"714.829 511 CURVE",
"730.522 600 LINE",
"970.522 600 LINE",
"995.208 740 LINE",
"44.208 740 LINE",
"19.522 600 LINE",
"572.522 600 LINE",
"552.597 487 LINE",
"520.599 470 OFFCURVE",
"495.191 445 OFFCURVE",
"475.901 415 CURVE",
"455.834 477 OFFCURVE",
"402.534 515 OFFCURVE",
"314.534 515 CURVE SMOOTH",
"188.534 515 OFFCURVE",
"73.428 435 OFFCURVE",
"44.158 269 CURVE SMOOTH",
"14.535 101 OFFCURVE",
"109.549 -1 OFFCURVE",
"306.018 13 CURVE",
"331.056 155 LINE",
"247.175 150 OFFCURVE",
"193.112 178 OFFCURVE",
"209.334 270 CURVE SMOOTH",
"219.914 330 OFFCURVE",
"253.143 371 OFFCURVE",
"311.143 371 CURVE SMOOTH",
"398.143 371 OFFCURVE",
"383.097 280 OFFCURVE",
"362.049 206 CURVE"
);
}
);
width = 911;
}
);
},
{
glyphname = dvLLA;
lastChange = "2017-08-08 23:18:27 +0000";
layers = (
{
anchors = (
{
name = abvm.e;
position = "{689, 740}";
},
{
name = blwm.u;
position = "{747, -44}";
},
{
name = blwm.virama;
position = "{715, 31}";
}
);
layerId = "C0ED9D5D-A651-429A-8F5D-D93A2EDA2DC0";
paths = (
{
closed = 1;
nodes = (
"624 490 LINE",
"624 490 OFFCURVE",
"689 490 OFFCURVE",
"689 490 CURVE",
"689 680 LINE",
"982 680 LINE",
"982 740 LINE",
"-40 740 LINE",
"-40 680 LINE",
"624 680 LINE"
);
},
{
closed = 1;
nodes = (
"480 398 CURVE",
"444 478 OFFCURVE",
"372 522 OFFCURVE",
"284 522 CURVE SMOOTH",
"151 522 OFFCURVE",
"51 429 OFFCURVE",
"51 294 CURVE SMOOTH",
"51 160 OFFCURVE",
"149 67 OFFCURVE",
"284 67 CURVE SMOOTH",
"372 67 OFFCURVE",
"443 110 OFFCURVE",
"480 190 CURVE",
"514 112 OFFCURVE",
"591 67 OFFCURVE",
"677 67 CURVE SMOOTH",
"812 67 OFFCURVE",
"910 160 OFFCURVE",
"910 294 CURVE SMOOTH",
"910 429 OFFCURVE",
"810 522 OFFCURVE",
"677 522 CURVE SMOOTH",
"591 522 OFFCURVE",
"513 477 OFFCURVE"
);
},
{
closed = 1;
nodes = (
"677 461 CURVE SMOOTH",
"777 461 OFFCURVE",
"845 395 OFFCURVE",
"845 294 CURVE SMOOTH",
"845 194 OFFCURVE",
"779 128 OFFCURVE",
"677 128 CURVE SMOOTH",
"579 128 OFFCURVE",
"514 197 OFFCURVE",
"514 294 CURVE SMOOTH",
"514 392 OFFCURVE",
"579 461 OFFCURVE"
);
},
{
closed = 1;
nodes = (
"284 128 CURVE SMOOTH",
"184 128 OFFCURVE",
"116 195 OFFCURVE",
"116 294 CURVE SMOOTH",
"116 395 OFFCURVE",
"184 461 OFFCURVE",
"284 461 CURVE SMOOTH",
"384 461 OFFCURVE",
"447 392 OFFCURVE",
"447 294 CURVE SMOOTH",
"447 197 OFFCURVE",
"384 128 OFFCURVE"
);
}
);
width = 942;
},
{
anchors = (
{
name = abvm.e;
position = "{730, 740}";
},
{
name = blwm.u;
position = "{759, -82}";
},
{
name = blwm.virama;
position = "{759, -11}";
}
);
layerId = "22D14058-393A-410A-BECB-F56B411A01B2";
paths = (
{
closed = 1;
nodes = (
"572 392 LINE",
"730 407 LINE",
"730 600 LINE",
"947 600 LINE",
"947 740 LINE",
"-20 740 LINE",
"-20 600 LINE",
"572 600 LINE"
);
},
{
closed = 1;
nodes = (
"476 388 CURVE",
"437 472 OFFCURVE",
"351 498 OFFCURVE",
"282 498 CURVE SMOOTH",
"149 498 OFFCURVE",
"48 407 OFFCURVE",
"48 264 CURVE SMOOTH",
"48 121 OFFCURVE",
"149 30 OFFCURVE",
"282 30 CURVE SMOOTH",
"350 30 OFFCURVE",
"443 59 OFFCURVE",
"475 139 CURVE",
"512 64 OFFCURVE",
"592 30 OFFCURVE",
"670 30 CURVE SMOOTH",
"803 30 OFFCURVE",
"903 122 OFFCURVE",
"903 264 CURVE SMOOTH",
"903 407 OFFCURVE",
"803 498 OFFCURVE",
"670 498 CURVE SMOOTH",
"601 498 OFFCURVE",
"519 478 OFFCURVE"
);
},
{
closed = 1;
nodes = (
"650 358 CURVE SMOOTH",
"706 358 OFFCURVE",
"744 320 OFFCURVE",
"744 264 CURVE SMOOTH",
"744 208 OFFCURVE",
"706 170 OFFCURVE",
"650 170 CURVE SMOOTH",
"594 170 OFFCURVE",
"556 207 OFFCURVE",
"556 264 CURVE SMOOTH",
"556 318 OFFCURVE",
"593 358 OFFCURVE"
);
},
{
closed = 1;
nodes = (
"302 170 CURVE SMOOTH",
"246 170 OFFCURVE",
"208 207 OFFCURVE",
"208 264 CURVE SMOOTH",
"208 320 OFFCURVE",
"245 358 OFFCURVE",
"302 358 CURVE SMOOTH",
"358 358 OFFCURVE",
"395 319 OFFCURVE",
"396 264 CURVE",
"396 208 OFFCURVE",
"358 170 OFFCURVE"
);
}
);
width = 927;
},
{
anchors = (
{
name = abvm.e;
position = "{748.334, 740}";
},
{
name = blwm.u;
position = "{668.094, -44}";
},
{
name = blwm.virama;
position = "{649.318, 31}";
}
);
layerId = "3C02C8EC-C43C-4762-8B99-FE4CB64E6532";
paths = (
{
closed = 1;
nodes = (
"639.252 490 LINE",
"639.252 490 OFFCURVE",
"704.252 490 OFFCURVE",
"704.252 490 CURVE",
"737.754 680 LINE",
"1030.754 680 LINE",
"1041.334 740 LINE",
"19.334 740 LINE",
"8.754 680 LINE",
"672.754 680 LINE"
);
},
{
closed = 1;
nodes = (
"479.03 398 CURVE",
"457.136 478 OFFCURVE",
"392.895 522 OFFCURVE",
"304.895 522 CURVE SMOOTH",
"171.895 522 OFFCURVE",
"55.496 429 OFFCURVE",
"31.692 294 CURVE SMOOTH",
"8.064 160 OFFCURVE",
"89.666 67 OFFCURVE",
"224.666 67 CURVE SMOOTH",
"312.666 67 OFFCURVE",
"391.248 110 OFFCURVE",
"442.354 190 CURVE",
"462.601 112 OFFCURVE",
"531.666 67 OFFCURVE",
"617.666 67 CURVE SMOOTH",
"752.666 67 OFFCURVE",
"867.064 160 OFFCURVE",
"890.692 294 CURVE SMOOTH",
"914.496 429 OFFCURVE",
"830.895 522 OFFCURVE",
"697.895 522 CURVE SMOOTH",
"611.895 522 OFFCURVE",
"525.96 477 OFFCURVE"
);
},
{
closed = 1;
nodes = (
"687.139 461 CURVE SMOOTH",
"787.139 461 OFFCURVE",
"843.501 395 OFFCURVE",
"825.692 294 CURVE SMOOTH",
"808.06 194 OFFCURVE",
"730.422 128 OFFCURVE",
"628.422 128 CURVE SMOOTH",
"530.422 128 OFFCURVE",
"477.588 197 OFFCURVE",
"494.692 294 CURVE SMOOTH",
"511.972 392 OFFCURVE",
"589.139 461 OFFCURVE"
);
},
{
closed = 1;
nodes = (
"235.422 128 CURVE SMOOTH",
"135.422 128 OFFCURVE",
"79.236 195 OFFCURVE",
"96.692 294 CURVE SMOOTH",
"114.501 395 OFFCURVE",
"194.139 461 OFFCURVE",
"294.139 461 CURVE SMOOTH",
"394.139 461 OFFCURVE",
"444.972 392 OFFCURVE",
"427.692 294 CURVE SMOOTH",
"410.588 197 OFFCURVE",
"335.422 128 OFFCURVE"
);
}
);
width = 942;
},
{
anchors = (
{
name = abvm.e;
position = "{792.596, 740}";
},
{
name = blwm.u;
position = "{676.655, -82}";
},
{
name = blwm.virama;
position = "{689.174, -11}";
}
);
layerId = "AD4288EF-621A-4539-AF14-1A70F42B46A9";
paths = (
{
closed = 1;
nodes = (
"573.234 392 LINE",
"733.879 407 LINE",
"767.91 600 LINE",
"984.91 600 LINE",
"1009.596 740 LINE",
"42.596 740 LINE",
"17.91 600 LINE",
"609.91 600 LINE"
);
},
{
closed = 1;
nodes = (
"476.529 388 CURVE",
"452.34 472 OFFCURVE",
"370.925 498 OFFCURVE",
"301.925 498 CURVE SMOOTH",
"168.925 498 OFFCURVE",
"51.879 407 OFFCURVE",
"26.664 264 CURVE SMOOTH",
"1.45 121 OFFCURVE",
"86.404 30 OFFCURVE",
"219.404 30 CURVE SMOOTH",
"287.404 30 OFFCURVE",
"385.517 59 OFFCURVE",
"431.624 139 CURVE",
"455.399 64 OFFCURVE",
"529.404 30 OFFCURVE",
"607.404 30 CURVE SMOOTH",
"740.404 30 OFFCURVE",
"856.626 122 OFFCURVE",
"881.664 264 CURVE SMOOTH",
"906.879 407 OFFCURVE",
"822.925 498 OFFCURVE",
"689.925 498 CURVE SMOOTH",
"620.925 498 OFFCURVE",
"535.398 478 OFFCURVE"
);
},
{
closed = 1;
nodes = (
"645.239 358 CURVE SMOOTH",
"701.239 358 OFFCURVE",
"732.539 320 OFFCURVE",
"722.664 264 CURVE SMOOTH",
"712.79 208 OFFCURVE",
"668.09 170 OFFCURVE",
"612.09 170 CURVE SMOOTH",
"556.09 170 OFFCURVE",
"524.614 207 OFFCURVE",
"534.664 264 CURVE SMOOTH",
"544.186 318 OFFCURVE",
"588.239 358 OFFCURVE"
);
},
{
closed = 1;
nodes = (
"264.09 170 CURVE SMOOTH",
"208.09 170 OFFCURVE",
"176.614 207 OFFCURVE",
"186.664 264 CURVE SMOOTH",
"196.539 320 OFFCURVE",
"240.239 358 OFFCURVE",
"297.239 358 CURVE SMOOTH",
"353.239 358 OFFCURVE",
"383.362 319 OFFCURVE",
"374.664 264 CURVE",
"364.79 208 OFFCURVE",
"320.09 170 OFFCURVE"
);
}
);
width = 927;
}
);
},
{
glyphname = dvNukta;
lastChange = "2017-08-08 23:18:27 +0000";
layers = (
{
layerId = "C0ED9D5D-A651-429A-8F5D-D93A2EDA2DC0";
paths = (
{
closed = 1;
nodes = (
"-377 -122 CURVE SMOOTH",
"-350 -122 OFFCURVE",
"-328 -100 OFFCURVE",
"-328 -73 CURVE SMOOTH",
"-328 -46 OFFCURVE",
"-350 -24 OFFCURVE",
"-377 -24 CURVE SMOOTH",
"-404 -24 OFFCURVE",
"-426 -46 OFFCURVE",
"-426 -73 CURVE SMOOTH",
"-426 -100 OFFCURVE",
"-404 -122 OFFCURVE"
);
}
);
width = 0;
},
{
layerId = "22D14058-393A-410A-BECB-F56B411A01B2";
paths = (
{
closed = 1;
nodes = (
"-277 -272 CURVE SMOOTH",
"-224 -272 OFFCURVE",
"-182 -230 OFFCURVE",
"-182 -178 CURVE SMOOTH",
"-182 -125 OFFCURVE",
"-224 -83 OFFCURVE",
"-277 -83 CURVE SMOOTH",
"-329 -83 OFFCURVE",
"-371 -125 OFFCURVE",
"-371 -178 CURVE SMOOTH",
"-371 -230 OFFCURVE",
"-329 -272 OFFCURVE"
);
}
);
width = 0;
},
{
layerId = "3C02C8EC-C43C-4762-8B99-FE4CB64E6532";
paths = (
{
closed = 1;
nodes = (
"-385.64 -122 CURVE SMOOTH",
"-358.64 -122 OFFCURVE",
"-332.761 -100 OFFCURVE",
"-328 -73 CURVE SMOOTH",
"-323.239 -46 OFFCURVE",
"-341.36 -24 OFFCURVE",
"-368.36 -24 CURVE SMOOTH",
"-395.36 -24 OFFCURVE",
"-421.239 -46 OFFCURVE",
"-426 -73 CURVE SMOOTH",
"-430.761 -100 OFFCURVE",
"-412.64 -122 OFFCURVE"
);
}
);
width = 0;
},
{
layerId = "AD4288EF-621A-4539-AF14-1A70F42B46A9";
paths = (
{
closed = 1;
nodes = (
"-293.663 -272 CURVE SMOOTH",
"-240.663 -272 OFFCURVE",
"-191.257 -230 OFFCURVE",
"-182.088 -178 CURVE SMOOTH",
"-172.743 -125 OFFCURVE",
"-207.337 -83 OFFCURVE",
"-260.337 -83 CURVE SMOOTH",
"-312.337 -83 OFFCURVE",
"-361.743 -125 OFFCURVE",
"-371.088 -178 CURVE SMOOTH",
"-380.257 -230 OFFCURVE",
"-345.663 -272 OFFCURVE"
);
}
);
width = 0;
}
);
unicode = 093C;
},
